<?xml version="1.0" encoding="UTF-8"?>
<svg xmlns="http://www.w3.org/2000/svg" xmlns:xlink="http://www.w3.org/1999/xlink" version="1.2" >
<font id="MontblancType-Bold">
<font-face  font-family="Montblanc Type" units-per-em="2048" ascent="1581" descent="-467" font-style="normal" font-weight="700" font-stretch="normal" cap-height="1483" x-height="1008" underline-position="-195" underline-thickness="102" />
<missing-glyph  horiz-adv-x="1176" d="M109 1389 L1061 1389 L1061 0 L109 0 L109 1389 Z M887 1282 L283 1282 L584 799 L887 1282 Z M946 1167 L649 694 L946 221 L946 1167 Z M887 106 L584 590 L283 106 L887 106 Z M520 694 L221 1167 L221 221 L520 694 Z " />
<glyph glyph-name=".null" d="" />
<glyph glyph-name="nonmarkingreturn" unicode="&#xd;" horiz-adv-x="727" d="" />
<glyph glyph-name="space" unicode="&#x20;" horiz-adv-x="487" d="" />
<glyph glyph-name="A" unicode="A" horiz-adv-x="1518" d="M940 551 L895 647 Q860 723 823.5 802 Q787 881 756 950 L752 950 Q720 879 683 802 Q646 725 608 643 L565 551 L940 551 Z M1051 313 L453 313 L303 0 L-12 0 L756 1534 L760 1534 L1530 0 L1198 0 L1051 313 Z " />
<glyph glyph-name="B" unicode="B" horiz-adv-x="1286" d="M559 258 Q742 258 817 295 Q865 318 885 356.5 Q905 395 905 446 Q905 545 834.5 592 Q764 639 635 639 L438 639 L438 258 L559 258 Z M438 1225 L438 862 L625 862 Q681 862 727 872.5 Q773 883 805.5 905 Q838 927 856 961.5 Q874 996 874 1044 Q874 1089 856 1126 Q838 1163 795 1186 Q751 1209 688 1217 Q625 1225 547 1225 L438 1225 Z M936 770 Q1066 732 1135 646.5 Q1204 561 1204 428 Q1204 304 1144 214 Q1084 124 967 70 Q814 0 555 0 L141 0 L141 1483 L551 1483 Q694 1483 800 1463 Q906 1443 981 1403 Q1077 1352 1125.5 1275 Q1174 1198 1174 1092 Q1174 1030 1157 979.5 Q1140 929 1109 889.5 Q1078 850 1034 821 Q990 792 936 774 L936 770 Z " />
<glyph glyph-name="C" unicode="C" horiz-adv-x="1378" d="M1292 78 Q1201 27 1091.5 2 Q982 -23 870 -23 Q753 -23 649 3.5 Q545 30 456.5 78.5 Q368 127 297 196 Q226 265 176.5 349.5 Q127 434 100.5 532.5 Q74 631 74 739 Q74 846 100 944.5 Q126 1043 175.5 1128 Q225 1213 295 1282.5 Q365 1352 452.5 1401.5 Q540 1451 644 1478 Q748 1505 864 1505 Q979 1505 1082 1480.5 Q1185 1456 1270 1411 L1270 1104 Q1231 1132 1184.5 1156.5 Q1138 1181 1086.5 1198 Q1035 1215 980 1225 Q925 1235 868 1235 Q759 1235 668 1197.5 Q577 1160 511.5 1094 Q446 1028 409.5 938 Q373 848 373 743 Q373 639 409 548.5 Q445 458 511.5 391 Q578 324 671.5 286 Q765 248 881 248 Q996 248 1101 286.5 Q1206 325 1292 393 L1292 78 Z " />
<glyph glyph-name="D" unicode="D" horiz-adv-x="1518" d="M141 1483 L555 1483 Q745 1483 895 1450 Q1045 1417 1159 1339 Q1302 1243 1377 1089.5 Q1452 936 1452 743 Q1452 566 1386 419.5 Q1320 273 1196 176 Q1082 85 920.5 42.5 Q759 0 535 0 L141 0 L141 1483 Z M551 262 Q705 262 811 289.5 Q917 317 991 377 Q1066 437 1109.5 530 Q1153 623 1153 743 Q1153 870 1103.5 968 Q1054 1066 969 1126 Q927 1155 879.5 1173.5 Q832 1192 779.5 1202.5 Q727 1213 669 1217 Q611 1221 549 1221 L440 1221 L440 262 L551 262 Z " />
<glyph glyph-name="E" unicode="E" horiz-adv-x="1145" d="M141 1483 L1044 1483 L1044 1221 L438 1221 L438 891 L963 891 L963 641 L438 641 L438 262 L1067 262 L1067 0 L141 0 L141 1483 Z " />
<glyph glyph-name="F" unicode="F" horiz-adv-x="1143" d="M141 1483 L1069 1483 L1069 1221 L440 1221 L440 862 L983 862 L983 612 L440 612 L440 0 L141 0 L141 1483 Z " />
<glyph glyph-name="G" unicode="G" horiz-adv-x="1491" d="M801 778 L1364 778 L1364 102 Q1262 42 1134 9.5 Q1006 -23 874 -23 Q698 -23 551.5 34.5 Q405 92 298.5 193.5 Q192 295 133 433.5 Q74 572 74 735 Q74 900 133.5 1040.5 Q193 1181 299.5 1284.5 Q406 1388 552.5 1446.5 Q699 1505 874 1505 Q1008 1505 1120 1474 Q1232 1443 1319 1397 L1319 1090 Q1228 1155 1114.5 1195 Q1001 1235 881 1235 Q766 1235 672.5 1196.5 Q579 1158 512.5 1091 Q446 1024 409.5 933.5 Q373 843 373 739 Q373 637 408 546.5 Q443 456 508.5 388.5 Q574 321 668 281.5 Q762 242 881 242 Q935 242 984 250.5 Q1033 259 1073 274 L1073 528 L801 528 L801 778 Z " />
<glyph glyph-name="H" unicode="H" horiz-adv-x="1556" d="M141 1483 L440 1483 L440 893 L1116 893 L1116 1483 L1415 1483 L1415 0 L1116 0 L1116 631 L440 631 L440 0 L141 0 L141 1483 Z " />
<glyph glyph-name="I" unicode="I" horiz-adv-x="582" d="M141 1483 L440 1483 L440 0 L141 0 L141 1483 Z " />
<glyph glyph-name="J" unicode="J" horiz-adv-x="825" d="M33 289 Q82 269 134.5 258.5 Q187 248 225 248 Q274 248 305 260.5 Q336 273 354 300 Q372 327 378.5 368.5 Q385 410 385 469 L385 1483 L684 1483 L684 475 Q684 351 662.5 262.5 Q641 174 590 111 Q560 74 521.5 48.5 Q483 23 439.5 7 Q396 -9 348 -16 Q300 -23 252 -23 Q184 -23 128.5 -11 Q73 1 33 16 L33 289 Z " />
<glyph glyph-name="K" unicode="K" horiz-adv-x="1362" d="M141 1483 L440 1483 L440 803 L444 801 L989 1483 L1348 1483 L764 774 L1397 0 L1024 0 L444 725 L440 723 L440 0 L141 0 L141 1483 Z " />
<glyph glyph-name="L" unicode="L" horiz-adv-x="1139" d="M141 1483 L440 1483 L440 262 L1100 262 L1100 0 L141 0 L141 1483 Z " />
<glyph glyph-name="M" unicode="M" horiz-adv-x="1874" d="M141 1532 L145 1534 L938 698 L1729 1534 L1733 1532 L1733 0 L1434 0 L1434 537 Q1434 605 1434 673.5 Q1434 742 1436 819 L1432 821 Q1407 794 1381 765 Q1355 736 1326 703.5 Q1297 671 1264 634.5 Q1231 598 1192 555 L934 272 L672 557 Q630 603 596.5 640 Q563 677 534.5 708 Q506 739 481.5 766.5 Q457 794 432 821 L428 819 Q430 742 430 675 Q430 608 430 539 L430 0 L141 0 L141 1532 Z " />
<glyph glyph-name="N" unicode="N" horiz-adv-x="1608" d="M145 1534 L918 831 Q999 757 1063.5 698 Q1128 639 1176 594 L1180 596 Q1178 676 1178 760.5 Q1178 845 1178 936 L1178 1483 L1466 1483 L1466 -49 L1462 -51 L690 651 Q609 726 544.5 785 Q480 844 432 889 L428 887 Q430 806 430 722 Q430 638 430 547 L430 0 L141 0 L141 1532 L145 1534 Z " />
<glyph glyph-name="O" unicode="O" horiz-adv-x="1683" d="M72 741 Q72 849 98.5 948 Q125 1047 174 1131.5 Q223 1216 292.5 1285 Q362 1354 447.5 1403 Q533 1452 632.5 1478.5 Q732 1505 842 1505 Q951 1505 1051 1478.5 Q1151 1452 1236.5 1403 Q1322 1354 1391.5 1285 Q1461 1216 1510 1131.5 Q1559 1047 1585.5 948 Q1612 849 1612 741 Q1612 633 1585.5 534.5 Q1559 436 1510 351 Q1461 266 1391.5 197 Q1322 128 1236.5 79 Q1151 30 1051 3.5 Q951 -23 842 -23 Q677 -23 536.5 35.5 Q396 94 292.5 197 Q189 300 130.5 439.5 Q72 579 72 741 Z M371 741 Q371 638 407 548.5 Q443 459 506 392.5 Q569 326 655 288 Q741 250 842 250 Q943 250 1029.5 288 Q1116 326 1179 392.5 Q1242 459 1277.5 548.5 Q1313 638 1313 741 Q1313 844 1277.5 934 Q1242 1024 1179 1090.5 Q1116 1157 1029.5 1195 Q943 1233 842 1233 Q741 1233 655 1195 Q569 1157 506 1090.5 Q443 1024 407 934 Q371 844 371 741 Z " />
<glyph glyph-name="P" unicode="P" horiz-adv-x="1284" d="M141 1483 L553 1483 Q618 1483 678 1480 Q738 1477 793 1468.5 Q848 1460 898 1444.5 Q948 1429 993 1405 Q1041 1379 1084 1341.5 Q1127 1304 1159.5 1255 Q1192 1206 1210.5 1144.5 Q1229 1083 1229 1010 Q1229 941 1213.5 882 Q1198 823 1170 774 Q1142 725 1103 685.5 Q1064 646 1018 618 Q930 565 812.5 546.5 Q695 528 537 528 L440 528 L440 0 L141 0 L141 1483 Z M555 774 Q606 774 647 775 Q688 776 721.5 780.5 Q755 785 781.5 793 Q808 801 831 815 Q878 843 904 887 Q930 931 930 993 Q930 1062 900 1111.5 Q870 1161 817 1186 Q768 1209 703 1215 Q638 1221 547 1221 L440 1221 L440 774 L555 774 Z " />
<glyph glyph-name="Q" unicode="Q" horiz-adv-x="1683" d="M371 741 Q371 638 407 548.5 Q443 459 506 392.5 Q569 326 655 288 Q741 250 842 250 Q943 250 1029.5 288 Q1116 326 1179 392.5 Q1242 459 1277.5 548.5 Q1313 638 1313 741 Q1313 844 1277.5 934 Q1242 1024 1179 1090.5 Q1116 1157 1029.5 1195 Q943 1233 842 1233 Q741 1233 655 1195 Q569 1157 506 1090.5 Q443 1024 407 934 Q371 844 371 741 Z M950 -14 Q922 -17 896 -18.5 Q870 -20 842 -20 Q677 -20 536.5 38 Q396 96 292.5 198.5 Q189 301 130.5 440 Q72 579 72 741 Q72 849 98.5 948 Q125 1047 174 1131.5 Q223 1216 292.5 1285 Q362 1354 447.5 1403 Q533 1452 632.5 1478.5 Q732 1505 842 1505 Q951 1505 1051 1478.5 Q1151 1452 1236.5 1403 Q1322 1354 1391.5 1285 Q1461 1216 1510 1131.5 Q1559 1047 1585.5 948 Q1612 849 1612 741 Q1612 632 1584 533 Q1556 434 1505 348.5 Q1454 263 1383 193.5 Q1312 124 1225 76 L1499 -383 L1153 -383 L950 -14 Z " />
<glyph glyph-name="R" unicode="R" horiz-adv-x="1317" d="M440 809 L604 809 Q678 809 732.5 818 Q787 827 827 852 Q871 878 891 917.5 Q911 957 911 1014 Q911 1073 889.5 1114 Q868 1155 821 1180 Q778 1203 714.5 1212 Q651 1221 561 1221 L440 1221 L440 809 Z M977 0 L602 582 L440 582 L440 0 L141 0 L141 1483 L575 1483 Q640 1483 702.5 1478.5 Q765 1474 822.5 1463.5 Q880 1453 932 1434.5 Q984 1416 1028 1389 Q1070 1363 1103.5 1328.5 Q1137 1294 1160.5 1250 Q1184 1206 1197 1152 Q1210 1098 1210 1034 Q1210 886 1133.5 777.5 Q1057 669 907 621 L1323 0 L977 0 Z " />
<glyph glyph-name="S" unicode="S" horiz-adv-x="1147" d="M113 395 Q170 355 232 326 Q294 297 353.5 278.5 Q413 260 467.5 251 Q522 242 565 242 Q613 242 653 252.5 Q693 263 721.5 285 Q750 307 766 339.5 Q782 372 782 416 Q782 471 757 505 Q732 539 688.5 561.5 Q645 584 587 601.5 Q529 619 463 641 Q389 666 320 699 Q251 732 197.5 781 Q144 830 112 898.5 Q80 967 80 1063 Q80 1164 116 1246 Q152 1328 217.5 1385.5 Q283 1443 375 1474 Q467 1505 578 1505 Q632 1505 689.5 1498 Q747 1491 803.5 1477 Q860 1463 913.5 1442.5 Q967 1422 1012 1395 L1012 1096 Q955 1133 896 1160.5 Q837 1188 781 1206 Q725 1224 673.5 1232.5 Q622 1241 580 1241 Q536 1241 499.5 1231.5 Q463 1222 436.5 1202.5 Q410 1183 395.5 1153.5 Q381 1124 381 1085 Q381 1034 404.5 1003 Q428 972 469 950.5 Q510 929 565.5 912.5 Q621 896 686 874 Q767 847 839 812 Q911 777 965 726 Q1019 675 1051 604 Q1083 533 1083 434 Q1083 329 1045.5 244.5 Q1008 160 939.5 100.5 Q871 41 776 9 Q681 -23 567 -23 Q512 -23 452 -15 Q392 -7 333 7.5 Q274 22 217.5 43.5 Q161 65 113 92 L113 395 Z " />
<glyph glyph-name="T" unicode="T" horiz-adv-x="1331" d="M516 1221 L33 1221 L33 1483 L1298 1483 L1298 1221 L815 1221 L815 0 L516 0 L516 1221 Z " />
<glyph glyph-name="U" unicode="U" horiz-adv-x="1526" d="M1399 719 Q1399 553 1375 428.5 Q1351 304 1288 213 Q1250 158 1196 114 Q1142 70 1075 39.5 Q1008 9 929 -7 Q850 -23 762 -23 Q673 -23 594 -6.5 Q515 10 448 40.5 Q381 71 327 115.5 Q273 160 236 217 Q174 310 150.5 431.5 Q127 553 127 709 L127 1483 L426 1483 L426 723 Q426 600 438.5 520.5 Q451 441 483 387 Q501 358 527 332.5 Q553 307 588 288 Q623 269 668 258.5 Q713 248 768 248 Q873 248 940.5 283.5 Q1008 319 1047 381 Q1082 438 1096 519 Q1110 600 1110 719 L1110 1483 L1399 1483 L1399 719 Z " />
<glyph glyph-name="V" unicode="V" horiz-adv-x="1444" d="M575 918 Q619 824 657 740 Q695 656 727 584 L731 584 Q763 656 800 737.5 Q837 819 881 913 L1143 1483 L1460 1483 L725 -51 L721 -51 L-16 1483 L315 1483 L575 918 Z " />
<glyph glyph-name="W" unicode="W" horiz-adv-x="2157" d="M557 932 Q594 845 625 769 Q656 693 684 627 L688 627 Q702 660 716 693.5 Q730 727 745 763 Q760 799 778 839.5 Q796 880 817 928 L1081 1534 L1085 1534 L1350 928 Q1390 837 1421.5 763 Q1453 689 1479 627 L1483 627 Q1497 660 1511 694 Q1525 728 1540.5 765 Q1556 802 1573.5 844 Q1591 886 1612 934 L1847 1483 L2165 1483 L1481 -51 L1477 -51 L1192 590 Q1161 659 1132.5 724 Q1104 789 1079 848 L1075 848 Q1050 789 1022 724 Q994 659 963 590 L676 -51 L672 -51 L-8 1483 L324 1483 L557 932 Z " />
<glyph glyph-name="X" unicode="X" horiz-adv-x="1407" d="M514 791 L45 1483 L397 1483 L549 1255 Q592 1190 632 1129 Q672 1068 711 1008 L715 1008 Q750 1063 791 1126.5 Q832 1190 874 1253 L1026 1483 L1362 1483 L893 791 L1438 0 L1081 0 L856 334 Q809 404 771 461 Q733 518 698 573 L694 573 Q657 516 618 457 Q579 398 539 338 L311 0 L-29 0 L514 791 Z " />
<glyph glyph-name="Y" unicode="Y" horiz-adv-x="1397" d="M551 666 L-23 1483 L330 1483 L524 1196 Q571 1128 614 1063 Q657 998 702 930 L707 930 Q750 995 793.5 1060.5 Q837 1126 887 1198 L1079 1483 L1419 1483 L850 668 L850 0 L551 0 L551 666 Z " />
<glyph glyph-name="Z" unicode="Z" horiz-adv-x="1327" d="M27 0 L25 4 L756 1217 L754 1221 L88 1221 L88 1483 L1251 1483 L1253 1479 L522 266 L524 262 L1235 262 L1235 0 L27 0 Z " />
<glyph glyph-name="Agrave" unicode="&#xc0;" horiz-adv-x="1518" d="M940 551 L895 647 Q860 723 823.5 802 Q787 881 756 950 L752 950 Q720 879 683 802 Q646 725 608 643 L565 551 L940 551 Z M1051 313 L453 313 L303 0 L-12 0 L756 1534 L760 1534 L1530 0 L1198 0 L1051 313 Z M483 1934 L747 1934 L915 1598 L717 1598 L483 1934 Z " />
<glyph glyph-name="Aacute" unicode="&#xc1;" horiz-adv-x="1518" d="M940 551 L895 647 Q860 723 823.5 802 Q787 881 756 950 L752 950 Q720 879 683 802 Q646 725 608 643 L565 551 L940 551 Z M1051 313 L453 313 L303 0 L-12 0 L756 1534 L760 1534 L1530 0 L1198 0 L1051 313 Z M799 1598 L600 1598 L768 1934 L1032 1934 L799 1598 Z " />
<glyph glyph-name="Acircumflex" unicode="&#xc2;" horiz-adv-x="1518" d="M940 551 L895 647 Q860 723 823.5 802 Q787 881 756 950 L752 950 Q720 879 683 802 Q646 725 608 643 L565 551 L940 551 Z M1051 313 L453 313 L303 0 L-12 0 L756 1534 L760 1534 L1530 0 L1198 0 L1051 313 Z M391 1600 L756 1971 L760 1971 L1124 1600 L897 1600 L758 1727 L618 1600 L391 1600 Z " />
<glyph glyph-name="Atilde" unicode="&#xc3;" horiz-adv-x="1518" d="M940 551 L895 647 Q860 723 823.5 802 Q787 881 756 950 L752 950 Q720 879 683 802 Q646 725 608 643 L565 551 L940 551 Z M1051 313 L453 313 L303 0 L-12 0 L756 1534 L760 1534 L1530 0 L1198 0 L1051 313 Z M422 1836 Q451 1868 496.5 1890.5 Q542 1913 602 1913 Q680 1913 774 1864 Q818 1841 848 1829 Q878 1817 913 1817 Q943 1817 968 1826 Q993 1835 1014.5 1849 Q1036 1863 1054.5 1881.5 Q1073 1900 1089 1920 L1093 1918 L1093 1700 Q1064 1668 1018.5 1645.5 Q973 1623 913 1623 Q836 1623 741 1672 Q697 1694 667 1706.5 Q637 1719 602 1719 Q572 1719 547 1710 Q522 1701 500.5 1687 Q479 1673 460.5 1654 Q442 1635 426 1616 L422 1619 L422 1836 Z " />
<glyph glyph-name="Adieresis" unicode="&#xc4;" horiz-adv-x="1518" d="M940 551 L895 647 Q860 723 823.5 802 Q787 881 756 950 L752 950 Q720 879 683 802 Q646 725 608 643 L565 551 L940 551 Z M1051 313 L453 313 L303 0 L-12 0 L756 1534 L760 1534 L1530 0 L1198 0 L1051 313 Z M385 1770 Q385 1801 396.5 1828 Q408 1855 428 1875.5 Q448 1896 474.5 1908 Q501 1920 532 1920 Q563 1920 590 1908 Q617 1896 637.5 1875.5 Q658 1855 670 1828 Q682 1801 682 1770 Q682 1739 670 1712.5 Q658 1686 637.5 1666 Q617 1646 590 1634.5 Q563 1623 532 1623 Q501 1623 474.5 1634.5 Q448 1646 428 1666 Q408 1686 396.5 1712.5 Q385 1739 385 1770 Z M833 1770 Q833 1801 844.5 1828 Q856 1855 876 1875.5 Q896 1896 923 1908 Q950 1920 981 1920 Q1012 1920 1039 1908 Q1066 1896 1086 1875.5 Q1106 1855 1118 1828 Q1130 1801 1130 1770 Q1130 1739 1118 1712.5 Q1106 1686 1086 1666 Q1066 1646 1039 1634.5 Q1012 1623 981 1623 Q950 1623 923 1634.5 Q896 1646 876 1666 Q856 1686 844.5 1712.5 Q833 1739 833 1770 Z " />
<glyph glyph-name="Amacron" unicode="&#x100;" horiz-adv-x="1518" d="M940 551 L895 647 Q860 723 823.5 802 Q787 881 756 950 L752 950 Q720 879 683 802 Q646 725 608 643 L565 551 L940 551 Z M1051 313 L453 313 L303 0 L-12 0 L756 1534 L760 1534 L1530 0 L1198 0 L1051 313 Z M450 1862 L1065 1862 L1065 1670 L450 1670 L450 1862 Z " />
<glyph glyph-name="Abreve" unicode="&#x102;" horiz-adv-x="1518" d="M940 551 L895 647 Q860 723 823.5 802 Q787 881 756 950 L752 950 Q720 879 683 802 Q646 725 608 643 L565 551 L940 551 Z M1051 313 L453 313 L303 0 L-12 0 L756 1534 L760 1534 L1530 0 L1198 0 L1051 313 Z M1081 1932 Q1079 1858 1057 1797.5 Q1035 1737 994 1693.5 Q953 1650 893.5 1626 Q834 1602 758 1602 Q681 1602 621.5 1626 Q562 1650 521 1693.5 Q480 1737 458 1797.5 Q436 1858 434 1932 L596 1932 Q598 1896 608 1863.5 Q618 1831 637 1806 Q656 1781 686 1766.5 Q716 1752 758 1752 Q800 1752 829.5 1766.5 Q859 1781 878 1806 Q897 1831 907 1863.5 Q917 1896 919 1932 L1081 1932 Z " />
<glyph glyph-name="Aring" unicode="&#xc5;" horiz-adv-x="1518" d="M940 551 L895 647 Q860 723 823.5 802 Q787 881 756 950 L752 950 Q720 879 683 802 Q646 725 608 643 L565 551 L940 551 Z M1051 313 L453 313 L303 0 L-12 0 L756 1534 L760 1534 L1530 0 L1198 0 L1051 313 Z M758 1557 Q702 1557 654 1576 Q606 1595 571.5 1629 Q537 1663 517.5 1708.5 Q498 1754 498 1807 Q498 1860 517.5 1905.5 Q537 1951 571.5 1985 Q606 2019 654 2038 Q702 2057 758 2057 Q814 2057 861.5 2038 Q909 2019 944 1985 Q979 1951 998.5 1905.5 Q1018 1860 1018 1807 Q1018 1754 998.5 1708.5 Q979 1663 944 1629 Q909 1595 861.5 1576 Q814 1557 758 1557 Z M758 1682 Q786 1682 808.5 1692 Q831 1702 846.5 1719 Q862 1736 870 1758.5 Q878 1781 878 1807 Q878 1832 870 1855 Q862 1878 846.5 1895 Q831 1912 808.5 1922 Q786 1932 758 1932 Q729 1932 707 1922 Q685 1912 669 1895 Q653 1878 645 1855 Q637 1832 637 1807 Q637 1781 645 1758.5 Q653 1736 669 1719 Q685 1702 707 1692 Q729 1682 758 1682 Z " />
<glyph glyph-name="Aogonek" unicode="&#x104;" horiz-adv-x="1518" d="M1485 -451 Q1456 -459 1416 -466 Q1376 -473 1331 -473 Q1269 -473 1218.5 -457 Q1168 -441 1132.5 -412.5 Q1097 -384 1078 -344 Q1059 -304 1059 -256 Q1059 -190 1094 -121.5 Q1129 -53 1198 0 L1051 313 L453 313 L303 0 L-12 0 L756 1534 L760 1534 L1530 0 Q1462 -21 1416 -48 Q1370 -75 1342.5 -103.5 Q1315 -132 1303.5 -160 Q1292 -188 1292 -211 Q1292 -248 1316 -272.5 Q1340 -297 1386 -297 Q1405 -297 1432 -293 Q1459 -289 1485 -281 L1485 -451 Z M940 551 L895 647 Q860 723 823.5 802 Q787 881 756 950 L752 950 Q720 879 683 802 Q646 725 608 643 L565 551 L940 551 Z " />
<glyph glyph-name="AE" unicode="&#xc6;" horiz-adv-x="1892" d="M909 686 Q909 734 909 775 Q909 816 909 855.5 Q909 895 909.5 935.5 Q910 976 911 1022 L907 1022 Q859 940 805.5 849.5 Q752 759 698 668 L629 551 L909 551 L909 686 Z M1815 262 L1815 0 L909 0 L909 313 L489 313 L303 0 L-10 0 L881 1483 L1792 1483 L1792 1221 L1206 1221 L1206 891 L1710 891 L1710 641 L1206 641 L1206 262 L1815 262 Z " />
<glyph glyph-name="AEacute" unicode="&#x1fc;" horiz-adv-x="1892" d="M909 686 Q909 734 909 775 Q909 816 909 855.5 Q909 895 909.5 935.5 Q910 976 911 1022 L907 1022 Q859 940 805.5 849.5 Q752 759 698 668 L629 551 L909 551 L909 686 Z M1815 262 L1815 0 L909 0 L909 313 L489 313 L303 0 L-10 0 L881 1483 L1792 1483 L1792 1221 L1206 1221 L1206 891 L1710 891 L1710 641 L1206 641 L1206 262 L1815 262 Z M1293 1598 L1094 1598 L1262 1934 L1526 1934 L1293 1598 Z " />
<glyph glyph-name="Cacute" unicode="&#x106;" horiz-adv-x="1378" d="M1292 78 Q1201 27 1091.5 2 Q982 -23 870 -23 Q753 -23 649 3.5 Q545 30 456.5 78.5 Q368 127 297 196 Q226 265 176.5 349.5 Q127 434 100.5 532.5 Q74 631 74 739 Q74 846 100 944.5 Q126 1043 175.5 1128 Q225 1213 295 1282.5 Q365 1352 452.5 1401.5 Q540 1451 644 1478 Q748 1505 864 1505 Q979 1505 1082 1480.5 Q1185 1456 1270 1411 L1270 1104 Q1231 1132 1184.5 1156.5 Q1138 1181 1086.5 1198 Q1035 1215 980 1225 Q925 1235 868 1235 Q759 1235 668 1197.5 Q577 1160 511.5 1094 Q446 1028 409.5 938 Q373 848 373 743 Q373 639 409 548.5 Q445 458 511.5 391 Q578 324 671.5 286 Q765 248 881 248 Q996 248 1101 286.5 Q1206 325 1292 393 L1292 78 Z M934 1598 L735 1598 L903 1934 L1167 1934 L934 1598 Z " />
<glyph glyph-name="Ccircumflex" unicode="&#x108;" horiz-adv-x="1378" d="M1292 78 Q1201 27 1091.5 2 Q982 -23 870 -23 Q753 -23 649 3.5 Q545 30 456.5 78.5 Q368 127 297 196 Q226 265 176.5 349.5 Q127 434 100.5 532.5 Q74 631 74 739 Q74 846 100 944.5 Q126 1043 175.5 1128 Q225 1213 295 1282.5 Q365 1352 452.5 1401.5 Q540 1451 644 1478 Q748 1505 864 1505 Q979 1505 1082 1480.5 Q1185 1456 1270 1411 L1270 1104 Q1231 1132 1184.5 1156.5 Q1138 1181 1086.5 1198 Q1035 1215 980 1225 Q925 1235 868 1235 Q759 1235 668 1197.5 Q577 1160 511.5 1094 Q446 1028 409.5 938 Q373 848 373 743 Q373 639 409 548.5 Q445 458 511.5 391 Q578 324 671.5 286 Q765 248 881 248 Q996 248 1101 286.5 Q1206 325 1292 393 L1292 78 Z M424 1600 L789 1971 L793 1971 L1157 1600 L930 1600 L791 1727 L651 1600 L424 1600 Z " />
<glyph glyph-name="Ccaron" unicode="&#x10c;" horiz-adv-x="1378" d="M1292 78 Q1201 27 1091.5 2 Q982 -23 870 -23 Q753 -23 649 3.5 Q545 30 456.5 78.5 Q368 127 297 196 Q226 265 176.5 349.5 Q127 434 100.5 532.5 Q74 631 74 739 Q74 846 100 944.5 Q126 1043 175.5 1128 Q225 1213 295 1282.5 Q365 1352 452.5 1401.5 Q540 1451 644 1478 Q748 1505 864 1505 Q979 1505 1082 1480.5 Q1185 1456 1270 1411 L1270 1104 Q1231 1132 1184.5 1156.5 Q1138 1181 1086.5 1198 Q1035 1215 980 1225 Q925 1235 868 1235 Q759 1235 668 1197.5 Q577 1160 511.5 1094 Q446 1028 409.5 938 Q373 848 373 743 Q373 639 409 548.5 Q445 458 511.5 391 Q578 324 671.5 286 Q765 248 881 248 Q996 248 1101 286.5 Q1206 325 1292 393 L1292 78 Z M1157 1932 L793 1561 L789 1561 L424 1932 L651 1932 L791 1805 L930 1932 L1157 1932 Z " />
<glyph glyph-name="Cdotaccent" unicode="&#x10a;" horiz-adv-x="1378" d="M1292 78 Q1201 27 1091.5 2 Q982 -23 870 -23 Q753 -23 649 3.5 Q545 30 456.5 78.5 Q368 127 297 196 Q226 265 176.5 349.5 Q127 434 100.5 532.5 Q74 631 74 739 Q74 846 100 944.5 Q126 1043 175.5 1128 Q225 1213 295 1282.5 Q365 1352 452.5 1401.5 Q540 1451 644 1478 Q748 1505 864 1505 Q979 1505 1082 1480.5 Q1185 1456 1270 1411 L1270 1104 Q1231 1132 1184.5 1156.5 Q1138 1181 1086.5 1198 Q1035 1215 980 1225 Q925 1235 868 1235 Q759 1235 668 1197.5 Q577 1160 511.5 1094 Q446 1028 409.5 938 Q373 848 373 743 Q373 639 409 548.5 Q445 458 511.5 391 Q578 324 671.5 286 Q765 248 881 248 Q996 248 1101 286.5 Q1206 325 1292 393 L1292 78 Z M643 1770 Q643 1801 654.5 1828 Q666 1855 686 1875.5 Q706 1896 733 1908 Q760 1920 791 1920 Q822 1920 849 1908 Q876 1896 896 1875.5 Q916 1855 928 1828 Q940 1801 940 1770 Q940 1739 928 1712.5 Q916 1686 896 1666 Q876 1646 849 1634.5 Q822 1623 791 1623 Q760 1623 733 1634.5 Q706 1646 686 1666 Q666 1686 654.5 1712.5 Q643 1739 643 1770 Z " />
<glyph glyph-name="Ccedilla" unicode="&#xc7;" horiz-adv-x="1378" d="M836 -23 L817 -78 Q902 -95 949.5 -142.5 Q997 -190 997 -264 Q997 -306 981 -341 Q965 -376 935 -401 Q905 -426 863 -439.5 Q821 -453 770 -453 Q717 -453 672.5 -441 Q628 -429 594 -414 L635 -285 Q667 -302 702 -313 Q737 -324 768 -324 Q800 -324 826 -309.5 Q852 -295 852 -266 Q852 -240 832 -223.5 Q812 -207 783.5 -197.5 Q755 -188 723.5 -184 Q692 -180 668 -178 L721 -10 Q576 13 456.5 78.5 Q337 144 252 243 Q167 342 120.5 468.5 Q74 595 74 739 Q74 846 100 944.5 Q126 1043 175.5 1128 Q225 1213 295 1282.5 Q365 1352 452.5 1401.5 Q540 1451 644 1478 Q748 1505 864 1505 Q979 1505 1082 1480.5 Q1185 1456 1270 1411 L1270 1104 Q1231 1132 1184.5 1156.5 Q1138 1181 1086.5 1198 Q1035 1215 980 1225 Q925 1235 868 1235 Q759 1235 668 1197.5 Q577 1160 511.5 1094 Q446 1028 409.5 938 Q373 848 373 743 Q373 639 409 548.5 Q445 458 511.5 391 Q578 324 671.5 286 Q765 248 881 248 Q996 248 1101 286.5 Q1206 325 1292 393 L1292 78 Q1201 27 1091.5 2 Q982 -23 870 -23 L836 -23 Z " />
<glyph glyph-name="Dcaron" unicode="&#x10e;" horiz-adv-x="1518" d="M141 1483 L555 1483 Q745 1483 895 1450 Q1045 1417 1159 1339 Q1302 1243 1377 1089.5 Q1452 936 1452 743 Q1452 566 1386 419.5 Q1320 273 1196 176 Q1082 85 920.5 42.5 Q759 0 535 0 L141 0 L141 1483 Z M551 262 Q705 262 811 289.5 Q917 317 991 377 Q1066 437 1109.5 530 Q1153 623 1153 743 Q1153 870 1103.5 968 Q1054 1066 969 1126 Q927 1155 879.5 1173.5 Q832 1192 779.5 1202.5 Q727 1213 669 1217 Q611 1221 549 1221 L440 1221 L440 262 L551 262 Z M1063 1932 L699 1561 L695 1561 L330 1932 L557 1932 L697 1805 L836 1932 L1063 1932 Z " />
<glyph glyph-name="Dcroat" unicode="&#x110;" horiz-adv-x="1546" d="M4 862 L170 862 L170 1483 L584 1483 Q774 1483 923.5 1450 Q1073 1417 1188 1339 Q1330 1243 1405.5 1089.5 Q1481 936 1481 743 Q1481 566 1415 419.5 Q1349 273 1225 176 Q1111 85 949 42.5 Q787 0 563 0 L170 0 L170 647 L4 647 L4 862 Z M580 262 Q733 262 839.5 289.5 Q946 317 1020 377 Q1094 437 1138 530 Q1182 623 1182 743 Q1182 870 1132 968 Q1082 1066 997 1126 Q956 1155 908.5 1173.5 Q861 1192 808 1202.5 Q755 1213 697.5 1217 Q640 1221 578 1221 L469 1221 L469 862 L748 862 L748 647 L469 647 L469 262 L580 262 Z " />
<glyph glyph-name="Egrave" unicode="&#xc8;" horiz-adv-x="1145" d="M141 1483 L1044 1483 L1044 1221 L438 1221 L438 891 L963 891 L963 641 L438 641 L438 262 L1067 262 L1067 0 L141 0 L141 1483 Z M325 1934 L589 1934 L757 1598 L559 1598 L325 1934 Z " />
<glyph glyph-name="Eacute" unicode="&#xc9;" horiz-adv-x="1145" d="M141 1483 L1044 1483 L1044 1221 L438 1221 L438 891 L963 891 L963 641 L438 641 L438 262 L1067 262 L1067 0 L141 0 L141 1483 Z M641 1598 L442 1598 L610 1934 L874 1934 L641 1598 Z " />
<glyph glyph-name="Ecircumflex" unicode="&#xca;" horiz-adv-x="1145" d="M141 1483 L1044 1483 L1044 1221 L438 1221 L438 891 L963 891 L963 641 L438 641 L438 262 L1067 262 L1067 0 L141 0 L141 1483 Z M233 1600 L598 1971 L602 1971 L966 1600 L739 1600 L600 1727 L460 1600 L233 1600 Z " />
<glyph glyph-name="Ecaron" unicode="&#x11a;" horiz-adv-x="1145" d="M141 1483 L1044 1483 L1044 1221 L438 1221 L438 891 L963 891 L963 641 L438 641 L438 262 L1067 262 L1067 0 L141 0 L141 1483 Z M966 1932 L602 1561 L598 1561 L233 1932 L460 1932 L600 1805 L739 1932 L966 1932 Z " />
<glyph glyph-name="Edieresis" unicode="&#xcb;" horiz-adv-x="1145" d="M141 1483 L1044 1483 L1044 1221 L438 1221 L438 891 L963 891 L963 641 L438 641 L438 262 L1067 262 L1067 0 L141 0 L141 1483 Z M227 1770 Q227 1801 238.5 1828 Q250 1855 270 1875.5 Q290 1896 316.5 1908 Q343 1920 374 1920 Q405 1920 432 1908 Q459 1896 479.5 1875.5 Q500 1855 512 1828 Q524 1801 524 1770 Q524 1739 512 1712.5 Q500 1686 479.5 1666 Q459 1646 432 1634.5 Q405 1623 374 1623 Q343 1623 316.5 1634.5 Q290 1646 270 1666 Q250 1686 238.5 1712.5 Q227 1739 227 1770 Z M675 1770 Q675 1801 686.5 1828 Q698 1855 718 1875.5 Q738 1896 765 1908 Q792 1920 823 1920 Q854 1920 881 1908 Q908 1896 928 1875.5 Q948 1855 960 1828 Q972 1801 972 1770 Q972 1739 960 1712.5 Q948 1686 928 1666 Q908 1646 881 1634.5 Q854 1623 823 1623 Q792 1623 765 1634.5 Q738 1646 718 1666 Q698 1686 686.5 1712.5 Q675 1739 675 1770 Z " />
<glyph glyph-name="Emacron" unicode="&#x112;" horiz-adv-x="1145" d="M141 1483 L1044 1483 L1044 1221 L438 1221 L438 891 L963 891 L963 641 L438 641 L438 262 L1067 262 L1067 0 L141 0 L141 1483 Z M292 1862 L907 1862 L907 1670 L292 1670 L292 1862 Z " />
<glyph glyph-name="Ebreve" unicode="&#x114;" horiz-adv-x="1145" d="M141 1483 L1044 1483 L1044 1221 L438 1221 L438 891 L963 891 L963 641 L438 641 L438 262 L1067 262 L1067 0 L141 0 L141 1483 Z M923 1932 Q921 1858 899 1797.5 Q877 1737 836 1693.5 Q795 1650 735.5 1626 Q676 1602 600 1602 Q523 1602 463.5 1626 Q404 1650 363 1693.5 Q322 1737 300 1797.5 Q278 1858 276 1932 L438 1932 Q440 1896 450 1863.5 Q460 1831 479 1806 Q498 1781 528 1766.5 Q558 1752 600 1752 Q642 1752 671.5 1766.5 Q701 1781 720 1806 Q739 1831 749 1863.5 Q759 1896 761 1932 L923 1932 Z " />
<glyph glyph-name="Edotaccent" unicode="&#x116;" horiz-adv-x="1145" d="M141 1483 L1044 1483 L1044 1221 L438 1221 L438 891 L963 891 L963 641 L438 641 L438 262 L1067 262 L1067 0 L141 0 L141 1483 Z M452 1770 Q452 1801 463.5 1828 Q475 1855 495 1875.5 Q515 1896 542 1908 Q569 1920 600 1920 Q631 1920 658 1908 Q685 1896 705 1875.5 Q725 1855 737 1828 Q749 1801 749 1770 Q749 1739 737 1712.5 Q725 1686 705 1666 Q685 1646 658 1634.5 Q631 1623 600 1623 Q569 1623 542 1634.5 Q515 1646 495 1666 Q475 1686 463.5 1712.5 Q452 1739 452 1770 Z " />
<glyph glyph-name="Eogonek" unicode="&#x118;" horiz-adv-x="1145" d="M141 1483 L1044 1483 L1044 1221 L438 1221 L438 891 L963 891 L963 641 L438 641 L438 262 L1067 262 L1067 0 Q1015 -22 978.5 -49 Q942 -76 918.5 -104 Q895 -132 884.5 -160 Q874 -188 874 -213 Q874 -250 898 -273.5 Q922 -297 969 -297 Q987 -297 1014 -293 Q1041 -289 1067 -281 L1067 -451 Q1038 -459 997.5 -466 Q957 -473 913 -473 Q851 -473 801 -457 Q751 -441 716 -412.5 Q681 -384 662 -344.5 Q643 -305 643 -258 Q643 -198 674.5 -130.5 Q706 -63 778 -4 L776 0 L141 0 L141 1483 Z " />
<glyph glyph-name="Gcircumflex" unicode="&#x11c;" horiz-adv-x="1491" d="M801 778 L1364 778 L1364 102 Q1262 42 1134 9.5 Q1006 -23 874 -23 Q698 -23 551.5 34.5 Q405 92 298.5 193.5 Q192 295 133 433.5 Q74 572 74 735 Q74 900 133.5 1040.5 Q193 1181 299.5 1284.5 Q406 1388 552.5 1446.5 Q699 1505 874 1505 Q1008 1505 1120 1474 Q1232 1443 1319 1397 L1319 1090 Q1228 1155 1114.5 1195 Q1001 1235 881 1235 Q766 1235 672.5 1196.5 Q579 1158 512.5 1091 Q446 1024 409.5 933.5 Q373 843 373 739 Q373 637 408 546.5 Q443 456 508.5 388.5 Q574 321 668 281.5 Q762 242 881 242 Q935 242 984 250.5 Q1033 259 1073 274 L1073 528 L801 528 L801 778 Z M432 1600 L797 1971 L801 1971 L1165 1600 L938 1600 L799 1727 L659 1600 L432 1600 Z " />
<glyph glyph-name="Gbreve" unicode="&#x11e;" horiz-adv-x="1491" d="M801 778 L1364 778 L1364 102 Q1262 42 1134 9.5 Q1006 -23 874 -23 Q698 -23 551.5 34.5 Q405 92 298.5 193.5 Q192 295 133 433.5 Q74 572 74 735 Q74 900 133.5 1040.5 Q193 1181 299.5 1284.5 Q406 1388 552.5 1446.5 Q699 1505 874 1505 Q1008 1505 1120 1474 Q1232 1443 1319 1397 L1319 1090 Q1228 1155 1114.5 1195 Q1001 1235 881 1235 Q766 1235 672.5 1196.5 Q579 1158 512.5 1091 Q446 1024 409.5 933.5 Q373 843 373 739 Q373 637 408 546.5 Q443 456 508.5 388.5 Q574 321 668 281.5 Q762 242 881 242 Q935 242 984 250.5 Q1033 259 1073 274 L1073 528 L801 528 L801 778 Z M1122 1932 Q1120 1858 1098 1797.5 Q1076 1737 1035 1693.5 Q994 1650 934.5 1626 Q875 1602 799 1602 Q722 1602 662.5 1626 Q603 1650 562 1693.5 Q521 1737 499 1797.5 Q477 1858 475 1932 L637 1932 Q639 1896 649 1863.5 Q659 1831 678 1806 Q697 1781 727 1766.5 Q757 1752 799 1752 Q841 1752 870.5 1766.5 Q900 1781 919 1806 Q938 1831 948 1863.5 Q958 1896 960 1932 L1122 1932 Z " />
<glyph glyph-name="Gdotaccent" unicode="&#x120;" horiz-adv-x="1491" d="M801 778 L1364 778 L1364 102 Q1262 42 1134 9.5 Q1006 -23 874 -23 Q698 -23 551.5 34.5 Q405 92 298.5 193.5 Q192 295 133 433.5 Q74 572 74 735 Q74 900 133.5 1040.5 Q193 1181 299.5 1284.5 Q406 1388 552.5 1446.5 Q699 1505 874 1505 Q1008 1505 1120 1474 Q1232 1443 1319 1397 L1319 1090 Q1228 1155 1114.5 1195 Q1001 1235 881 1235 Q766 1235 672.5 1196.5 Q579 1158 512.5 1091 Q446 1024 409.5 933.5 Q373 843 373 739 Q373 637 408 546.5 Q443 456 508.5 388.5 Q574 321 668 281.5 Q762 242 881 242 Q935 242 984 250.5 Q1033 259 1073 274 L1073 528 L801 528 L801 778 Z M651 1770 Q651 1801 662.5 1828 Q674 1855 694 1875.5 Q714 1896 741 1908 Q768 1920 799 1920 Q830 1920 857 1908 Q884 1896 904 1875.5 Q924 1855 936 1828 Q948 1801 948 1770 Q948 1739 936 1712.5 Q924 1686 904 1666 Q884 1646 857 1634.5 Q830 1623 799 1623 Q768 1623 741 1634.5 Q714 1646 694 1666 Q674 1686 662.5 1712.5 Q651 1739 651 1770 Z " />
<glyph glyph-name="Gcommaaccent" unicode="&#x122;" horiz-adv-x="1491" d="M801 778 L1364 778 L1364 102 Q1262 42 1134 9.5 Q1006 -23 874 -23 Q698 -23 551.5 34.5 Q405 92 298.5 193.5 Q192 295 133 433.5 Q74 572 74 735 Q74 900 133.5 1040.5 Q193 1181 299.5 1284.5 Q406 1388 552.5 1446.5 Q699 1505 874 1505 Q1008 1505 1120 1474 Q1232 1443 1319 1397 L1319 1090 Q1228 1155 1114.5 1195 Q1001 1235 881 1235 Q766 1235 672.5 1196.5 Q579 1158 512.5 1091 Q446 1024 409.5 933.5 Q373 843 373 739 Q373 637 408 546.5 Q443 456 508.5 388.5 Q574 321 668 281.5 Q762 242 881 242 Q935 242 984 250.5 Q1033 259 1073 274 L1073 528 L801 528 L801 778 Z M975 -111 L813 -557 L618 -557 L723 -111 L975 -111 Z " />
<glyph glyph-name="Hcircumflex" unicode="&#x124;" horiz-adv-x="1556" d="M141 1483 L440 1483 L440 893 L1116 893 L1116 1483 L1415 1483 L1415 0 L1116 0 L1116 631 L440 631 L440 0 L141 0 L141 1483 Z M410 1600 L775 1971 L779 1971 L1143 1600 L916 1600 L777 1727 L637 1600 L410 1600 Z " />
<glyph glyph-name="Hbar" unicode="&#x126;" horiz-adv-x="1556" d="M-8 1294 L141 1294 L141 1483 L440 1483 L440 1294 L1116 1294 L1116 1483 L1415 1483 L1415 1294 L1565 1294 L1565 1081 L1415 1081 L1415 0 L1116 0 L1116 631 L440 631 L440 0 L141 0 L141 1081 L-8 1081 L-8 1294 Z M1116 893 L1116 1081 L440 1081 L440 893 L1116 893 Z " />
<glyph glyph-name="Igrave" unicode="&#xcc;" horiz-adv-x="582" d="M141 1483 L440 1483 L440 0 L141 0 L141 1483 Z M17 1934 L281 1934 L449 1598 L251 1598 L17 1934 Z " />
<glyph glyph-name="Iacute" unicode="&#xcd;" horiz-adv-x="582" d="M141 1483 L440 1483 L440 0 L141 0 L141 1483 Z M333 1598 L134 1598 L302 1934 L566 1934 L333 1598 Z " />
<glyph glyph-name="Icircumflex" unicode="&#xce;" horiz-adv-x="582" d="M141 1483 L440 1483 L440 0 L141 0 L141 1483 Z M-75 1600 L290 1971 L294 1971 L658 1600 L431 1600 L292 1727 L152 1600 L-75 1600 Z " />
<glyph glyph-name="Itilde" unicode="&#x128;" horiz-adv-x="582" d="M141 1483 L440 1483 L440 0 L141 0 L141 1483 Z M-44 1836 Q-15 1868 30.5 1890.5 Q76 1913 136 1913 Q214 1913 308 1864 Q352 1841 382 1829 Q412 1817 447 1817 Q477 1817 502 1826 Q527 1835 548.5 1849 Q570 1863 588.5 1881.5 Q607 1900 623 1920 L627 1918 L627 1700 Q598 1668 552.5 1645.5 Q507 1623 447 1623 Q370 1623 275 1672 Q231 1694 201 1706.5 Q171 1719 136 1719 Q106 1719 81 1710 Q56 1701 34.5 1687 Q13 1673 -5.5 1654 Q-24 1635 -40 1616 L-44 1619 L-44 1836 Z " />
<glyph glyph-name="Idieresis" unicode="&#xcf;" horiz-adv-x="582" d="M141 1483 L440 1483 L440 0 L141 0 L141 1483 Z M-81 1770 Q-81 1801 -69.5 1828 Q-58 1855 -38 1875.5 Q-18 1896 8.5 1908 Q35 1920 66 1920 Q97 1920 124 1908 Q151 1896 171.5 1875.5 Q192 1855 204 1828 Q216 1801 216 1770 Q216 1739 204 1712.5 Q192 1686 171.5 1666 Q151 1646 124 1634.5 Q97 1623 66 1623 Q35 1623 8.5 1634.5 Q-18 1646 -38 1666 Q-58 1686 -69.5 1712.5 Q-81 1739 -81 1770 Z M367 1770 Q367 1801 378.5 1828 Q390 1855 410 1875.5 Q430 1896 457 1908 Q484 1920 515 1920 Q546 1920 573 1908 Q600 1896 620 1875.5 Q640 1855 652 1828 Q664 1801 664 1770 Q664 1739 652 1712.5 Q640 1686 620 1666 Q600 1646 573 1634.5 Q546 1623 515 1623 Q484 1623 457 1634.5 Q430 1646 410 1666 Q390 1686 378.5 1712.5 Q367 1739 367 1770 Z " />
<glyph glyph-name="Imacron" unicode="&#x12a;" horiz-adv-x="582" d="M141 1483 L440 1483 L440 0 L141 0 L141 1483 Z M-16 1862 L599 1862 L599 1670 L-16 1670 L-16 1862 Z " />
<glyph glyph-name="Ibreve" unicode="&#x12c;" horiz-adv-x="582" d="M141 1483 L440 1483 L440 0 L141 0 L141 1483 Z M615 1932 Q613 1858 591 1797.5 Q569 1737 528 1693.5 Q487 1650 427.5 1626 Q368 1602 292 1602 Q215 1602 155.5 1626 Q96 1650 55 1693.5 Q14 1737 -8 1797.5 Q-30 1858 -32 1932 L130 1932 Q132 1896 142 1863.5 Q152 1831 171 1806 Q190 1781 220 1766.5 Q250 1752 292 1752 Q334 1752 363.5 1766.5 Q393 1781 412 1806 Q431 1831 441 1863.5 Q451 1896 453 1932 L615 1932 Z " />
<glyph glyph-name="Idotaccent" unicode="&#x130;" horiz-adv-x="582" d="M141 1483 L440 1483 L440 0 L141 0 L141 1483 Z M144 1800 Q144 1831 155.5 1858 Q167 1885 187 1905.5 Q207 1926 234 1938 Q261 1950 292 1950 Q323 1950 350 1938 Q377 1926 397 1905.5 Q417 1885 429 1858 Q441 1831 441 1800 Q441 1769 429 1742.5 Q417 1716 397 1696 Q377 1676 350 1664.5 Q323 1653 292 1653 Q261 1653 234 1664.5 Q207 1676 187 1696 Q167 1716 155.5 1742.5 Q144 1769 144 1800 Z " />
<glyph glyph-name="Iogonek" unicode="&#x12e;" horiz-adv-x="582" d="M459 -453 Q431 -461 392 -467 Q353 -473 311 -473 Q249 -473 199 -456 Q149 -439 114 -408.5 Q79 -378 60 -335.5 Q41 -293 41 -242 Q41 -179 68 -116 Q95 -53 141 0 L141 1483 L440 1483 L440 0 Q396 -23 364 -50.5 Q332 -78 311.5 -106.5 Q291 -135 281.5 -162 Q272 -189 272 -211 Q272 -249 296 -273 Q320 -297 367 -297 Q384 -297 409 -294 Q434 -291 459 -283 L459 -453 Z " />
<glyph glyph-name="IJ" unicode="&#x132;" horiz-adv-x="1407" d="M141 1483 L440 1483 L440 0 L141 0 L141 1483 Z M615 289 Q664 269 716.5 258.5 Q769 248 807 248 Q856 248 887 260.5 Q918 273 936 300 Q954 327 960.5 368.5 Q967 410 967 469 L967 1483 L1266 1483 L1266 475 Q1266 351 1244.5 262.5 Q1223 174 1172 111 Q1142 74 1103.5 48.5 Q1065 23 1021.5 7 Q978 -9 930 -16 Q882 -23 834 -23 Q766 -23 710.5 -11 Q655 1 615 16 L615 289 Z " />
<glyph glyph-name="Jcircumflex" unicode="&#x134;" horiz-adv-x="825" d="M33 289 Q82 269 134.5 258.5 Q187 248 225 248 Q274 248 305 260.5 Q336 273 354 300 Q372 327 378.5 368.5 Q385 410 385 469 L385 1483 L684 1483 L684 475 Q684 351 662.5 262.5 Q641 174 590 111 Q560 74 521.5 48.5 Q483 23 439.5 7 Q396 -9 348 -16 Q300 -23 252 -23 Q184 -23 128.5 -11 Q73 1 33 16 L33 289 Z M167 1600 L532 1971 L536 1971 L900 1600 L673 1600 L534 1727 L394 1600 L167 1600 Z " />
<glyph glyph-name="Kcommaaccent" unicode="&#x136;" horiz-adv-x="1362" d="M141 1483 L440 1483 L440 803 L444 801 L989 1483 L1348 1483 L764 774 L1397 0 L1024 0 L444 725 L440 723 L440 0 L141 0 L141 1483 Z M856 -111 L694 -557 L499 -557 L604 -111 L856 -111 Z " />
<glyph glyph-name="Lacute" unicode="&#x139;" horiz-adv-x="1139" d="M141 1483 L440 1483 L440 262 L1100 262 L1100 0 L141 0 L141 1483 Z M378 1598 L179 1598 L347 1934 L611 1934 L378 1598 Z " />
<glyph glyph-name="Lcaron" unicode="&#x13d;" horiz-adv-x="1139" d="M141 1483 L440 1483 L440 262 L1100 262 L1100 0 L141 0 L141 1483 Z M795 1026 L612 1026 L731 1598 L979 1598 L795 1026 Z " />
<glyph glyph-name="Lcommaaccent" unicode="&#x13b;" horiz-adv-x="1139" d="M141 1483 L440 1483 L440 262 L1100 262 L1100 0 L141 0 L141 1483 Z M787 -111 L625 -557 L430 -557 L535 -111 L787 -111 Z " />
<glyph glyph-name="Lslash" unicode="&#x141;" horiz-adv-x="1153" d="M156 504 L-23 383 L-23 643 L156 764 L156 1483 L455 1483 L455 965 L707 1135 L707 874 L455 705 L455 262 L1114 262 L1114 0 L156 0 L156 504 Z " />
<glyph glyph-name="Ldot" unicode="&#x13f;" horiz-adv-x="1139" d="M141 1483 L440 1483 L440 262 L1100 262 L1100 0 L141 0 L141 1483 Z M690 824 Q690 859 703.5 890.5 Q717 922 740.5 945.5 Q764 969 795.5 982.5 Q827 996 862 996 Q898 996 929 982.5 Q960 969 983.5 945.5 Q1007 922 1020.5 890.5 Q1034 859 1034 824 Q1034 788 1020.5 756.5 Q1007 725 983.5 701.5 Q960 678 929 664.5 Q898 651 862 651 Q827 651 795.5 664.5 Q764 678 740.5 701.5 Q717 725 703.5 756.5 Q690 788 690 824 Z " />
<glyph glyph-name="Nacute" unicode="&#x143;" horiz-adv-x="1608" d="M145 1534 L918 831 Q999 757 1063.5 698 Q1128 639 1176 594 L1180 596 Q1178 676 1178 760.5 Q1178 845 1178 936 L1178 1483 L1466 1483 L1466 -49 L1462 -51 L690 651 Q609 726 544.5 785 Q480 844 432 889 L428 887 Q430 806 430 722 Q430 638 430 547 L430 0 L141 0 L141 1532 L145 1534 Z M844 1598 L645 1598 L813 1934 L1077 1934 L844 1598 Z " />
<glyph glyph-name="Ncaron" unicode="&#x147;" horiz-adv-x="1608" d="M145 1534 L918 831 Q999 757 1063.5 698 Q1128 639 1176 594 L1180 596 Q1178 676 1178 760.5 Q1178 845 1178 936 L1178 1483 L1466 1483 L1466 -49 L1462 -51 L690 651 Q609 726 544.5 785 Q480 844 432 889 L428 887 Q430 806 430 722 Q430 638 430 547 L430 0 L141 0 L141 1532 L145 1534 Z M1169 1932 L805 1561 L801 1561 L436 1932 L663 1932 L803 1805 L942 1932 L1169 1932 Z " />
<glyph glyph-name="Ntilde" unicode="&#xd1;" horiz-adv-x="1608" d="M145 1534 L918 831 Q999 757 1063.5 698 Q1128 639 1176 594 L1180 596 Q1178 676 1178 760.5 Q1178 845 1178 936 L1178 1483 L1466 1483 L1466 -49 L1462 -51 L690 651 Q609 726 544.5 785 Q480 844 432 889 L428 887 Q430 806 430 722 Q430 638 430 547 L430 0 L141 0 L141 1532 L145 1534 Z M467 1836 Q496 1868 541.5 1890.5 Q587 1913 647 1913 Q725 1913 819 1864 Q863 1841 893 1829 Q923 1817 958 1817 Q988 1817 1013 1826 Q1038 1835 1059.5 1849 Q1081 1863 1099.5 1881.5 Q1118 1900 1134 1920 L1138 1918 L1138 1700 Q1109 1668 1063.5 1645.5 Q1018 1623 958 1623 Q881 1623 786 1672 Q742 1694 712 1706.5 Q682 1719 647 1719 Q617 1719 592 1710 Q567 1701 545.5 1687 Q524 1673 505.5 1654 Q487 1635 471 1616 L467 1619 L467 1836 Z " />
<glyph glyph-name="Ncommaaccent" unicode="&#x145;" horiz-adv-x="1608" d="M145 1534 L918 831 Q999 757 1063.5 698 Q1128 639 1176 594 L1180 596 Q1178 676 1178 760.5 Q1178 845 1178 936 L1178 1483 L1466 1483 L1466 -49 L1462 -51 L690 651 Q609 726 544.5 785 Q480 844 432 889 L428 887 Q430 806 430 722 Q430 638 430 547 L430 0 L141 0 L141 1532 L145 1534 Z M979 -111 L817 -557 L622 -557 L727 -111 L979 -111 Z " />
<glyph glyph-name="Ograve" unicode="&#xd2;" horiz-adv-x="1683" d="M72 741 Q72 849 98.5 948 Q125 1047 174 1131.5 Q223 1216 292.5 1285 Q362 1354 447.5 1403 Q533 1452 632.5 1478.5 Q732 1505 842 1505 Q951 1505 1051 1478.5 Q1151 1452 1236.5 1403 Q1322 1354 1391.5 1285 Q1461 1216 1510 1131.5 Q1559 1047 1585.5 948 Q1612 849 1612 741 Q1612 633 1585.5 534.5 Q1559 436 1510 351 Q1461 266 1391.5 197 Q1322 128 1236.5 79 Q1151 30 1051 3.5 Q951 -23 842 -23 Q677 -23 536.5 35.5 Q396 94 292.5 197 Q189 300 130.5 439.5 Q72 579 72 741 Z M371 741 Q371 638 407 548.5 Q443 459 506 392.5 Q569 326 655 288 Q741 250 842 250 Q943 250 1029.5 288 Q1116 326 1179 392.5 Q1242 459 1277.5 548.5 Q1313 638 1313 741 Q1313 844 1277.5 934 Q1242 1024 1179 1090.5 Q1116 1157 1029.5 1195 Q943 1233 842 1233 Q741 1233 655 1195 Q569 1157 506 1090.5 Q443 1024 407 934 Q371 844 371 741 Z M567 1934 L831 1934 L999 1598 L801 1598 L567 1934 Z " />
<glyph glyph-name="Oacute" unicode="&#xd3;" horiz-adv-x="1683" d="M72 741 Q72 849 98.5 948 Q125 1047 174 1131.5 Q223 1216 292.5 1285 Q362 1354 447.5 1403 Q533 1452 632.5 1478.5 Q732 1505 842 1505 Q951 1505 1051 1478.5 Q1151 1452 1236.5 1403 Q1322 1354 1391.5 1285 Q1461 1216 1510 1131.5 Q1559 1047 1585.5 948 Q1612 849 1612 741 Q1612 633 1585.5 534.5 Q1559 436 1510 351 Q1461 266 1391.5 197 Q1322 128 1236.5 79 Q1151 30 1051 3.5 Q951 -23 842 -23 Q677 -23 536.5 35.5 Q396 94 292.5 197 Q189 300 130.5 439.5 Q72 579 72 741 Z M371 741 Q371 638 407 548.5 Q443 459 506 392.5 Q569 326 655 288 Q741 250 842 250 Q943 250 1029.5 288 Q1116 326 1179 392.5 Q1242 459 1277.5 548.5 Q1313 638 1313 741 Q1313 844 1277.5 934 Q1242 1024 1179 1090.5 Q1116 1157 1029.5 1195 Q943 1233 842 1233 Q741 1233 655 1195 Q569 1157 506 1090.5 Q443 1024 407 934 Q371 844 371 741 Z M883 1598 L684 1598 L852 1934 L1116 1934 L883 1598 Z " />
<glyph glyph-name="Ocircumflex" unicode="&#xd4;" horiz-adv-x="1683" d="M72 741 Q72 849 98.5 948 Q125 1047 174 1131.5 Q223 1216 292.5 1285 Q362 1354 447.5 1403 Q533 1452 632.5 1478.5 Q732 1505 842 1505 Q951 1505 1051 1478.5 Q1151 1452 1236.5 1403 Q1322 1354 1391.5 1285 Q1461 1216 1510 1131.5 Q1559 1047 1585.5 948 Q1612 849 1612 741 Q1612 633 1585.5 534.5 Q1559 436 1510 351 Q1461 266 1391.5 197 Q1322 128 1236.5 79 Q1151 30 1051 3.5 Q951 -23 842 -23 Q677 -23 536.5 35.5 Q396 94 292.5 197 Q189 300 130.5 439.5 Q72 579 72 741 Z M371 741 Q371 638 407 548.5 Q443 459 506 392.5 Q569 326 655 288 Q741 250 842 250 Q943 250 1029.5 288 Q1116 326 1179 392.5 Q1242 459 1277.5 548.5 Q1313 638 1313 741 Q1313 844 1277.5 934 Q1242 1024 1179 1090.5 Q1116 1157 1029.5 1195 Q943 1233 842 1233 Q741 1233 655 1195 Q569 1157 506 1090.5 Q443 1024 407 934 Q371 844 371 741 Z M475 1600 L840 1971 L844 1971 L1208 1600 L981 1600 L842 1727 L702 1600 L475 1600 Z " />
<glyph glyph-name="Otilde" unicode="&#xd5;" horiz-adv-x="1683" d="M72 741 Q72 849 98.5 948 Q125 1047 174 1131.5 Q223 1216 292.5 1285 Q362 1354 447.5 1403 Q533 1452 632.5 1478.5 Q732 1505 842 1505 Q951 1505 1051 1478.5 Q1151 1452 1236.5 1403 Q1322 1354 1391.5 1285 Q1461 1216 1510 1131.5 Q1559 1047 1585.5 948 Q1612 849 1612 741 Q1612 633 1585.5 534.5 Q1559 436 1510 351 Q1461 266 1391.5 197 Q1322 128 1236.5 79 Q1151 30 1051 3.5 Q951 -23 842 -23 Q677 -23 536.5 35.5 Q396 94 292.5 197 Q189 300 130.5 439.5 Q72 579 72 741 Z M371 741 Q371 638 407 548.5 Q443 459 506 392.5 Q569 326 655 288 Q741 250 842 250 Q943 250 1029.5 288 Q1116 326 1179 392.5 Q1242 459 1277.5 548.5 Q1313 638 1313 741 Q1313 844 1277.5 934 Q1242 1024 1179 1090.5 Q1116 1157 1029.5 1195 Q943 1233 842 1233 Q741 1233 655 1195 Q569 1157 506 1090.5 Q443 1024 407 934 Q371 844 371 741 Z M506 1836 Q535 1868 580.5 1890.5 Q626 1913 686 1913 Q764 1913 858 1864 Q902 1841 932 1829 Q962 1817 997 1817 Q1027 1817 1052 1826 Q1077 1835 1098.5 1849 Q1120 1863 1138.5 1881.5 Q1157 1900 1173 1920 L1177 1918 L1177 1700 Q1148 1668 1102.5 1645.5 Q1057 1623 997 1623 Q920 1623 825 1672 Q781 1694 751 1706.5 Q721 1719 686 1719 Q656 1719 631 1710 Q606 1701 584.5 1687 Q563 1673 544.5 1654 Q526 1635 510 1616 L506 1619 L506 1836 Z " />
<glyph glyph-name="Odieresis" unicode="&#xd6;" horiz-adv-x="1683" d="M72 741 Q72 849 98.5 948 Q125 1047 174 1131.5 Q223 1216 292.5 1285 Q362 1354 447.5 1403 Q533 1452 632.5 1478.5 Q732 1505 842 1505 Q951 1505 1051 1478.5 Q1151 1452 1236.5 1403 Q1322 1354 1391.5 1285 Q1461 1216 1510 1131.5 Q1559 1047 1585.5 948 Q1612 849 1612 741 Q1612 633 1585.5 534.5 Q1559 436 1510 351 Q1461 266 1391.5 197 Q1322 128 1236.5 79 Q1151 30 1051 3.5 Q951 -23 842 -23 Q677 -23 536.5 35.5 Q396 94 292.5 197 Q189 300 130.5 439.5 Q72 579 72 741 Z M371 741 Q371 638 407 548.5 Q443 459 506 392.5 Q569 326 655 288 Q741 250 842 250 Q943 250 1029.5 288 Q1116 326 1179 392.5 Q1242 459 1277.5 548.5 Q1313 638 1313 741 Q1313 844 1277.5 934 Q1242 1024 1179 1090.5 Q1116 1157 1029.5 1195 Q943 1233 842 1233 Q741 1233 655 1195 Q569 1157 506 1090.5 Q443 1024 407 934 Q371 844 371 741 Z M469 1770 Q469 1801 480.5 1828 Q492 1855 512 1875.5 Q532 1896 558.5 1908 Q585 1920 616 1920 Q647 1920 674 1908 Q701 1896 721.5 1875.5 Q742 1855 754 1828 Q766 1801 766 1770 Q766 1739 754 1712.5 Q742 1686 721.5 1666 Q701 1646 674 1634.5 Q647 1623 616 1623 Q585 1623 558.5 1634.5 Q532 1646 512 1666 Q492 1686 480.5 1712.5 Q469 1739 469 1770 Z M917 1770 Q917 1801 928.5 1828 Q940 1855 960 1875.5 Q980 1896 1007 1908 Q1034 1920 1065 1920 Q1096 1920 1123 1908 Q1150 1896 1170 1875.5 Q1190 1855 1202 1828 Q1214 1801 1214 1770 Q1214 1739 1202 1712.5 Q1190 1686 1170 1666 Q1150 1646 1123 1634.5 Q1096 1623 1065 1623 Q1034 1623 1007 1634.5 Q980 1646 960 1666 Q940 1686 928.5 1712.5 Q917 1739 917 1770 Z " />
<glyph glyph-name="Omacron" unicode="&#x14c;" horiz-adv-x="1683" d="M72 741 Q72 849 98.5 948 Q125 1047 174 1131.5 Q223 1216 292.5 1285 Q362 1354 447.5 1403 Q533 1452 632.5 1478.5 Q732 1505 842 1505 Q951 1505 1051 1478.5 Q1151 1452 1236.5 1403 Q1322 1354 1391.5 1285 Q1461 1216 1510 1131.5 Q1559 1047 1585.5 948 Q1612 849 1612 741 Q1612 633 1585.5 534.5 Q1559 436 1510 351 Q1461 266 1391.5 197 Q1322 128 1236.5 79 Q1151 30 1051 3.5 Q951 -23 842 -23 Q677 -23 536.5 35.5 Q396 94 292.5 197 Q189 300 130.5 439.5 Q72 579 72 741 Z M371 741 Q371 638 407 548.5 Q443 459 506 392.5 Q569 326 655 288 Q741 250 842 250 Q943 250 1029.5 288 Q1116 326 1179 392.5 Q1242 459 1277.5 548.5 Q1313 638 1313 741 Q1313 844 1277.5 934 Q1242 1024 1179 1090.5 Q1116 1157 1029.5 1195 Q943 1233 842 1233 Q741 1233 655 1195 Q569 1157 506 1090.5 Q443 1024 407 934 Q371 844 371 741 Z M534 1862 L1149 1862 L1149 1670 L534 1670 L534 1862 Z " />
<glyph glyph-name="Obreve" unicode="&#x14e;" horiz-adv-x="1683" d="M72 741 Q72 849 98.5 948 Q125 1047 174 1131.5 Q223 1216 292.5 1285 Q362 1354 447.5 1403 Q533 1452 632.5 1478.5 Q732 1505 842 1505 Q951 1505 1051 1478.5 Q1151 1452 1236.5 1403 Q1322 1354 1391.5 1285 Q1461 1216 1510 1131.5 Q1559 1047 1585.5 948 Q1612 849 1612 741 Q1612 633 1585.5 534.5 Q1559 436 1510 351 Q1461 266 1391.5 197 Q1322 128 1236.5 79 Q1151 30 1051 3.5 Q951 -23 842 -23 Q677 -23 536.5 35.5 Q396 94 292.5 197 Q189 300 130.5 439.5 Q72 579 72 741 Z M371 741 Q371 638 407 548.5 Q443 459 506 392.5 Q569 326 655 288 Q741 250 842 250 Q943 250 1029.5 288 Q1116 326 1179 392.5 Q1242 459 1277.5 548.5 Q1313 638 1313 741 Q1313 844 1277.5 934 Q1242 1024 1179 1090.5 Q1116 1157 1029.5 1195 Q943 1233 842 1233 Q741 1233 655 1195 Q569 1157 506 1090.5 Q443 1024 407 934 Q371 844 371 741 Z M1165 1932 Q1163 1858 1141 1797.5 Q1119 1737 1078 1693.5 Q1037 1650 977.5 1626 Q918 1602 842 1602 Q765 1602 705.5 1626 Q646 1650 605 1693.5 Q564 1737 542 1797.5 Q520 1858 518 1932 L680 1932 Q682 1896 692 1863.5 Q702 1831 721 1806 Q740 1781 770 1766.5 Q800 1752 842 1752 Q884 1752 913.5 1766.5 Q943 1781 962 1806 Q981 1831 991 1863.5 Q1001 1896 1003 1932 L1165 1932 Z " />
<glyph glyph-name="Ohungarumlaut" unicode="&#x150;" horiz-adv-x="1683" d="M72 741 Q72 849 98.5 948 Q125 1047 174 1131.5 Q223 1216 292.5 1285 Q362 1354 447.5 1403 Q533 1452 632.5 1478.5 Q732 1505 842 1505 Q951 1505 1051 1478.5 Q1151 1452 1236.5 1403 Q1322 1354 1391.5 1285 Q1461 1216 1510 1131.5 Q1559 1047 1585.5 948 Q1612 849 1612 741 Q1612 633 1585.5 534.5 Q1559 436 1510 351 Q1461 266 1391.5 197 Q1322 128 1236.5 79 Q1151 30 1051 3.5 Q951 -23 842 -23 Q677 -23 536.5 35.5 Q396 94 292.5 197 Q189 300 130.5 439.5 Q72 579 72 741 Z M371 741 Q371 638 407 548.5 Q443 459 506 392.5 Q569 326 655 288 Q741 250 842 250 Q943 250 1029.5 288 Q1116 326 1179 392.5 Q1242 459 1277.5 548.5 Q1313 638 1313 741 Q1313 844 1277.5 934 Q1242 1024 1179 1090.5 Q1116 1157 1029.5 1195 Q943 1233 842 1233 Q741 1233 655 1195 Q569 1157 506 1090.5 Q443 1024 407 934 Q371 844 371 741 Z M690 1934 L903 1934 L700 1598 L534 1598 L690 1934 Z M1014 1934 L1227 1934 L1024 1598 L858 1598 L1014 1934 Z " />
<glyph glyph-name="Oslash" unicode="&#xd8;" horiz-adv-x="1683" d="M592 322 Q646 287 708.5 268.5 Q771 250 842 250 Q943 250 1029.5 288 Q1116 326 1179 392.5 Q1242 459 1277.5 548.5 Q1313 638 1313 741 Q1313 832 1285.5 912 Q1258 992 1208 1055 L592 322 Z M1092 1161 Q1038 1195 975.5 1214 Q913 1233 842 1233 Q741 1233 655 1195 Q569 1157 506 1090.5 Q443 1024 407 934 Q371 844 371 741 Q371 650 398.5 570.5 Q426 491 475 428 L1092 1161 Z M1397 1280 Q1499 1177 1555.5 1039.5 Q1612 902 1612 741 Q1612 633 1585.5 534.5 Q1559 436 1510 351 Q1461 266 1391.5 197 Q1322 128 1236.5 79 Q1151 30 1051 3.5 Q951 -23 842 -23 Q718 -23 609 10 Q500 43 408 104 L287 -41 L166 59 L287 203 Q185 306 128.5 443 Q72 580 72 741 Q72 849 98.5 948 Q125 1047 174 1131.5 Q223 1216 292.5 1285 Q362 1354 447.5 1403 Q533 1452 632.5 1478.5 Q732 1505 842 1505 Q966 1505 1074.5 1472.5 Q1183 1440 1276 1378 L1397 1524 L1518 1423 L1397 1280 Z " />
<glyph glyph-name="Oslashacute" unicode="&#x1fe;" horiz-adv-x="1683" d="M592 322 Q646 287 708.5 268.5 Q771 250 842 250 Q943 250 1029.5 288 Q1116 326 1179 392.5 Q1242 459 1277.5 548.5 Q1313 638 1313 741 Q1313 832 1285.5 912 Q1258 992 1208 1055 L592 322 Z M1092 1161 Q1038 1195 975.5 1214 Q913 1233 842 1233 Q741 1233 655 1195 Q569 1157 506 1090.5 Q443 1024 407 934 Q371 844 371 741 Q371 650 398.5 570.5 Q426 491 475 428 L1092 1161 Z M1397 1280 Q1499 1177 1555.5 1039.5 Q1612 902 1612 741 Q1612 633 1585.5 534.5 Q1559 436 1510 351 Q1461 266 1391.5 197 Q1322 128 1236.5 79 Q1151 30 1051 3.5 Q951 -23 842 -23 Q718 -23 609 10 Q500 43 408 104 L287 -41 L166 59 L287 203 Q185 306 128.5 443 Q72 580 72 741 Q72 849 98.5 948 Q125 1047 174 1131.5 Q223 1216 292.5 1285 Q362 1354 447.5 1403 Q533 1452 632.5 1478.5 Q732 1505 842 1505 Q966 1505 1074.5 1472.5 Q1183 1440 1276 1378 L1397 1524 L1518 1423 L1397 1280 Z M883 1598 L684 1598 L852 1934 L1116 1934 L883 1598 Z " />
<glyph glyph-name="OE" unicode="&#x152;" horiz-adv-x="1915" d="M932 1219 Q792 1214 697 1187.5 Q602 1161 535 1106 Q459 1046 415 953 Q371 860 371 739 Q371 614 420 515 Q469 416 557 356 Q631 304 722 284.5 Q813 265 932 262 L932 1219 Z M1837 262 L1837 0 L969 0 Q779 0 630.5 33 Q482 66 367 143 Q224 240 148 393 Q72 546 72 739 Q72 919 138 1064.5 Q204 1210 328 1307 Q443 1397 603 1440 Q763 1483 983 1483 L1815 1483 L1815 1221 L1229 1221 L1229 891 L1733 891 L1733 641 L1229 641 L1229 262 L1837 262 Z " />
<glyph glyph-name="Racute" unicode="&#x154;" horiz-adv-x="1317" d="M440 809 L604 809 Q678 809 732.5 818 Q787 827 827 852 Q871 878 891 917.5 Q911 957 911 1014 Q911 1073 889.5 1114 Q868 1155 821 1180 Q778 1203 714.5 1212 Q651 1221 561 1221 L440 1221 L440 809 Z M977 0 L602 582 L440 582 L440 0 L141 0 L141 1483 L575 1483 Q640 1483 702.5 1478.5 Q765 1474 822.5 1463.5 Q880 1453 932 1434.5 Q984 1416 1028 1389 Q1070 1363 1103.5 1328.5 Q1137 1294 1160.5 1250 Q1184 1206 1197 1152 Q1210 1098 1210 1034 Q1210 886 1133.5 777.5 Q1057 669 907 621 L1323 0 L977 0 Z M658 1598 L459 1598 L627 1934 L891 1934 L658 1598 Z " />
<glyph glyph-name="Rcaron" unicode="&#x158;" horiz-adv-x="1317" d="M440 809 L604 809 Q678 809 732.5 818 Q787 827 827 852 Q871 878 891 917.5 Q911 957 911 1014 Q911 1073 889.5 1114 Q868 1155 821 1180 Q778 1203 714.5 1212 Q651 1221 561 1221 L440 1221 L440 809 Z M977 0 L602 582 L440 582 L440 0 L141 0 L141 1483 L575 1483 Q640 1483 702.5 1478.5 Q765 1474 822.5 1463.5 Q880 1453 932 1434.5 Q984 1416 1028 1389 Q1070 1363 1103.5 1328.5 Q1137 1294 1160.5 1250 Q1184 1206 1197 1152 Q1210 1098 1210 1034 Q1210 886 1133.5 777.5 Q1057 669 907 621 L1323 0 L977 0 Z M983 1932 L619 1561 L615 1561 L250 1932 L477 1932 L617 1805 L756 1932 L983 1932 Z " />
<glyph glyph-name="Rcommaaccent" unicode="&#x156;" horiz-adv-x="1317" d="M440 809 L604 809 Q678 809 732.5 818 Q787 827 827 852 Q871 878 891 917.5 Q911 957 911 1014 Q911 1073 889.5 1114 Q868 1155 821 1180 Q778 1203 714.5 1212 Q651 1221 561 1221 L440 1221 L440 809 Z M977 0 L602 582 L440 582 L440 0 L141 0 L141 1483 L575 1483 Q640 1483 702.5 1478.5 Q765 1474 822.5 1463.5 Q880 1453 932 1434.5 Q984 1416 1028 1389 Q1070 1363 1103.5 1328.5 Q1137 1294 1160.5 1250 Q1184 1206 1197 1152 Q1210 1098 1210 1034 Q1210 886 1133.5 777.5 Q1057 669 907 621 L1323 0 L977 0 Z M793 -111 L631 -557 L436 -557 L541 -111 L793 -111 Z " />
<glyph glyph-name="Sacute" unicode="&#x15a;" horiz-adv-x="1147" d="M113 395 Q170 355 232 326 Q294 297 353.5 278.5 Q413 260 467.5 251 Q522 242 565 242 Q613 242 653 252.5 Q693 263 721.5 285 Q750 307 766 339.5 Q782 372 782 416 Q782 471 757 505 Q732 539 688.5 561.5 Q645 584 587 601.5 Q529 619 463 641 Q389 666 320 699 Q251 732 197.5 781 Q144 830 112 898.5 Q80 967 80 1063 Q80 1164 116 1246 Q152 1328 217.5 1385.5 Q283 1443 375 1474 Q467 1505 578 1505 Q632 1505 689.5 1498 Q747 1491 803.5 1477 Q860 1463 913.5 1442.5 Q967 1422 1012 1395 L1012 1096 Q955 1133 896 1160.5 Q837 1188 781 1206 Q725 1224 673.5 1232.5 Q622 1241 580 1241 Q536 1241 499.5 1231.5 Q463 1222 436.5 1202.5 Q410 1183 395.5 1153.5 Q381 1124 381 1085 Q381 1034 404.5 1003 Q428 972 469 950.5 Q510 929 565.5 912.5 Q621 896 686 874 Q767 847 839 812 Q911 777 965 726 Q1019 675 1051 604 Q1083 533 1083 434 Q1083 329 1045.5 244.5 Q1008 160 939.5 100.5 Q871 41 776 9 Q681 -23 567 -23 Q512 -23 452 -15 Q392 -7 333 7.5 Q274 22 217.5 43.5 Q161 65 113 92 L113 395 Z M613 1598 L414 1598 L582 1934 L846 1934 L613 1598 Z " />
<glyph glyph-name="Scircumflex" unicode="&#x15c;" horiz-adv-x="1147" d="M113 395 Q170 355 232 326 Q294 297 353.5 278.5 Q413 260 467.5 251 Q522 242 565 242 Q613 242 653 252.5 Q693 263 721.5 285 Q750 307 766 339.5 Q782 372 782 416 Q782 471 757 505 Q732 539 688.5 561.5 Q645 584 587 601.5 Q529 619 463 641 Q389 666 320 699 Q251 732 197.5 781 Q144 830 112 898.5 Q80 967 80 1063 Q80 1164 116 1246 Q152 1328 217.5 1385.5 Q283 1443 375 1474 Q467 1505 578 1505 Q632 1505 689.5 1498 Q747 1491 803.5 1477 Q860 1463 913.5 1442.5 Q967 1422 1012 1395 L1012 1096 Q955 1133 896 1160.5 Q837 1188 781 1206 Q725 1224 673.5 1232.5 Q622 1241 580 1241 Q536 1241 499.5 1231.5 Q463 1222 436.5 1202.5 Q410 1183 395.5 1153.5 Q381 1124 381 1085 Q381 1034 404.5 1003 Q428 972 469 950.5 Q510 929 565.5 912.5 Q621 896 686 874 Q767 847 839 812 Q911 777 965 726 Q1019 675 1051 604 Q1083 533 1083 434 Q1083 329 1045.5 244.5 Q1008 160 939.5 100.5 Q871 41 776 9 Q681 -23 567 -23 Q512 -23 452 -15 Q392 -7 333 7.5 Q274 22 217.5 43.5 Q161 65 113 92 L113 395 Z M205 1600 L570 1971 L574 1971 L938 1600 L711 1600 L572 1727 L432 1600 L205 1600 Z " />
<glyph glyph-name="Scaron" unicode="&#x160;" horiz-adv-x="1147" d="M113 395 Q170 355 232 326 Q294 297 353.5 278.5 Q413 260 467.5 251 Q522 242 565 242 Q613 242 653 252.5 Q693 263 721.5 285 Q750 307 766 339.5 Q782 372 782 416 Q782 471 757 505 Q732 539 688.5 561.5 Q645 584 587 601.5 Q529 619 463 641 Q389 666 320 699 Q251 732 197.5 781 Q144 830 112 898.5 Q80 967 80 1063 Q80 1164 116 1246 Q152 1328 217.5 1385.5 Q283 1443 375 1474 Q467 1505 578 1505 Q632 1505 689.5 1498 Q747 1491 803.5 1477 Q860 1463 913.5 1442.5 Q967 1422 1012 1395 L1012 1096 Q955 1133 896 1160.5 Q837 1188 781 1206 Q725 1224 673.5 1232.5 Q622 1241 580 1241 Q536 1241 499.5 1231.5 Q463 1222 436.5 1202.5 Q410 1183 395.5 1153.5 Q381 1124 381 1085 Q381 1034 404.5 1003 Q428 972 469 950.5 Q510 929 565.5 912.5 Q621 896 686 874 Q767 847 839 812 Q911 777 965 726 Q1019 675 1051 604 Q1083 533 1083 434 Q1083 329 1045.5 244.5 Q1008 160 939.5 100.5 Q871 41 776 9 Q681 -23 567 -23 Q512 -23 452 -15 Q392 -7 333 7.5 Q274 22 217.5 43.5 Q161 65 113 92 L113 395 Z M938 1932 L574 1561 L570 1561 L205 1932 L432 1932 L572 1805 L711 1932 L938 1932 Z " />
<glyph glyph-name="Scedilla" unicode="&#x15e;" horiz-adv-x="1147" d="M618 -78 Q703 -95 751 -142.5 Q799 -190 799 -264 Q799 -306 783 -341 Q767 -376 737 -401 Q707 -426 665 -439.5 Q623 -453 571 -453 Q519 -453 474 -441 Q429 -429 395 -414 L436 -285 Q468 -302 503 -313 Q538 -324 569 -324 Q601 -324 627 -309.5 Q653 -295 653 -266 Q653 -240 633 -223.5 Q613 -207 584.5 -197.5 Q556 -188 524.5 -184 Q493 -180 469 -178 L518 -20 Q467 -17 413.5 -8 Q360 1 307.5 15.5 Q255 30 205.5 49 Q156 68 113 92 L113 395 Q170 355 232 326 Q294 297 353.5 278.5 Q413 260 467.5 251 Q522 242 565 242 Q613 242 653 252.5 Q693 263 721.5 285 Q750 307 766 339.5 Q782 372 782 416 Q782 471 757 505 Q732 539 688.5 561.5 Q645 584 587 601.5 Q529 619 463 641 Q389 666 320 699 Q251 732 197.5 781 Q144 830 112 898.5 Q80 967 80 1063 Q80 1164 116 1246 Q152 1328 217.5 1385.5 Q283 1443 375 1474 Q467 1505 578 1505 Q632 1505 689.5 1498 Q747 1491 803.5 1477 Q860 1463 913.5 1442.5 Q967 1422 1012 1395 L1012 1096 Q955 1133 896 1160.5 Q837 1188 781 1206 Q725 1224 673.5 1232.5 Q622 1241 580 1241 Q536 1241 499.5 1231.5 Q463 1222 436.5 1202.5 Q410 1183 395.5 1153.5 Q381 1124 381 1085 Q381 1034 404.5 1003 Q428 972 469 950.5 Q510 929 565.5 912.5 Q621 896 686 874 Q767 847 839 812 Q911 777 965 726 Q1019 675 1051 604 Q1083 533 1083 434 Q1083 337 1051 258 Q1019 179 960.5 120.5 Q902 62 819.5 26.5 Q737 -9 637 -18 L618 -78 Z " />
<glyph glyph-name="Scommaaccent" unicode="&#x218;" horiz-adv-x="1147" d="M113 395 Q170 355 232 326 Q294 297 353.5 278.5 Q413 260 467.5 251 Q522 242 565 242 Q613 242 653 252.5 Q693 263 721.5 285 Q750 307 766 339.5 Q782 372 782 416 Q782 471 757 505 Q732 539 688.5 561.5 Q645 584 587 601.5 Q529 619 463 641 Q389 666 320 699 Q251 732 197.5 781 Q144 830 112 898.5 Q80 967 80 1063 Q80 1164 116 1246 Q152 1328 217.5 1385.5 Q283 1443 375 1474 Q467 1505 578 1505 Q632 1505 689.5 1498 Q747 1491 803.5 1477 Q860 1463 913.5 1442.5 Q967 1422 1012 1395 L1012 1096 Q955 1133 896 1160.5 Q837 1188 781 1206 Q725 1224 673.5 1232.5 Q622 1241 580 1241 Q536 1241 499.5 1231.5 Q463 1222 436.5 1202.5 Q410 1183 395.5 1153.5 Q381 1124 381 1085 Q381 1034 404.5 1003 Q428 972 469 950.5 Q510 929 565.5 912.5 Q621 896 686 874 Q767 847 839 812 Q911 777 965 726 Q1019 675 1051 604 Q1083 533 1083 434 Q1083 329 1045.5 244.5 Q1008 160 939.5 100.5 Q871 41 776 9 Q681 -23 567 -23 Q512 -23 452 -15 Q392 -7 333 7.5 Q274 22 217.5 43.5 Q161 65 113 92 L113 395 Z M750 -111 L588 -557 L393 -557 L498 -111 L750 -111 Z " />
<glyph glyph-name="Tcaron" unicode="&#x164;" horiz-adv-x="1331" d="M516 1221 L33 1221 L33 1483 L1298 1483 L1298 1221 L815 1221 L815 0 L516 0 L516 1221 Z M1030 1932 L666 1561 L662 1561 L297 1932 L524 1932 L664 1805 L803 1932 L1030 1932 Z " />
<glyph glyph-name="Tcommaaccent" unicode="&#x162;" horiz-adv-x="1331" d="M516 1221 L33 1221 L33 1483 L1298 1483 L1298 1221 L815 1221 L815 0 L721 0 L696 -78 Q781 -95 829 -142.5 Q877 -190 877 -264 Q877 -306 860.5 -341 Q844 -376 814 -401 Q784 -426 742 -439.5 Q700 -453 649 -453 Q597 -453 552 -441 Q507 -429 473 -414 L512 -291 Q544 -308 579 -319 Q614 -330 645 -330 Q677 -330 703 -315.5 Q729 -301 729 -272 Q729 -246 709 -229.5 Q689 -213 660.5 -203 Q632 -193 600.5 -188.5 Q569 -184 545 -182 L604 0 L516 0 L516 1221 Z " />
<glyph glyph-name="uni021A" unicode="&#x21a;" horiz-adv-x="1331" d="M516 1221 L33 1221 L33 1483 L1298 1483 L1298 1221 L815 1221 L815 0 L516 0 L516 1221 Z M840 -111 L678 -557 L483 -557 L588 -111 L840 -111 Z " />
<glyph glyph-name="Tbar" unicode="&#x166;" horiz-adv-x="1331" d="M272 817 L516 817 L516 1221 L33 1221 L33 1483 L1298 1483 L1298 1221 L815 1221 L815 817 L1059 817 L1059 604 L815 604 L815 0 L516 0 L516 604 L272 604 L272 817 Z " />
<glyph glyph-name="Ugrave" unicode="&#xd9;" horiz-adv-x="1526" d="M1399 719 Q1399 553 1375 428.5 Q1351 304 1288 213 Q1250 158 1196 114 Q1142 70 1075 39.5 Q1008 9 929 -7 Q850 -23 762 -23 Q673 -23 594 -6.5 Q515 10 448 40.5 Q381 71 327 115.5 Q273 160 236 217 Q174 310 150.5 431.5 Q127 553 127 709 L127 1483 L426 1483 L426 723 Q426 600 438.5 520.5 Q451 441 483 387 Q501 358 527 332.5 Q553 307 588 288 Q623 269 668 258.5 Q713 248 768 248 Q873 248 940.5 283.5 Q1008 319 1047 381 Q1082 438 1096 519 Q1110 600 1110 719 L1110 1483 L1399 1483 L1399 719 Z M493 1934 L757 1934 L925 1598 L727 1598 L493 1934 Z " />
<glyph glyph-name="Uacute" unicode="&#xda;" horiz-adv-x="1526" d="M1399 719 Q1399 553 1375 428.5 Q1351 304 1288 213 Q1250 158 1196 114 Q1142 70 1075 39.5 Q1008 9 929 -7 Q850 -23 762 -23 Q673 -23 594 -6.5 Q515 10 448 40.5 Q381 71 327 115.5 Q273 160 236 217 Q174 310 150.5 431.5 Q127 553 127 709 L127 1483 L426 1483 L426 723 Q426 600 438.5 520.5 Q451 441 483 387 Q501 358 527 332.5 Q553 307 588 288 Q623 269 668 258.5 Q713 248 768 248 Q873 248 940.5 283.5 Q1008 319 1047 381 Q1082 438 1096 519 Q1110 600 1110 719 L1110 1483 L1399 1483 L1399 719 Z M809 1598 L610 1598 L778 1934 L1042 1934 L809 1598 Z " />
<glyph glyph-name="Ucircumflex" unicode="&#xdb;" horiz-adv-x="1526" d="M1399 719 Q1399 553 1375 428.5 Q1351 304 1288 213 Q1250 158 1196 114 Q1142 70 1075 39.5 Q1008 9 929 -7 Q850 -23 762 -23 Q673 -23 594 -6.5 Q515 10 448 40.5 Q381 71 327 115.5 Q273 160 236 217 Q174 310 150.5 431.5 Q127 553 127 709 L127 1483 L426 1483 L426 723 Q426 600 438.5 520.5 Q451 441 483 387 Q501 358 527 332.5 Q553 307 588 288 Q623 269 668 258.5 Q713 248 768 248 Q873 248 940.5 283.5 Q1008 319 1047 381 Q1082 438 1096 519 Q1110 600 1110 719 L1110 1483 L1399 1483 L1399 719 Z M401 1600 L766 1971 L770 1971 L1134 1600 L907 1600 L768 1727 L628 1600 L401 1600 Z " />
<glyph glyph-name="Utilde" unicode="&#x168;" horiz-adv-x="1526" d="M1399 719 Q1399 553 1375 428.5 Q1351 304 1288 213 Q1250 158 1196 114 Q1142 70 1075 39.5 Q1008 9 929 -7 Q850 -23 762 -23 Q673 -23 594 -6.5 Q515 10 448 40.5 Q381 71 327 115.5 Q273 160 236 217 Q174 310 150.5 431.5 Q127 553 127 709 L127 1483 L426 1483 L426 723 Q426 600 438.5 520.5 Q451 441 483 387 Q501 358 527 332.5 Q553 307 588 288 Q623 269 668 258.5 Q713 248 768 248 Q873 248 940.5 283.5 Q1008 319 1047 381 Q1082 438 1096 519 Q1110 600 1110 719 L1110 1483 L1399 1483 L1399 719 Z M432 1836 Q461 1868 506.5 1890.5 Q552 1913 612 1913 Q690 1913 784 1864 Q828 1841 858 1829 Q888 1817 923 1817 Q953 1817 978 1826 Q1003 1835 1024.5 1849 Q1046 1863 1064.5 1881.5 Q1083 1900 1099 1920 L1103 1918 L1103 1700 Q1074 1668 1028.5 1645.5 Q983 1623 923 1623 Q846 1623 751 1672 Q707 1694 677 1706.5 Q647 1719 612 1719 Q582 1719 557 1710 Q532 1701 510.5 1687 Q489 1673 470.5 1654 Q452 1635 436 1616 L432 1619 L432 1836 Z " />
<glyph glyph-name="Udieresis" unicode="&#xdc;" horiz-adv-x="1526" d="M1399 719 Q1399 553 1375 428.5 Q1351 304 1288 213 Q1250 158 1196 114 Q1142 70 1075 39.5 Q1008 9 929 -7 Q850 -23 762 -23 Q673 -23 594 -6.5 Q515 10 448 40.5 Q381 71 327 115.5 Q273 160 236 217 Q174 310 150.5 431.5 Q127 553 127 709 L127 1483 L426 1483 L426 723 Q426 600 438.5 520.5 Q451 441 483 387 Q501 358 527 332.5 Q553 307 588 288 Q623 269 668 258.5 Q713 248 768 248 Q873 248 940.5 283.5 Q1008 319 1047 381 Q1082 438 1096 519 Q1110 600 1110 719 L1110 1483 L1399 1483 L1399 719 Z M395 1770 Q395 1801 406.5 1828 Q418 1855 438 1875.5 Q458 1896 484.5 1908 Q511 1920 542 1920 Q573 1920 600 1908 Q627 1896 647.5 1875.5 Q668 1855 680 1828 Q692 1801 692 1770 Q692 1739 680 1712.5 Q668 1686 647.5 1666 Q627 1646 600 1634.5 Q573 1623 542 1623 Q511 1623 484.5 1634.5 Q458 1646 438 1666 Q418 1686 406.5 1712.5 Q395 1739 395 1770 Z M843 1770 Q843 1801 854.5 1828 Q866 1855 886 1875.5 Q906 1896 933 1908 Q960 1920 991 1920 Q1022 1920 1049 1908 Q1076 1896 1096 1875.5 Q1116 1855 1128 1828 Q1140 1801 1140 1770 Q1140 1739 1128 1712.5 Q1116 1686 1096 1666 Q1076 1646 1049 1634.5 Q1022 1623 991 1623 Q960 1623 933 1634.5 Q906 1646 886 1666 Q866 1686 854.5 1712.5 Q843 1739 843 1770 Z " />
<glyph glyph-name="Umacron" unicode="&#x16a;" horiz-adv-x="1526" d="M1399 719 Q1399 553 1375 428.5 Q1351 304 1288 213 Q1250 158 1196 114 Q1142 70 1075 39.5 Q1008 9 929 -7 Q850 -23 762 -23 Q673 -23 594 -6.5 Q515 10 448 40.5 Q381 71 327 115.5 Q273 160 236 217 Q174 310 150.5 431.5 Q127 553 127 709 L127 1483 L426 1483 L426 723 Q426 600 438.5 520.5 Q451 441 483 387 Q501 358 527 332.5 Q553 307 588 288 Q623 269 668 258.5 Q713 248 768 248 Q873 248 940.5 283.5 Q1008 319 1047 381 Q1082 438 1096 519 Q1110 600 1110 719 L1110 1483 L1399 1483 L1399 719 Z M460 1862 L1075 1862 L1075 1670 L460 1670 L460 1862 Z " />
<glyph glyph-name="Ubreve" unicode="&#x16c;" horiz-adv-x="1526" d="M1399 719 Q1399 553 1375 428.5 Q1351 304 1288 213 Q1250 158 1196 114 Q1142 70 1075 39.5 Q1008 9 929 -7 Q850 -23 762 -23 Q673 -23 594 -6.5 Q515 10 448 40.5 Q381 71 327 115.5 Q273 160 236 217 Q174 310 150.5 431.5 Q127 553 127 709 L127 1483 L426 1483 L426 723 Q426 600 438.5 520.5 Q451 441 483 387 Q501 358 527 332.5 Q553 307 588 288 Q623 269 668 258.5 Q713 248 768 248 Q873 248 940.5 283.5 Q1008 319 1047 381 Q1082 438 1096 519 Q1110 600 1110 719 L1110 1483 L1399 1483 L1399 719 Z M1091 1932 Q1089 1858 1067 1797.5 Q1045 1737 1004 1693.5 Q963 1650 903.5 1626 Q844 1602 768 1602 Q691 1602 631.5 1626 Q572 1650 531 1693.5 Q490 1737 468 1797.5 Q446 1858 444 1932 L606 1932 Q608 1896 618 1863.5 Q628 1831 647 1806 Q666 1781 696 1766.5 Q726 1752 768 1752 Q810 1752 839.5 1766.5 Q869 1781 888 1806 Q907 1831 917 1863.5 Q927 1896 929 1932 L1091 1932 Z " />
<glyph glyph-name="Uring" unicode="&#x16e;" horiz-adv-x="1526" d="M1399 719 Q1399 553 1375 428.5 Q1351 304 1288 213 Q1250 158 1196 114 Q1142 70 1075 39.5 Q1008 9 929 -7 Q850 -23 762 -23 Q673 -23 594 -6.5 Q515 10 448 40.5 Q381 71 327 115.5 Q273 160 236 217 Q174 310 150.5 431.5 Q127 553 127 709 L127 1483 L426 1483 L426 723 Q426 600 438.5 520.5 Q451 441 483 387 Q501 358 527 332.5 Q553 307 588 288 Q623 269 668 258.5 Q713 248 768 248 Q873 248 940.5 283.5 Q1008 319 1047 381 Q1082 438 1096 519 Q1110 600 1110 719 L1110 1483 L1399 1483 L1399 719 Z M768 1557 Q712 1557 664 1576 Q616 1595 581.5 1629 Q547 1663 527.5 1708.5 Q508 1754 508 1807 Q508 1860 527.5 1905.5 Q547 1951 581.5 1985 Q616 2019 664 2038 Q712 2057 768 2057 Q824 2057 871.5 2038 Q919 2019 954 1985 Q989 1951 1008.5 1905.5 Q1028 1860 1028 1807 Q1028 1754 1008.5 1708.5 Q989 1663 954 1629 Q919 1595 871.5 1576 Q824 1557 768 1557 Z M768 1682 Q796 1682 818.5 1692 Q841 1702 856.5 1719 Q872 1736 880 1758.5 Q888 1781 888 1807 Q888 1832 880 1855 Q872 1878 856.5 1895 Q841 1912 818.5 1922 Q796 1932 768 1932 Q739 1932 717 1922 Q695 1912 679 1895 Q663 1878 655 1855 Q647 1832 647 1807 Q647 1781 655 1758.5 Q663 1736 679 1719 Q695 1702 717 1692 Q739 1682 768 1682 Z " />
<glyph glyph-name="Uhungarumlaut" unicode="&#x170;" horiz-adv-x="1526" d="M1399 719 Q1399 553 1375 428.5 Q1351 304 1288 213 Q1250 158 1196 114 Q1142 70 1075 39.5 Q1008 9 929 -7 Q850 -23 762 -23 Q673 -23 594 -6.5 Q515 10 448 40.5 Q381 71 327 115.5 Q273 160 236 217 Q174 310 150.5 431.5 Q127 553 127 709 L127 1483 L426 1483 L426 723 Q426 600 438.5 520.5 Q451 441 483 387 Q501 358 527 332.5 Q553 307 588 288 Q623 269 668 258.5 Q713 248 768 248 Q873 248 940.5 283.5 Q1008 319 1047 381 Q1082 438 1096 519 Q1110 600 1110 719 L1110 1483 L1399 1483 L1399 719 Z M616 1934 L829 1934 L626 1598 L460 1598 L616 1934 Z M940 1934 L1153 1934 L950 1598 L784 1598 L940 1934 Z " />
<glyph glyph-name="Uogonek" unicode="&#x172;" horiz-adv-x="1526" d="M426 1483 L426 723 Q426 600 438.5 520.5 Q451 441 483 387 Q501 358 527 332.5 Q553 307 588 288 Q623 269 668 258.5 Q713 248 768 248 Q873 248 940.5 283.5 Q1008 319 1047 381 Q1082 438 1096 519 Q1110 600 1110 719 L1110 1483 L1399 1483 L1399 719 Q1399 553 1375 429 Q1351 305 1288 213 Q1231 129 1140 74 Q1049 19 932 -6 Q846 -62 811 -115.5 Q776 -169 776 -213 Q776 -250 799 -273.5 Q822 -297 870 -297 Q889 -297 915.5 -293 Q942 -289 967 -281 L967 -451 Q939 -459 898.5 -466 Q858 -473 815 -473 Q753 -473 702.5 -457 Q652 -441 616.5 -412.5 Q581 -384 562 -344.5 Q543 -305 543 -258 Q543 -201 571 -138.5 Q599 -76 659 -20 L659 -16 Q517 1 409 60.5 Q301 120 236 217 Q174 310 150.5 431.5 Q127 553 127 709 L127 1483 L426 1483 Z " />
<glyph glyph-name="Wgrave" unicode="&#x1e80;" horiz-adv-x="2157" d="M557 932 Q594 845 625 769 Q656 693 684 627 L688 627 Q702 660 716 693.5 Q730 727 745 763 Q760 799 778 839.5 Q796 880 817 928 L1081 1534 L1085 1534 L1350 928 Q1390 837 1421.5 763 Q1453 689 1479 627 L1483 627 Q1497 660 1511 694 Q1525 728 1540.5 765 Q1556 802 1573.5 844 Q1591 886 1612 934 L1847 1483 L2165 1483 L1481 -51 L1477 -51 L1192 590 Q1161 659 1132.5 724 Q1104 789 1079 848 L1075 848 Q1050 789 1022 724 Q994 659 963 590 L676 -51 L672 -51 L-8 1483 L324 1483 L557 932 Z M809 1934 L1073 1934 L1241 1598 L1043 1598 L809 1934 Z " />
<glyph glyph-name="Wacute" unicode="&#x1e82;" horiz-adv-x="2157" d="M557 932 Q594 845 625 769 Q656 693 684 627 L688 627 Q702 660 716 693.5 Q730 727 745 763 Q760 799 778 839.5 Q796 880 817 928 L1081 1534 L1085 1534 L1350 928 Q1390 837 1421.5 763 Q1453 689 1479 627 L1483 627 Q1497 660 1511 694 Q1525 728 1540.5 765 Q1556 802 1573.5 844 Q1591 886 1612 934 L1847 1483 L2165 1483 L1481 -51 L1477 -51 L1192 590 Q1161 659 1132.5 724 Q1104 789 1079 848 L1075 848 Q1050 789 1022 724 Q994 659 963 590 L676 -51 L672 -51 L-8 1483 L324 1483 L557 932 Z M1125 1598 L926 1598 L1094 1934 L1358 1934 L1125 1598 Z " />
<glyph glyph-name="Wcircumflex" unicode="&#x174;" horiz-adv-x="2157" d="M557 932 Q594 845 625 769 Q656 693 684 627 L688 627 Q702 660 716 693.5 Q730 727 745 763 Q760 799 778 839.5 Q796 880 817 928 L1081 1534 L1085 1534 L1350 928 Q1390 837 1421.5 763 Q1453 689 1479 627 L1483 627 Q1497 660 1511 694 Q1525 728 1540.5 765 Q1556 802 1573.5 844 Q1591 886 1612 934 L1847 1483 L2165 1483 L1481 -51 L1477 -51 L1192 590 Q1161 659 1132.5 724 Q1104 789 1079 848 L1075 848 Q1050 789 1022 724 Q994 659 963 590 L676 -51 L672 -51 L-8 1483 L324 1483 L557 932 Z M717 1600 L1082 1971 L1086 1971 L1450 1600 L1223 1600 L1084 1727 L944 1600 L717 1600 Z " />
<glyph glyph-name="Wdieresis" unicode="&#x1e84;" horiz-adv-x="2157" d="M557 932 Q594 845 625 769 Q656 693 684 627 L688 627 Q702 660 716 693.5 Q730 727 745 763 Q760 799 778 839.5 Q796 880 817 928 L1081 1534 L1085 1534 L1350 928 Q1390 837 1421.5 763 Q1453 689 1479 627 L1483 627 Q1497 660 1511 694 Q1525 728 1540.5 765 Q1556 802 1573.5 844 Q1591 886 1612 934 L1847 1483 L2165 1483 L1481 -51 L1477 -51 L1192 590 Q1161 659 1132.5 724 Q1104 789 1079 848 L1075 848 Q1050 789 1022 724 Q994 659 963 590 L676 -51 L672 -51 L-8 1483 L324 1483 L557 932 Z M711 1770 Q711 1801 722.5 1828 Q734 1855 754 1875.5 Q774 1896 800.5 1908 Q827 1920 858 1920 Q889 1920 916 1908 Q943 1896 963.5 1875.5 Q984 1855 996 1828 Q1008 1801 1008 1770 Q1008 1739 996 1712.5 Q984 1686 963.5 1666 Q943 1646 916 1634.5 Q889 1623 858 1623 Q827 1623 800.5 1634.5 Q774 1646 754 1666 Q734 1686 722.5 1712.5 Q711 1739 711 1770 Z M1159 1770 Q1159 1801 1170.5 1828 Q1182 1855 1202 1875.5 Q1222 1896 1249 1908 Q1276 1920 1307 1920 Q1338 1920 1365 1908 Q1392 1896 1412 1875.5 Q1432 1855 1444 1828 Q1456 1801 1456 1770 Q1456 1739 1444 1712.5 Q1432 1686 1412 1666 Q1392 1646 1365 1634.5 Q1338 1623 1307 1623 Q1276 1623 1249 1634.5 Q1222 1646 1202 1666 Q1182 1686 1170.5 1712.5 Q1159 1739 1159 1770 Z " />
<glyph glyph-name="Ygrave" unicode="&#x1ef2;" horiz-adv-x="1397" d="M551 666 L-23 1483 L330 1483 L524 1196 Q571 1128 614 1063 Q657 998 702 930 L707 930 Q750 995 793.5 1060.5 Q837 1126 887 1198 L1079 1483 L1419 1483 L850 668 L850 0 L551 0 L551 666 Z M430 1934 L694 1934 L862 1598 L664 1598 L430 1934 Z " />
<glyph glyph-name="Yacute" unicode="&#xdd;" horiz-adv-x="1397" d="M551 666 L-23 1483 L330 1483 L524 1196 Q571 1128 614 1063 Q657 998 702 930 L707 930 Q750 995 793.5 1060.5 Q837 1126 887 1198 L1079 1483 L1419 1483 L850 668 L850 0 L551 0 L551 666 Z M746 1598 L547 1598 L715 1934 L979 1934 L746 1598 Z " />
<glyph glyph-name="Ycircumflex" unicode="&#x176;" horiz-adv-x="1397" d="M551 666 L-23 1483 L330 1483 L524 1196 Q571 1128 614 1063 Q657 998 702 930 L707 930 Q750 995 793.5 1060.5 Q837 1126 887 1198 L1079 1483 L1419 1483 L850 668 L850 0 L551 0 L551 666 Z M338 1600 L703 1971 L707 1971 L1071 1600 L844 1600 L705 1727 L565 1600 L338 1600 Z " />
<glyph glyph-name="Ydieresis" unicode="&#x178;" horiz-adv-x="1397" d="M551 666 L-23 1483 L330 1483 L524 1196 Q571 1128 614 1063 Q657 998 702 930 L707 930 Q750 995 793.5 1060.5 Q837 1126 887 1198 L1079 1483 L1419 1483 L850 668 L850 0 L551 0 L551 666 Z M332 1770 Q332 1801 343.5 1828 Q355 1855 375 1875.5 Q395 1896 421.5 1908 Q448 1920 479 1920 Q510 1920 537 1908 Q564 1896 584.5 1875.5 Q605 1855 617 1828 Q629 1801 629 1770 Q629 1739 617 1712.5 Q605 1686 584.5 1666 Q564 1646 537 1634.5 Q510 1623 479 1623 Q448 1623 421.5 1634.5 Q395 1646 375 1666 Q355 1686 343.5 1712.5 Q332 1739 332 1770 Z M780 1770 Q780 1801 791.5 1828 Q803 1855 823 1875.5 Q843 1896 870 1908 Q897 1920 928 1920 Q959 1920 986 1908 Q1013 1896 1033 1875.5 Q1053 1855 1065 1828 Q1077 1801 1077 1770 Q1077 1739 1065 1712.5 Q1053 1686 1033 1666 Q1013 1646 986 1634.5 Q959 1623 928 1623 Q897 1623 870 1634.5 Q843 1646 823 1666 Q803 1686 791.5 1712.5 Q780 1739 780 1770 Z " />
<glyph glyph-name="Zacute" unicode="&#x179;" horiz-adv-x="1327" d="M27 0 L25 4 L756 1217 L754 1221 L88 1221 L88 1483 L1251 1483 L1253 1479 L522 266 L524 262 L1235 262 L1235 0 L27 0 Z M713 1598 L514 1598 L682 1934 L946 1934 L713 1598 Z " />
<glyph glyph-name="Zcaron" unicode="&#x17d;" horiz-adv-x="1327" d="M27 0 L25 4 L756 1217 L754 1221 L88 1221 L88 1483 L1251 1483 L1253 1479 L522 266 L524 262 L1235 262 L1235 0 L27 0 Z M1038 1932 L674 1561 L670 1561 L305 1932 L532 1932 L672 1805 L811 1932 L1038 1932 Z " />
<glyph glyph-name="Zdotaccent" unicode="&#x17b;" horiz-adv-x="1327" d="M27 0 L25 4 L756 1217 L754 1221 L88 1221 L88 1483 L1251 1483 L1253 1479 L522 266 L524 262 L1235 262 L1235 0 L27 0 Z M524 1770 Q524 1801 535.5 1828 Q547 1855 567 1875.5 Q587 1896 614 1908 Q641 1920 672 1920 Q703 1920 730 1908 Q757 1896 777 1875.5 Q797 1855 809 1828 Q821 1801 821 1770 Q821 1739 809 1712.5 Q797 1686 777 1666 Q757 1646 730 1634.5 Q703 1623 672 1623 Q641 1623 614 1634.5 Q587 1646 567 1666 Q547 1686 535.5 1712.5 Q524 1739 524 1770 Z " />
<glyph glyph-name="Eng" unicode="&#x14a;" horiz-adv-x="1608" d="M141 0 L141 1532 L145 1534 L918 819 Q958 782 991.5 750.5 Q1025 719 1056 690.5 Q1087 662 1116 634.5 Q1145 607 1176 578 L1180 580 Q1178 660 1178 744.5 Q1178 829 1178 920 L1178 1483 L1466 1483 L1466 25 Q1466 -45 1459.5 -100.5 Q1453 -156 1441 -200 Q1429 -244 1411.5 -278 Q1394 -312 1372 -340 Q1342 -377 1303.5 -402.5 Q1265 -428 1221.5 -443.5 Q1178 -459 1130 -466 Q1082 -473 1034 -473 Q966 -473 910.5 -461.5 Q855 -450 815 -434 L815 -162 Q865 -182 917 -192.5 Q969 -203 1008 -203 Q1056 -203 1086.5 -190.5 Q1117 -178 1135 -152.5 Q1153 -127 1160 -87.5 Q1167 -48 1167 6 L1167 193 L690 641 Q618 709 554.5 769.5 Q491 830 432 887 L428 885 Q430 804 430 717 Q430 630 430 539 L430 0 L141 0 Z " />
<glyph glyph-name="Eth" unicode="&#xd0;" horiz-adv-x="1546" d="M4 862 L170 862 L170 1483 L584 1483 Q774 1483 923.5 1450 Q1073 1417 1188 1339 Q1330 1243 1405.5 1089.5 Q1481 936 1481 743 Q1481 566 1415 419.5 Q1349 273 1225 176 Q1111 85 949 42.5 Q787 0 563 0 L170 0 L170 647 L4 647 L4 862 Z M580 262 Q733 262 839.5 289.5 Q946 317 1020 377 Q1094 437 1138 530 Q1182 623 1182 743 Q1182 870 1132 968 Q1082 1066 997 1126 Q956 1155 908.5 1173.5 Q861 1192 808 1202.5 Q755 1213 697.5 1217 Q640 1221 578 1221 L469 1221 L469 862 L748 862 L748 647 L469 647 L469 262 L580 262 Z " />
<glyph glyph-name="Thorn" unicode="&#xde;" horiz-adv-x="1288" d="M141 1483 L440 1483 L440 1223 L557 1223 Q622 1223 682 1220 Q742 1217 797 1208.5 Q852 1200 902 1184.5 Q952 1169 997 1145 Q1045 1119 1088 1081.5 Q1131 1044 1163.5 995.5 Q1196 947 1214.5 886 Q1233 825 1233 752 Q1233 683 1217.5 624 Q1202 565 1174.5 516 Q1147 467 1108 427.5 Q1069 388 1022 360 Q935 308 817.5 289 Q700 270 541 270 L440 270 L440 0 L141 0 L141 1483 Z M559 516 Q610 516 651 517 Q692 518 725.5 522.5 Q759 527 786 535 Q813 543 836 557 Q882 585 908 629 Q934 673 934 735 Q934 804 904.5 852.5 Q875 901 821 926 Q772 949 707 955 Q642 961 551 961 L440 961 L440 516 L559 516 Z " />
<glyph glyph-name="a" unicode="a" horiz-adv-x="1239" d="M819 59 Q770 21 703.5 -1 Q637 -23 559 -23 Q461 -23 374 13 Q287 49 221 115 Q155 181 116.5 275 Q78 369 78 485 Q78 604 119 704 Q160 804 232 876.5 Q304 949 402.5 989.5 Q501 1030 616 1030 Q686 1030 752.5 1014 Q819 998 879 969 L1104 1008 L1104 0 L823 0 L823 57 L819 59 Z M817 745 Q780 764 734 777.5 Q688 791 637 791 Q572 791 521 768.5 Q470 746 435.5 707 Q401 668 383 614.5 Q365 561 365 500 Q365 440 383 387.5 Q401 335 435 296.5 Q469 258 518 235.5 Q567 213 629 213 Q680 213 728.5 229 Q777 245 817 272 L817 745 Z " />
<glyph glyph-name="b" unicode="b" horiz-adv-x="1235" d="M135 1565 L422 1565 L422 961 L426 958 Q472 989 538.5 1009.5 Q605 1030 680 1030 Q776 1030 862.5 994.5 Q949 959 1014.5 893 Q1080 827 1118.5 733 Q1157 639 1157 522 Q1157 402 1116.5 302 Q1076 202 1004 130 Q932 58 833 17.5 Q734 -23 616 -23 Q542 -23 480.5 -8 Q419 7 367 29 L135 -10 L135 1565 Z M422 256 Q456 236 504 223.5 Q552 211 600 211 Q665 211 715.5 235 Q766 259 800.5 299.5 Q835 340 852.5 394 Q870 448 870 508 Q870 567 852.5 618.5 Q835 670 802 707.5 Q769 745 721 766.5 Q673 788 612 788 Q555 788 507 772 Q459 756 422 731 L422 256 Z " />
<glyph glyph-name="c" unicode="c" horiz-adv-x="1034" d="M942 49 Q874 12 793 -5.5 Q712 -23 631 -23 Q509 -23 406.5 16.5 Q304 56 230 126 Q156 196 114 292 Q72 388 72 502 Q72 619 117 716.5 Q162 814 240 883.5 Q318 953 422 991.5 Q526 1030 643 1030 Q725 1030 798 1013 Q871 996 928 965 L928 694 Q865 738 795.5 762 Q726 786 653 786 Q588 786 533.5 764.5 Q479 743 440 705 Q401 667 379.5 615 Q358 563 358 502 Q358 440 380 389 Q402 338 442 301 Q482 264 537 243.5 Q592 223 657 223 Q733 223 808 248.5 Q883 274 942 319 L942 49 Z " />
<glyph glyph-name="d" unicode="d" horiz-adv-x="1237" d="M817 57 Q766 22 699 -0.5 Q632 -23 555 -23 Q458 -23 371.5 12.5 Q285 48 219.5 114 Q154 180 116 273.5 Q78 367 78 483 Q78 602 118.5 702.5 Q159 803 230.5 875.5 Q302 948 399 989 Q496 1030 610 1030 Q672 1030 720.5 1019 Q769 1008 811 989 L815 991 L815 1565 L1102 1565 L1102 0 L821 0 L821 55 L817 57 Z M815 748 Q778 766 733 778.5 Q688 791 637 791 Q572 791 521 768 Q470 745 435.5 705 Q401 665 383 611.5 Q365 558 365 498 Q365 438 382.5 386 Q400 334 433.5 295.5 Q467 257 515 235 Q563 213 625 213 Q680 213 729 230.5 Q778 248 815 272 L815 748 Z " />
<glyph glyph-name="e" unicode="e" horiz-adv-x="1149" d="M805 614 Q797 666 775.5 702.5 Q754 739 724 762 Q694 785 659 796 Q624 807 590 807 Q552 807 516 795.5 Q480 784 449.5 760.5 Q419 737 396.5 700.5 Q374 664 362 614 L805 614 Z M1016 70 Q980 47 935 30 Q890 13 840.5 1 Q791 -11 739 -17 Q687 -23 637 -23 Q514 -23 410.5 14.5 Q307 52 231.5 120 Q156 188 114 284.5 Q72 381 72 500 Q72 620 114.5 718 Q157 816 229 885.5 Q301 955 395.5 992.5 Q490 1030 594 1030 Q687 1030 773 999 Q859 968 925.5 905.5 Q992 843 1031.5 749 Q1071 655 1071 530 Q1071 506 1069.5 476.5 Q1068 447 1065 428 L362 428 Q374 372 402 330 Q430 288 470.5 260.5 Q511 233 562 219 Q613 205 672 205 Q762 205 849.5 234 Q937 263 1016 317 L1016 70 Z " />
<glyph glyph-name="f" unicode="f" horiz-adv-x="815" d="M803 1323 Q785 1327 764.5 1330 Q744 1333 723 1335.5 Q702 1338 683 1339.5 Q664 1341 649 1341 Q605 1341 577.5 1329.5 Q550 1318 534.5 1297.5 Q519 1277 513.5 1248.5 Q508 1220 508 1186 L508 1008 L778 1008 L778 768 L508 768 L508 0 L223 0 L223 768 L-20 768 L-23 772 L223 1034 L223 1165 Q223 1278 248 1359.5 Q273 1441 332 1495 Q360 1521 394 1539 Q428 1557 464 1567.5 Q500 1578 538 1582.5 Q576 1587 614 1587 Q667 1587 714 1578.5 Q761 1570 803 1556 L803 1323 Z " />
<glyph glyph-name="g" unicode="g" horiz-adv-x="1223" d="M215 -123 Q290 -171 374 -199 Q458 -227 539 -227 Q599 -227 647 -211 Q695 -195 729.5 -164.5 Q764 -134 782.5 -88.5 Q801 -43 801 16 L801 76 L797 78 Q750 44 684.5 26 Q619 8 553 8 Q459 8 373 43 Q287 78 221.5 142.5 Q156 207 117 298.5 Q78 390 78 504 Q78 614 115.5 710 Q153 806 222 877 Q291 948 387.5 989 Q484 1030 602 1030 Q676 1030 739 1014.5 Q802 999 856 973 L1087 1014 L1087 16 Q1087 -101 1048.5 -192 Q1010 -283 939.5 -345.5 Q869 -408 771 -440.5 Q673 -473 553 -473 Q457 -473 368.5 -452 Q280 -431 215 -399 L215 -123 Z M801 743 Q767 760 720 773 Q673 786 627 786 Q563 786 515 764 Q467 742 434.5 704.5 Q402 667 385.5 618.5 Q369 570 369 516 Q369 456 386.5 406 Q404 356 437 320 Q470 284 517 264 Q564 244 623 244 Q671 244 718.5 257 Q766 270 801 295 L801 743 Z " />
<glyph glyph-name="h" unicode="h" horiz-adv-x="1227" d="M135 1565 L422 1565 L422 909 L426 907 Q486 960 565 995 Q644 1030 741 1030 Q825 1030 893.5 1003.5 Q962 977 1010 926 Q1054 878 1075 807.5 Q1096 737 1096 627 L1096 0 L809 0 L809 580 Q809 641 799.5 675.5 Q790 710 770 733 Q748 758 717.5 769 Q687 780 653 780 Q621 780 589 772 Q557 764 527 750 Q497 736 470 718 Q443 700 422 680 L422 0 L135 0 L135 1565 Z " />
<glyph glyph-name="i" unicode="i" horiz-adv-x="557" d="M135 1008 L422 1008 L422 0 L135 0 L135 1008 Z M115 1335 Q115 1369 128 1398.5 Q141 1428 163 1450.5 Q185 1473 215 1486 Q245 1499 279 1499 Q313 1499 342.5 1486 Q372 1473 394 1450.5 Q416 1428 429 1398.5 Q442 1369 442 1335 Q442 1301 429 1271.5 Q416 1242 394 1219.5 Q372 1197 342.5 1184 Q313 1171 279 1171 Q245 1171 215 1184 Q185 1197 163 1219.5 Q141 1242 128 1271.5 Q115 1301 115 1335 Z " />
<glyph glyph-name="j" unicode="j" horiz-adv-x="563" d="M141 1008 L428 1008 L428 -43 Q428 -111 422.5 -161.5 Q417 -212 406 -250.5 Q395 -289 379 -317 Q363 -345 342 -367 Q314 -396 279 -416 Q244 -436 205 -449 Q166 -462 125 -467.5 Q84 -473 45 -473 Q3 -473 -32 -468 Q-67 -463 -92 -457 L-92 -219 Q-66 -224 -37.5 -226.5 Q-9 -229 12 -229 Q54 -229 79 -217.5 Q104 -206 118 -184.5 Q132 -163 136.5 -131.5 Q141 -100 141 -61 L141 1008 Z M121 1335 Q121 1369 134 1398.5 Q147 1428 169.5 1450.5 Q192 1473 221.5 1486 Q251 1499 285 1499 Q319 1499 348.5 1486 Q378 1473 400.5 1450.5 Q423 1428 436 1398.5 Q449 1369 449 1335 Q449 1301 436 1271.5 Q423 1242 400.5 1219.5 Q378 1197 348.5 1184 Q319 1171 285 1171 Q251 1171 221.5 1184 Q192 1197 169.5 1219.5 Q147 1242 134 1271.5 Q121 1301 121 1335 Z " />
<glyph glyph-name="k" unicode="k" horiz-adv-x="1167" d="M135 1565 L422 1565 L422 578 L426 575 L797 1008 L1128 1008 L727 557 L1161 0 L817 0 L426 520 L422 518 L422 0 L135 0 L135 1565 Z " />
<glyph glyph-name="l" unicode="l" horiz-adv-x="557" d="M135 1565 L422 1565 L422 0 L135 0 L135 1565 Z " />
<glyph glyph-name="m" unicode="m" horiz-adv-x="1872" d="M135 0 L135 1008 L418 1008 L418 911 L422 909 Q482 962 559.5 996 Q637 1030 733 1030 Q775 1030 818.5 1021.5 Q862 1013 901 994.5 Q940 976 973.5 948 Q1007 920 1030 881 Q1195 1030 1389 1030 Q1474 1030 1539 1003 Q1604 976 1651 928 Q1698 878 1719.5 808.5 Q1741 739 1741 633 L1741 0 L1454 0 L1454 584 Q1454 644 1444.5 678 Q1435 712 1415 735 Q1393 760 1362.5 770 Q1332 780 1298 780 Q1238 780 1179.5 752 Q1121 724 1079 682 Q1081 670 1081 657.5 Q1081 645 1081 633 L1081 0 L795 0 L795 584 Q795 644 785.5 678 Q776 712 756 735 Q734 760 703.5 770 Q673 780 639 780 Q609 780 579 772.5 Q549 765 520.5 752 Q492 739 467 721.5 Q442 704 422 684 L422 0 L135 0 Z " />
<glyph glyph-name="n" unicode="n" horiz-adv-x="1227" d="M135 1008 L418 1008 L418 909 L422 907 Q482 958 563 994 Q644 1030 741 1030 Q825 1030 893.5 1003.5 Q962 977 1010 926 Q1054 878 1075 807.5 Q1096 737 1096 627 L1096 0 L809 0 L809 580 Q809 641 799.5 675.5 Q790 710 770 733 Q748 758 717.5 769 Q687 780 653 780 Q621 780 589 772 Q557 764 527 750 Q497 736 470 718 Q443 700 422 680 L422 0 L135 0 L135 1008 Z " />
<glyph glyph-name="o" unicode="o" horiz-adv-x="1253" d="M72 504 Q72 615 113.5 711.5 Q155 808 229.5 878.5 Q304 949 405.5 989.5 Q507 1030 627 1030 Q746 1030 847.5 989.5 Q949 949 1023.5 878.5 Q1098 808 1140 711.5 Q1182 615 1182 504 Q1182 393 1140 296.5 Q1098 200 1023.5 129 Q949 58 847.5 17.5 Q746 -23 627 -23 Q507 -23 405.5 17.5 Q304 58 229.5 129 Q155 200 113.5 296.5 Q72 393 72 504 Z M358 504 Q358 445 378.5 394.5 Q399 344 435 306 Q471 268 520 246.5 Q569 225 627 225 Q684 225 733 246.5 Q782 268 818 306 Q854 344 874.5 394.5 Q895 445 895 504 Q895 562 874.5 613 Q854 664 818 701.5 Q782 739 733 760.5 Q684 782 627 782 Q569 782 520 760.5 Q471 739 435 701.5 Q399 664 378.5 613 Q358 562 358 504 Z " />
<glyph glyph-name="p" unicode="p" horiz-adv-x="1233" d="M422 -451 L135 -451 L135 1008 L416 1008 L416 954 L420 952 Q471 986 535 1008 Q599 1030 678 1030 Q775 1030 862 993 Q949 956 1014 888 Q1079 820 1117 724.5 Q1155 629 1155 512 Q1155 390 1114.5 291.5 Q1074 193 1003.5 123 Q933 53 837.5 15 Q742 -23 631 -23 Q566 -23 514.5 -10.5 Q463 2 426 20 L422 18 L422 -451 Z M422 256 Q454 239 500.5 225 Q547 211 600 211 Q664 211 713.5 232.5 Q763 254 797.5 292.5 Q832 331 850 383 Q868 435 868 496 Q868 556 850 609.5 Q832 663 798.5 702.5 Q765 742 717 765 Q669 788 608 788 Q556 788 507.5 771.5 Q459 755 422 727 L422 256 Z " />
<glyph glyph-name="q" unicode="q" horiz-adv-x="1237" d="M811 43 Q766 17 705 -3 Q644 -23 565 -23 Q465 -23 376.5 13.5 Q288 50 221.5 117.5 Q155 185 116.5 280 Q78 375 78 492 Q78 610 118.5 709 Q159 808 231 879 Q303 950 401.5 990 Q500 1030 616 1030 Q688 1030 753.5 1014 Q819 998 881 969 L1102 1008 L1102 -451 L815 -451 L815 41 L811 43 Z M815 743 Q778 762 732 775 Q686 788 635 788 Q570 788 520 765.5 Q470 743 435.5 704 Q401 665 383 612.5 Q365 560 365 500 Q365 441 382.5 388.5 Q400 336 434 296.5 Q468 257 517 234 Q566 211 629 211 Q678 211 727.5 226 Q777 241 815 270 L815 743 Z " />
<glyph glyph-name="r" unicode="r" horiz-adv-x="813" d="M135 1008 L416 1008 L416 870 L420 868 Q472 943 547 981.5 Q622 1020 715 1020 Q730 1020 746.5 1018.5 Q763 1017 780 1012 L780 739 Q762 744 741 747 Q720 750 698 750 Q612 750 544 719 Q476 688 422 618 L422 0 L135 0 L135 1008 Z " />
<glyph glyph-name="s" unicode="s" horiz-adv-x="983" d="M102 319 Q151 289 203 267.5 Q255 246 305 231.5 Q355 217 400.5 210 Q446 203 481 203 Q549 203 588 224.5 Q627 246 627 293 Q627 324 607 341.5 Q587 359 552.5 370 Q518 381 471.5 389.5 Q425 398 373 412 Q305 429 250.5 453 Q196 477 157 511.5 Q118 546 97 592.5 Q76 639 76 702 Q76 780 108 841 Q140 902 196 944 Q252 986 328.5 1008 Q405 1030 494 1030 Q537 1030 584.5 1025 Q632 1020 679.5 1010 Q727 1000 772.5 985 Q818 970 858 950 L858 698 Q810 726 760.5 746 Q711 766 664 779 Q617 792 575 798.5 Q533 805 500 805 Q437 805 399.5 784 Q362 763 362 723 Q362 694 380.5 678 Q399 662 432 651.5 Q465 641 510.5 632.5 Q556 624 610 610 Q679 593 734.5 569.5 Q790 546 830 511.5 Q870 477 891.5 428.5 Q913 380 913 313 Q913 232 880 169 Q847 106 789.5 63.5 Q732 21 653 -1 Q574 -23 483 -23 Q436 -23 386.5 -17.5 Q337 -12 287.5 -1.5 Q238 9 191 24.5 Q144 40 102 61 L102 319 Z " />
<glyph glyph-name="t" unicode="t" horiz-adv-x="858" d="M467 768 L467 418 Q467 367 474.5 332.5 Q482 298 504 272 Q546 221 631 221 Q676 221 719 233.5 Q762 246 799 264 L799 33 Q752 8 687 -7.5 Q622 -23 551 -23 Q461 -23 392.5 2 Q324 27 274 80 Q251 104 234 133.5 Q217 163 205.5 199.5 Q194 236 188 282 Q182 328 182 387 L182 768 L-25 768 L-27 772 L463 1296 L467 1294 L467 1008 L801 1008 L801 768 L467 768 Z " />
<glyph glyph-name="u" unicode="u" horiz-adv-x="1229" d="M807 102 Q747 49 668.5 13 Q590 -23 492 -23 Q405 -23 337.5 4.5 Q270 32 225 80 Q178 130 155.5 203.5 Q133 277 133 387 L133 1008 L420 1008 L420 432 Q420 372 430.5 334.5 Q441 297 461 274 Q484 248 516 236.5 Q548 225 582 225 Q614 225 646 233.5 Q678 242 707 256.5 Q736 271 761.5 290.5 Q787 310 807 332 L807 1008 L1094 1008 L1094 0 L811 0 L811 100 L807 102 Z " />
<glyph glyph-name="v" unicode="v" horiz-adv-x="1130" d="M567 -45 L563 -45 L-2 1008 L311 1008 L434 760 Q469 689 503 619.5 Q537 550 565 492 L569 492 Q598 550 634.5 620.5 Q671 691 709 762 L838 1008 L1133 1008 L567 -45 Z " />
<glyph glyph-name="w" unicode="w" horiz-adv-x="1669" d="M440 727 Q453 698 467.5 667 Q482 636 496 604.5 Q510 573 523.5 543 Q537 513 549 487 L553 487 Q605 595 670 721 L840 1053 L844 1053 L1016 719 Q1048 656 1078 597 Q1108 538 1133 487 L1137 487 Q1160 540 1188 601 Q1216 662 1245 725 L1376 1008 L1669 1008 L1143 -45 L1139 -45 L926 369 Q900 420 879 460.5 Q858 501 838 543 L834 543 Q815 505 793 462 Q771 419 743 367 L528 -45 L524 -45 L0 1008 L311 1008 L440 727 Z " />
<glyph glyph-name="x" unicode="x" horiz-adv-x="1096" d="M657 182 Q625 229 597 270.5 Q569 312 541 354 L537 354 Q511 314 480 268.5 Q449 223 418 178 L295 0 L-14 0 L377 539 L31 1008 L352 1008 L434 887 Q468 837 495 797.5 Q522 758 551 713 L555 713 Q586 759 616 803 Q646 847 674 887 L758 1008 L1061 1008 L717 541 L1110 0 L782 0 L657 182 Z " />
<glyph glyph-name="y" unicode="y" horiz-adv-x="1135" d="M162 -451 L428 111 L16 1008 L319 1008 L438 729 Q472 651 504 574 Q536 497 567 422 L571 422 Q603 496 638.5 575 Q674 654 711 737 L831 1008 L1118 1008 L457 -451 L162 -451 Z " />
<glyph glyph-name="z" unicode="z" horiz-adv-x="1004" d="M33 0 L31 4 L504 764 L502 768 L76 768 L76 1008 L956 1008 L958 1004 L485 244 L487 240 L946 240 L946 0 L33 0 Z " />
<glyph glyph-name="agrave" unicode="&#xe0;" horiz-adv-x="1239" d="M819 59 Q770 21 703.5 -1 Q637 -23 559 -23 Q461 -23 374 13 Q287 49 221 115 Q155 181 116.5 275 Q78 369 78 485 Q78 604 119 704 Q160 804 232 876.5 Q304 949 402.5 989.5 Q501 1030 616 1030 Q686 1030 752.5 1014 Q819 998 879 969 L1104 1008 L1104 0 L823 0 L823 57 L819 59 Z M817 745 Q780 764 734 777.5 Q688 791 637 791 Q572 791 521 768.5 Q470 746 435.5 707 Q401 668 383 614.5 Q365 561 365 500 Q365 440 383 387.5 Q401 335 435 296.5 Q469 258 518 235.5 Q567 213 629 213 Q680 213 728.5 229 Q777 245 817 272 L817 745 Z M364 1489 L628 1489 L796 1153 L598 1153 L364 1489 Z " />
<glyph glyph-name="aacute" unicode="&#xe1;" horiz-adv-x="1239" d="M819 59 Q770 21 703.5 -1 Q637 -23 559 -23 Q461 -23 374 13 Q287 49 221 115 Q155 181 116.5 275 Q78 369 78 485 Q78 604 119 704 Q160 804 232 876.5 Q304 949 402.5 989.5 Q501 1030 616 1030 Q686 1030 752.5 1014 Q819 998 879 969 L1104 1008 L1104 0 L823 0 L823 57 L819 59 Z M817 745 Q780 764 734 777.5 Q688 791 637 791 Q572 791 521 768.5 Q470 746 435.5 707 Q401 668 383 614.5 Q365 561 365 500 Q365 440 383 387.5 Q401 335 435 296.5 Q469 258 518 235.5 Q567 213 629 213 Q680 213 728.5 229 Q777 245 817 272 L817 745 Z M680 1153 L481 1153 L649 1489 L913 1489 L680 1153 Z " />
<glyph glyph-name="acircumflex" unicode="&#xe2;" horiz-adv-x="1239" d="M819 59 Q770 21 703.5 -1 Q637 -23 559 -23 Q461 -23 374 13 Q287 49 221 115 Q155 181 116.5 275 Q78 369 78 485 Q78 604 119 704 Q160 804 232 876.5 Q304 949 402.5 989.5 Q501 1030 616 1030 Q686 1030 752.5 1014 Q819 998 879 969 L1104 1008 L1104 0 L823 0 L823 57 L819 59 Z M817 745 Q780 764 734 777.5 Q688 791 637 791 Q572 791 521 768.5 Q470 746 435.5 707 Q401 668 383 614.5 Q365 561 365 500 Q365 440 383 387.5 Q401 335 435 296.5 Q469 258 518 235.5 Q567 213 629 213 Q680 213 728.5 229 Q777 245 817 272 L817 745 Z M272 1155 L637 1526 L641 1526 L1005 1155 L778 1155 L639 1282 L499 1155 L272 1155 Z " />
<glyph glyph-name="atilde" unicode="&#xe3;" horiz-adv-x="1239" d="M819 59 Q770 21 703.5 -1 Q637 -23 559 -23 Q461 -23 374 13 Q287 49 221 115 Q155 181 116.5 275 Q78 369 78 485 Q78 604 119 704 Q160 804 232 876.5 Q304 949 402.5 989.5 Q501 1030 616 1030 Q686 1030 752.5 1014 Q819 998 879 969 L1104 1008 L1104 0 L823 0 L823 57 L819 59 Z M817 745 Q780 764 734 777.5 Q688 791 637 791 Q572 791 521 768.5 Q470 746 435.5 707 Q401 668 383 614.5 Q365 561 365 500 Q365 440 383 387.5 Q401 335 435 296.5 Q469 258 518 235.5 Q567 213 629 213 Q680 213 728.5 229 Q777 245 817 272 L817 745 Z M303 1391 Q332 1423 377.5 1445.5 Q423 1468 483 1468 Q561 1468 655 1419 Q699 1396 729 1384 Q759 1372 794 1372 Q824 1372 849 1381 Q874 1390 895.5 1404 Q917 1418 935.5 1436.5 Q954 1455 970 1475 L974 1473 L974 1255 Q945 1223 899.5 1200.5 Q854 1178 794 1178 Q717 1178 622 1227 Q578 1249 548 1261.5 Q518 1274 483 1274 Q453 1274 428 1265 Q403 1256 381.5 1242 Q360 1228 341.5 1209 Q323 1190 307 1171 L303 1174 L303 1391 Z " />
<glyph glyph-name="adieresis" unicode="&#xe4;" horiz-adv-x="1239" d="M819 59 Q770 21 703.5 -1 Q637 -23 559 -23 Q461 -23 374 13 Q287 49 221 115 Q155 181 116.5 275 Q78 369 78 485 Q78 604 119 704 Q160 804 232 876.5 Q304 949 402.5 989.5 Q501 1030 616 1030 Q686 1030 752.5 1014 Q819 998 879 969 L1104 1008 L1104 0 L823 0 L823 57 L819 59 Z M817 745 Q780 764 734 777.5 Q688 791 637 791 Q572 791 521 768.5 Q470 746 435.5 707 Q401 668 383 614.5 Q365 561 365 500 Q365 440 383 387.5 Q401 335 435 296.5 Q469 258 518 235.5 Q567 213 629 213 Q680 213 728.5 229 Q777 245 817 272 L817 745 Z M266 1325 Q266 1356 277.5 1383 Q289 1410 309 1430.5 Q329 1451 355.5 1463 Q382 1475 413 1475 Q444 1475 471 1463 Q498 1451 518.5 1430.5 Q539 1410 551 1383 Q563 1356 563 1325 Q563 1294 551 1267.5 Q539 1241 518.5 1221 Q498 1201 471 1189.5 Q444 1178 413 1178 Q382 1178 355.5 1189.5 Q329 1201 309 1221 Q289 1241 277.5 1267.5 Q266 1294 266 1325 Z M714 1325 Q714 1356 725.5 1383 Q737 1410 757 1430.5 Q777 1451 804 1463 Q831 1475 862 1475 Q893 1475 920 1463 Q947 1451 967 1430.5 Q987 1410 999 1383 Q1011 1356 1011 1325 Q1011 1294 999 1267.5 Q987 1241 967 1221 Q947 1201 920 1189.5 Q893 1178 862 1178 Q831 1178 804 1189.5 Q777 1201 757 1221 Q737 1241 725.5 1267.5 Q714 1294 714 1325 Z " />
<glyph glyph-name="amacron" unicode="&#x101;" horiz-adv-x="1239" d="M819 59 Q770 21 703.5 -1 Q637 -23 559 -23 Q461 -23 374 13 Q287 49 221 115 Q155 181 116.5 275 Q78 369 78 485 Q78 604 119 704 Q160 804 232 876.5 Q304 949 402.5 989.5 Q501 1030 616 1030 Q686 1030 752.5 1014 Q819 998 879 969 L1104 1008 L1104 0 L823 0 L823 57 L819 59 Z M817 745 Q780 764 734 777.5 Q688 791 637 791 Q572 791 521 768.5 Q470 746 435.5 707 Q401 668 383 614.5 Q365 561 365 500 Q365 440 383 387.5 Q401 335 435 296.5 Q469 258 518 235.5 Q567 213 629 213 Q680 213 728.5 229 Q777 245 817 272 L817 745 Z M331 1417 L946 1417 L946 1225 L331 1225 L331 1417 Z " />
<glyph glyph-name="abreve" unicode="&#x103;" horiz-adv-x="1239" d="M819 59 Q770 21 703.5 -1 Q637 -23 559 -23 Q461 -23 374 13 Q287 49 221 115 Q155 181 116.5 275 Q78 369 78 485 Q78 604 119 704 Q160 804 232 876.5 Q304 949 402.5 989.5 Q501 1030 616 1030 Q686 1030 752.5 1014 Q819 998 879 969 L1104 1008 L1104 0 L823 0 L823 57 L819 59 Z M817 745 Q780 764 734 777.5 Q688 791 637 791 Q572 791 521 768.5 Q470 746 435.5 707 Q401 668 383 614.5 Q365 561 365 500 Q365 440 383 387.5 Q401 335 435 296.5 Q469 258 518 235.5 Q567 213 629 213 Q680 213 728.5 229 Q777 245 817 272 L817 745 Z M962 1487 Q960 1413 938 1352.5 Q916 1292 875 1248.5 Q834 1205 774.5 1181 Q715 1157 639 1157 Q562 1157 502.5 1181 Q443 1205 402 1248.5 Q361 1292 339 1352.5 Q317 1413 315 1487 L477 1487 Q479 1451 489 1418.5 Q499 1386 518 1361 Q537 1336 567 1321.5 Q597 1307 639 1307 Q681 1307 710.5 1321.5 Q740 1336 759 1361 Q778 1386 788 1418.5 Q798 1451 800 1487 L962 1487 Z " />
<glyph glyph-name="aring" unicode="&#xe5;" horiz-adv-x="1239" d="M819 59 Q770 21 703.5 -1 Q637 -23 559 -23 Q461 -23 374 13 Q287 49 221 115 Q155 181 116.5 275 Q78 369 78 485 Q78 604 119 704 Q160 804 232 876.5 Q304 949 402.5 989.5 Q501 1030 616 1030 Q686 1030 752.5 1014 Q819 998 879 969 L1104 1008 L1104 0 L823 0 L823 57 L819 59 Z M817 745 Q780 764 734 777.5 Q688 791 637 791 Q572 791 521 768.5 Q470 746 435.5 707 Q401 668 383 614.5 Q365 561 365 500 Q365 440 383 387.5 Q401 335 435 296.5 Q469 258 518 235.5 Q567 213 629 213 Q680 213 728.5 229 Q777 245 817 272 L817 745 Z M639 1112 Q583 1112 535 1131 Q487 1150 452.5 1184 Q418 1218 398.5 1263.5 Q379 1309 379 1362 Q379 1415 398.5 1460.5 Q418 1506 452.5 1540 Q487 1574 535 1593 Q583 1612 639 1612 Q695 1612 742.5 1593 Q790 1574 825 1540 Q860 1506 879.5 1460.5 Q899 1415 899 1362 Q899 1309 879.5 1263.5 Q860 1218 825 1184 Q790 1150 742.5 1131 Q695 1112 639 1112 Z M639 1237 Q667 1237 689.5 1247 Q712 1257 727.5 1274 Q743 1291 751 1313.5 Q759 1336 759 1362 Q759 1387 751 1410 Q743 1433 727.5 1450 Q712 1467 689.5 1477 Q667 1487 639 1487 Q610 1487 588 1477 Q566 1467 550 1450 Q534 1433 526 1410 Q518 1387 518 1362 Q518 1336 526 1313.5 Q534 1291 550 1274 Q566 1257 588 1247 Q610 1237 639 1237 Z " />
<glyph glyph-name="aogonek" unicode="&#x105;" horiz-adv-x="1239" d="M819 59 Q770 21 703.5 -1 Q637 -23 559 -23 Q461 -23 374 13 Q287 49 221 115 Q155 181 116.5 275 Q78 369 78 485 Q78 604 119 704 Q160 804 232 876.5 Q304 949 402.5 989.5 Q501 1030 616 1030 Q686 1030 752.5 1014 Q819 998 879 969 L1104 1008 L1104 0 Q1051 -25 1015 -52.5 Q979 -80 956.5 -107.5 Q934 -135 924.5 -161.5 Q915 -188 915 -211 Q915 -249 939 -273 Q963 -297 1010 -297 Q1031 -297 1056 -293 Q1081 -289 1106 -283 L1106 -451 Q1078 -460 1038 -466.5 Q998 -473 954 -473 Q892 -473 841.5 -457 Q791 -441 755.5 -412.5 Q720 -384 701 -344 Q682 -304 682 -256 Q682 -194 715 -127 Q748 -60 823 0 L823 57 L819 59 Z M817 745 Q780 764 734 777.5 Q688 791 637 791 Q572 791 521 768.5 Q470 746 435.5 707 Q401 668 383 614.5 Q365 561 365 500 Q365 440 383 387.5 Q401 335 435 296.5 Q469 258 518 235.5 Q567 213 629 213 Q680 213 728.5 229 Q777 245 817 272 L817 745 Z " />
<glyph glyph-name="ae" unicode="&#xe6;" horiz-adv-x="1819" d="M766 776 Q735 784 704 787.5 Q673 791 645 791 Q577 791 524.5 768.5 Q472 746 436.5 707 Q401 668 383 614.5 Q365 561 365 500 Q365 440 382.5 387.5 Q400 335 433.5 296.5 Q467 258 516 235.5 Q565 213 627 213 Q679 213 726.5 229 Q774 245 811 272 Q789 322 777.5 379.5 Q766 437 766 500 L766 776 Z M1477 614 Q1469 666 1448.5 702.5 Q1428 739 1399 762 Q1370 785 1335.5 796 Q1301 807 1266 807 Q1182 807 1123 757 Q1064 707 1042 614 L1477 614 Z M1001 907 Q1046 960 1121.5 995 Q1197 1030 1290 1030 Q1375 1030 1456.5 999 Q1538 968 1601 905.5 Q1664 843 1702.5 749.5 Q1741 656 1741 532 Q1741 508 1739.5 477.5 Q1738 447 1735 428 L1042 428 Q1056 363 1088.5 320.5 Q1121 278 1163.5 252 Q1206 226 1255 215.5 Q1304 205 1350 205 Q1436 205 1522 234 Q1608 263 1686 317 L1686 70 Q1650 47 1606 30 Q1562 13 1513.5 1 Q1465 -11 1414 -17 Q1363 -23 1313 -23 Q1194 -23 1095 12.5 Q996 48 924 113 Q856 56 766 16.5 Q676 -23 565 -23 Q464 -23 375.5 12.5 Q287 48 221 114 Q155 180 116.5 274 Q78 368 78 485 Q78 602 117.5 702 Q157 802 231 874.5 Q305 947 411 988.5 Q517 1030 651 1030 Q747 1030 836 1011 Q925 992 997 965 L997 909 L1001 907 Z " />
<glyph glyph-name="aeacute" unicode="&#x1fd;" horiz-adv-x="1819" d="M766 776 Q735 784 704 787.5 Q673 791 645 791 Q577 791 524.5 768.5 Q472 746 436.5 707 Q401 668 383 614.5 Q365 561 365 500 Q365 440 382.5 387.5 Q400 335 433.5 296.5 Q467 258 516 235.5 Q565 213 627 213 Q679 213 726.5 229 Q774 245 811 272 Q789 322 777.5 379.5 Q766 437 766 500 L766 776 Z M1477 614 Q1469 666 1448.5 702.5 Q1428 739 1399 762 Q1370 785 1335.5 796 Q1301 807 1266 807 Q1182 807 1123 757 Q1064 707 1042 614 L1477 614 Z M1001 907 Q1046 960 1121.5 995 Q1197 1030 1290 1030 Q1375 1030 1456.5 999 Q1538 968 1601 905.5 Q1664 843 1702.5 749.5 Q1741 656 1741 532 Q1741 508 1739.5 477.5 Q1738 447 1735 428 L1042 428 Q1056 363 1088.5 320.5 Q1121 278 1163.5 252 Q1206 226 1255 215.5 Q1304 205 1350 205 Q1436 205 1522 234 Q1608 263 1686 317 L1686 70 Q1650 47 1606 30 Q1562 13 1513.5 1 Q1465 -11 1414 -17 Q1363 -23 1313 -23 Q1194 -23 1095 12.5 Q996 48 924 113 Q856 56 766 16.5 Q676 -23 565 -23 Q464 -23 375.5 12.5 Q287 48 221 114 Q155 180 116.5 274 Q78 368 78 485 Q78 602 117.5 702 Q157 802 231 874.5 Q305 947 411 988.5 Q517 1030 651 1030 Q747 1030 836 1011 Q925 992 997 965 L997 909 L1001 907 Z M1029 1153 L830 1153 L998 1489 L1262 1489 L1029 1153 Z " />
<glyph glyph-name="cacute" unicode="&#x107;" horiz-adv-x="1034" d="M942 49 Q874 12 793 -5.5 Q712 -23 631 -23 Q509 -23 406.5 16.5 Q304 56 230 126 Q156 196 114 292 Q72 388 72 502 Q72 619 117 716.5 Q162 814 240 883.5 Q318 953 422 991.5 Q526 1030 643 1030 Q725 1030 798 1013 Q871 996 928 965 L928 694 Q865 738 795.5 762 Q726 786 653 786 Q588 786 533.5 764.5 Q479 743 440 705 Q401 667 379.5 615 Q358 563 358 502 Q358 440 380 389 Q402 338 442 301 Q482 264 537 243.5 Q592 223 657 223 Q733 223 808 248.5 Q883 274 942 319 L942 49 Z M684 1153 L485 1153 L653 1489 L917 1489 L684 1153 Z " />
<glyph glyph-name="ccircumflex" unicode="&#x109;" horiz-adv-x="1034" d="M942 49 Q874 12 793 -5.5 Q712 -23 631 -23 Q509 -23 406.5 16.5 Q304 56 230 126 Q156 196 114 292 Q72 388 72 502 Q72 619 117 716.5 Q162 814 240 883.5 Q318 953 422 991.5 Q526 1030 643 1030 Q725 1030 798 1013 Q871 996 928 965 L928 694 Q865 738 795.5 762 Q726 786 653 786 Q588 786 533.5 764.5 Q479 743 440 705 Q401 667 379.5 615 Q358 563 358 502 Q358 440 380 389 Q402 338 442 301 Q482 264 537 243.5 Q592 223 657 223 Q733 223 808 248.5 Q883 274 942 319 L942 49 Z M213 1155 L578 1526 L582 1526 L946 1155 L719 1155 L580 1282 L440 1155 L213 1155 Z " />
<glyph glyph-name="ccaron" unicode="&#x10d;" horiz-adv-x="1034" d="M942 49 Q874 12 793 -5.5 Q712 -23 631 -23 Q509 -23 406.5 16.5 Q304 56 230 126 Q156 196 114 292 Q72 388 72 502 Q72 619 117 716.5 Q162 814 240 883.5 Q318 953 422 991.5 Q526 1030 643 1030 Q725 1030 798 1013 Q871 996 928 965 L928 694 Q865 738 795.5 762 Q726 786 653 786 Q588 786 533.5 764.5 Q479 743 440 705 Q401 667 379.5 615 Q358 563 358 502 Q358 440 380 389 Q402 338 442 301 Q482 264 537 243.5 Q592 223 657 223 Q733 223 808 248.5 Q883 274 942 319 L942 49 Z M946 1487 L582 1116 L578 1116 L213 1487 L440 1487 L580 1360 L719 1487 L946 1487 Z " />
<glyph glyph-name="cdotaccent" unicode="&#x10b;" horiz-adv-x="1034" d="M942 49 Q874 12 793 -5.5 Q712 -23 631 -23 Q509 -23 406.5 16.5 Q304 56 230 126 Q156 196 114 292 Q72 388 72 502 Q72 619 117 716.5 Q162 814 240 883.5 Q318 953 422 991.5 Q526 1030 643 1030 Q725 1030 798 1013 Q871 996 928 965 L928 694 Q865 738 795.5 762 Q726 786 653 786 Q588 786 533.5 764.5 Q479 743 440 705 Q401 667 379.5 615 Q358 563 358 502 Q358 440 380 389 Q402 338 442 301 Q482 264 537 243.5 Q592 223 657 223 Q733 223 808 248.5 Q883 274 942 319 L942 49 Z M432 1325 Q432 1356 443.5 1383 Q455 1410 475 1430.5 Q495 1451 522 1463 Q549 1475 580 1475 Q611 1475 638 1463 Q665 1451 685 1430.5 Q705 1410 717 1383 Q729 1356 729 1325 Q729 1294 717 1267.5 Q705 1241 685 1221 Q665 1201 638 1189.5 Q611 1178 580 1178 Q549 1178 522 1189.5 Q495 1201 475 1221 Q455 1241 443.5 1267.5 Q432 1294 432 1325 Z " />
<glyph glyph-name="ccedilla" unicode="&#xe7;" horiz-adv-x="1034" d="M627 -23 L608 -78 Q693 -95 740.5 -142.5 Q788 -190 788 -264 Q788 -306 772 -341 Q756 -376 726 -401 Q696 -426 654 -439.5 Q612 -453 561 -453 Q509 -453 464 -441 Q419 -429 385 -414 L426 -285 Q458 -302 493 -313 Q528 -324 559 -324 Q591 -324 617 -309.5 Q643 -295 643 -266 Q643 -240 623 -223.5 Q603 -207 574.5 -197.5 Q546 -188 514.5 -184 Q483 -180 459 -178 L512 -12 Q414 6 333.5 51 Q253 96 194.5 163.5 Q136 231 104 317 Q72 403 72 502 Q72 619 117 716.5 Q162 814 240 883.5 Q318 953 422 991.5 Q526 1030 643 1030 Q725 1030 798 1013 Q871 996 928 965 L928 694 Q865 738 795.5 762 Q726 786 653 786 Q588 786 533.5 764.5 Q479 743 440 705 Q401 667 379.5 615 Q358 563 358 502 Q358 440 380 389 Q402 338 442 301 Q482 264 537 243.5 Q592 223 657 223 Q733 223 808 248.5 Q883 274 942 319 L942 49 Q874 12 793 -5.5 Q712 -23 627 -23 Z " />
<glyph glyph-name="dcaron" unicode="&#x10f;" horiz-adv-x="1503" d="M817 57 Q766 22 699 -0.5 Q632 -23 555 -23 Q458 -23 371.5 12.5 Q285 48 219.5 114 Q154 180 116 273.5 Q78 367 78 483 Q78 602 118.5 702.5 Q159 803 230.5 875.5 Q302 948 399 989 Q496 1030 610 1030 Q672 1030 720.5 1019 Q769 1008 811 989 L815 991 L815 1565 L1102 1565 L1102 0 L821 0 L821 55 L817 57 Z M815 748 Q778 766 733 778.5 Q688 791 637 791 Q572 791 521 768 Q470 745 435.5 705 Q401 665 383 611.5 Q365 558 365 498 Q365 438 382.5 386 Q400 334 433.5 295.5 Q467 257 515 235 Q563 213 625 213 Q680 213 729 230.5 Q778 248 815 272 L815 748 Z M1555 1564 L1393 1118 L1198 1118 L1303 1564 L1555 1564 Z " />
<glyph glyph-name="dcroat" unicode="&#x111;" horiz-adv-x="1237" d="M520 1380 L815 1380 L815 1565 L1102 1565 L1102 1380 L1239 1380 L1239 1174 L1102 1174 L1102 0 L821 0 L821 55 L817 57 Q766 22 699 -0.5 Q632 -23 555 -23 Q458 -23 371.5 12.5 Q285 48 219.5 114 Q154 180 116 273.5 Q78 367 78 483 Q78 602 118.5 702.5 Q159 803 230.5 875.5 Q302 948 399 989 Q496 1030 610 1030 Q672 1030 720.5 1019 Q769 1008 811 989 L815 991 L815 1174 L520 1174 L520 1380 Z M815 748 Q778 766 733 778.5 Q688 791 637 791 Q572 791 521 768 Q470 745 435.5 705 Q401 665 383 611.5 Q365 558 365 498 Q365 438 382.5 386 Q400 334 433.5 295.5 Q467 257 515 235 Q563 213 625 213 Q680 213 729 230.5 Q778 248 815 272 L815 748 Z " />
<glyph glyph-name="egrave" unicode="&#xe8;" horiz-adv-x="1149" d="M805 614 Q797 666 775.5 702.5 Q754 739 724 762 Q694 785 659 796 Q624 807 590 807 Q552 807 516 795.5 Q480 784 449.5 760.5 Q419 737 396.5 700.5 Q374 664 362 614 L805 614 Z M1016 70 Q980 47 935 30 Q890 13 840.5 1 Q791 -11 739 -17 Q687 -23 637 -23 Q514 -23 410.5 14.5 Q307 52 231.5 120 Q156 188 114 284.5 Q72 381 72 500 Q72 620 114.5 718 Q157 816 229 885.5 Q301 955 395.5 992.5 Q490 1030 594 1030 Q687 1030 773 999 Q859 968 925.5 905.5 Q992 843 1031.5 749 Q1071 655 1071 530 Q1071 506 1069.5 476.5 Q1068 447 1065 428 L362 428 Q374 372 402 330 Q430 288 470.5 260.5 Q511 233 562 219 Q613 205 672 205 Q762 205 849.5 234 Q937 263 1016 317 L1016 70 Z M317 1489 L581 1489 L749 1153 L551 1153 L317 1489 Z " />
<glyph glyph-name="eacute" unicode="&#xe9;" horiz-adv-x="1149" d="M805 614 Q797 666 775.5 702.5 Q754 739 724 762 Q694 785 659 796 Q624 807 590 807 Q552 807 516 795.5 Q480 784 449.5 760.5 Q419 737 396.5 700.5 Q374 664 362 614 L805 614 Z M1016 70 Q980 47 935 30 Q890 13 840.5 1 Q791 -11 739 -17 Q687 -23 637 -23 Q514 -23 410.5 14.5 Q307 52 231.5 120 Q156 188 114 284.5 Q72 381 72 500 Q72 620 114.5 718 Q157 816 229 885.5 Q301 955 395.5 992.5 Q490 1030 594 1030 Q687 1030 773 999 Q859 968 925.5 905.5 Q992 843 1031.5 749 Q1071 655 1071 530 Q1071 506 1069.5 476.5 Q1068 447 1065 428 L362 428 Q374 372 402 330 Q430 288 470.5 260.5 Q511 233 562 219 Q613 205 672 205 Q762 205 849.5 234 Q937 263 1016 317 L1016 70 Z M633 1153 L434 1153 L602 1489 L866 1489 L633 1153 Z " />
<glyph glyph-name="ecircumflex" unicode="&#xea;" horiz-adv-x="1149" d="M805 614 Q797 666 775.5 702.5 Q754 739 724 762 Q694 785 659 796 Q624 807 590 807 Q552 807 516 795.5 Q480 784 449.5 760.5 Q419 737 396.5 700.5 Q374 664 362 614 L805 614 Z M1016 70 Q980 47 935 30 Q890 13 840.5 1 Q791 -11 739 -17 Q687 -23 637 -23 Q514 -23 410.5 14.5 Q307 52 231.5 120 Q156 188 114 284.5 Q72 381 72 500 Q72 620 114.5 718 Q157 816 229 885.5 Q301 955 395.5 992.5 Q490 1030 594 1030 Q687 1030 773 999 Q859 968 925.5 905.5 Q992 843 1031.5 749 Q1071 655 1071 530 Q1071 506 1069.5 476.5 Q1068 447 1065 428 L362 428 Q374 372 402 330 Q430 288 470.5 260.5 Q511 233 562 219 Q613 205 672 205 Q762 205 849.5 234 Q937 263 1016 317 L1016 70 Z M225 1155 L590 1526 L594 1526 L958 1155 L731 1155 L592 1282 L452 1155 L225 1155 Z " />
<glyph glyph-name="ecaron" unicode="&#x11b;" horiz-adv-x="1149" d="M805 614 Q797 666 775.5 702.5 Q754 739 724 762 Q694 785 659 796 Q624 807 590 807 Q552 807 516 795.5 Q480 784 449.5 760.5 Q419 737 396.5 700.5 Q374 664 362 614 L805 614 Z M1016 70 Q980 47 935 30 Q890 13 840.5 1 Q791 -11 739 -17 Q687 -23 637 -23 Q514 -23 410.5 14.5 Q307 52 231.5 120 Q156 188 114 284.5 Q72 381 72 500 Q72 620 114.5 718 Q157 816 229 885.5 Q301 955 395.5 992.5 Q490 1030 594 1030 Q687 1030 773 999 Q859 968 925.5 905.5 Q992 843 1031.5 749 Q1071 655 1071 530 Q1071 506 1069.5 476.5 Q1068 447 1065 428 L362 428 Q374 372 402 330 Q430 288 470.5 260.5 Q511 233 562 219 Q613 205 672 205 Q762 205 849.5 234 Q937 263 1016 317 L1016 70 Z M958 1487 L594 1116 L590 1116 L225 1487 L452 1487 L592 1360 L731 1487 L958 1487 Z " />
<glyph glyph-name="edieresis" unicode="&#xeb;" horiz-adv-x="1149" d="M805 614 Q797 666 775.5 702.5 Q754 739 724 762 Q694 785 659 796 Q624 807 590 807 Q552 807 516 795.5 Q480 784 449.5 760.5 Q419 737 396.5 700.5 Q374 664 362 614 L805 614 Z M1016 70 Q980 47 935 30 Q890 13 840.5 1 Q791 -11 739 -17 Q687 -23 637 -23 Q514 -23 410.5 14.5 Q307 52 231.5 120 Q156 188 114 284.5 Q72 381 72 500 Q72 620 114.5 718 Q157 816 229 885.5 Q301 955 395.5 992.5 Q490 1030 594 1030 Q687 1030 773 999 Q859 968 925.5 905.5 Q992 843 1031.5 749 Q1071 655 1071 530 Q1071 506 1069.5 476.5 Q1068 447 1065 428 L362 428 Q374 372 402 330 Q430 288 470.5 260.5 Q511 233 562 219 Q613 205 672 205 Q762 205 849.5 234 Q937 263 1016 317 L1016 70 Z M219 1325 Q219 1356 230.5 1383 Q242 1410 262 1430.5 Q282 1451 308.5 1463 Q335 1475 366 1475 Q397 1475 424 1463 Q451 1451 471.5 1430.5 Q492 1410 504 1383 Q516 1356 516 1325 Q516 1294 504 1267.5 Q492 1241 471.5 1221 Q451 1201 424 1189.5 Q397 1178 366 1178 Q335 1178 308.5 1189.5 Q282 1201 262 1221 Q242 1241 230.5 1267.5 Q219 1294 219 1325 Z M667 1325 Q667 1356 678.5 1383 Q690 1410 710 1430.5 Q730 1451 757 1463 Q784 1475 815 1475 Q846 1475 873 1463 Q900 1451 920 1430.5 Q940 1410 952 1383 Q964 1356 964 1325 Q964 1294 952 1267.5 Q940 1241 920 1221 Q900 1201 873 1189.5 Q846 1178 815 1178 Q784 1178 757 1189.5 Q730 1201 710 1221 Q690 1241 678.5 1267.5 Q667 1294 667 1325 Z " />
<glyph glyph-name="emacron" unicode="&#x113;" horiz-adv-x="1149" d="M805 614 Q797 666 775.5 702.5 Q754 739 724 762 Q694 785 659 796 Q624 807 590 807 Q552 807 516 795.5 Q480 784 449.5 760.5 Q419 737 396.5 700.5 Q374 664 362 614 L805 614 Z M1016 70 Q980 47 935 30 Q890 13 840.5 1 Q791 -11 739 -17 Q687 -23 637 -23 Q514 -23 410.5 14.5 Q307 52 231.5 120 Q156 188 114 284.5 Q72 381 72 500 Q72 620 114.5 718 Q157 816 229 885.5 Q301 955 395.5 992.5 Q490 1030 594 1030 Q687 1030 773 999 Q859 968 925.5 905.5 Q992 843 1031.5 749 Q1071 655 1071 530 Q1071 506 1069.5 476.5 Q1068 447 1065 428 L362 428 Q374 372 402 330 Q430 288 470.5 260.5 Q511 233 562 219 Q613 205 672 205 Q762 205 849.5 234 Q937 263 1016 317 L1016 70 Z M284 1417 L899 1417 L899 1225 L284 1225 L284 1417 Z " />
<glyph glyph-name="ebreve" unicode="&#x115;" horiz-adv-x="1149" d="M805 614 Q797 666 775.5 702.5 Q754 739 724 762 Q694 785 659 796 Q624 807 590 807 Q552 807 516 795.5 Q480 784 449.5 760.5 Q419 737 396.5 700.5 Q374 664 362 614 L805 614 Z M1016 70 Q980 47 935 30 Q890 13 840.5 1 Q791 -11 739 -17 Q687 -23 637 -23 Q514 -23 410.5 14.5 Q307 52 231.5 120 Q156 188 114 284.5 Q72 381 72 500 Q72 620 114.5 718 Q157 816 229 885.5 Q301 955 395.5 992.5 Q490 1030 594 1030 Q687 1030 773 999 Q859 968 925.5 905.5 Q992 843 1031.5 749 Q1071 655 1071 530 Q1071 506 1069.5 476.5 Q1068 447 1065 428 L362 428 Q374 372 402 330 Q430 288 470.5 260.5 Q511 233 562 219 Q613 205 672 205 Q762 205 849.5 234 Q937 263 1016 317 L1016 70 Z M915 1487 Q913 1413 891 1352.5 Q869 1292 828 1248.5 Q787 1205 727.5 1181 Q668 1157 592 1157 Q515 1157 455.5 1181 Q396 1205 355 1248.5 Q314 1292 292 1352.5 Q270 1413 268 1487 L430 1487 Q432 1451 442 1418.5 Q452 1386 471 1361 Q490 1336 520 1321.5 Q550 1307 592 1307 Q634 1307 663.5 1321.5 Q693 1336 712 1361 Q731 1386 741 1418.5 Q751 1451 753 1487 L915 1487 Z " />
<glyph glyph-name="edotaccent" unicode="&#x117;" horiz-adv-x="1149" d="M805 614 Q797 666 775.5 702.5 Q754 739 724 762 Q694 785 659 796 Q624 807 590 807 Q552 807 516 795.5 Q480 784 449.5 760.5 Q419 737 396.5 700.5 Q374 664 362 614 L805 614 Z M1016 70 Q980 47 935 30 Q890 13 840.5 1 Q791 -11 739 -17 Q687 -23 637 -23 Q514 -23 410.5 14.5 Q307 52 231.5 120 Q156 188 114 284.5 Q72 381 72 500 Q72 620 114.5 718 Q157 816 229 885.5 Q301 955 395.5 992.5 Q490 1030 594 1030 Q687 1030 773 999 Q859 968 925.5 905.5 Q992 843 1031.5 749 Q1071 655 1071 530 Q1071 506 1069.5 476.5 Q1068 447 1065 428 L362 428 Q374 372 402 330 Q430 288 470.5 260.5 Q511 233 562 219 Q613 205 672 205 Q762 205 849.5 234 Q937 263 1016 317 L1016 70 Z M444 1325 Q444 1356 455.5 1383 Q467 1410 487 1430.5 Q507 1451 534 1463 Q561 1475 592 1475 Q623 1475 650 1463 Q677 1451 697 1430.5 Q717 1410 729 1383 Q741 1356 741 1325 Q741 1294 729 1267.5 Q717 1241 697 1221 Q677 1201 650 1189.5 Q623 1178 592 1178 Q561 1178 534 1189.5 Q507 1201 487 1221 Q467 1241 455.5 1267.5 Q444 1294 444 1325 Z " />
<glyph glyph-name="eogonek" unicode="&#x119;" horiz-adv-x="1149" d="M805 614 Q797 666 775.5 702.5 Q754 739 724 762 Q694 785 659 796 Q624 807 590 807 Q552 807 516 795.5 Q480 784 449.5 760.5 Q419 737 396.5 700.5 Q374 664 362 614 L805 614 Z M942 -451 Q914 -460 875.5 -466.5 Q837 -473 795 -473 Q733 -473 683.5 -457.5 Q634 -442 599 -414 Q564 -386 545 -346 Q526 -306 526 -258 Q526 -204 551.5 -143 Q577 -82 633 -27 L631 -23 Q509 -22 406.5 16 Q304 54 230 122 Q156 190 114 286 Q72 382 72 500 Q72 620 114.5 718 Q157 816 229 885.5 Q301 955 395.5 992.5 Q490 1030 594 1030 Q687 1030 773 999 Q859 968 925.5 905.5 Q992 843 1031.5 749 Q1071 655 1071 530 Q1071 506 1069.5 476.5 Q1068 447 1065 428 L362 428 Q374 372 402 330 Q430 288 470.5 260.5 Q511 233 562 219 Q613 205 672 205 Q762 205 849.5 234 Q937 263 1016 317 L1016 70 Q935 23 883.5 -18.5 Q832 -60 803.5 -95.5 Q775 -131 764.5 -160 Q754 -189 754 -211 Q754 -249 777 -273 Q800 -297 850 -297 Q868 -297 892.5 -293 Q917 -289 942 -283 L942 -451 Z " />
<glyph glyph-name="gcircumflex" unicode="&#x11d;" horiz-adv-x="1223" d="M215 -123 Q290 -171 374 -199 Q458 -227 539 -227 Q599 -227 647 -211 Q695 -195 729.5 -164.5 Q764 -134 782.5 -88.5 Q801 -43 801 16 L801 76 L797 78 Q750 44 684.5 26 Q619 8 553 8 Q459 8 373 43 Q287 78 221.5 142.5 Q156 207 117 298.5 Q78 390 78 504 Q78 614 115.5 710 Q153 806 222 877 Q291 948 387.5 989 Q484 1030 602 1030 Q676 1030 739 1014.5 Q802 999 856 973 L1087 1014 L1087 16 Q1087 -101 1048.5 -192 Q1010 -283 939.5 -345.5 Q869 -408 771 -440.5 Q673 -473 553 -473 Q457 -473 368.5 -452 Q280 -431 215 -399 L215 -123 Z M801 743 Q767 760 720 773 Q673 786 627 786 Q563 786 515 764 Q467 742 434.5 704.5 Q402 667 385.5 618.5 Q369 570 369 516 Q369 456 386.5 406 Q404 356 437 320 Q470 284 517 264 Q564 244 623 244 Q671 244 718.5 257 Q766 270 801 295 L801 743 Z M258 1155 L623 1526 L627 1526 L991 1155 L764 1155 L625 1282 L485 1155 L258 1155 Z " />
<glyph glyph-name="gbreve" unicode="&#x11f;" horiz-adv-x="1223" d="M215 -123 Q290 -171 374 -199 Q458 -227 539 -227 Q599 -227 647 -211 Q695 -195 729.5 -164.5 Q764 -134 782.5 -88.5 Q801 -43 801 16 L801 76 L797 78 Q750 44 684.5 26 Q619 8 553 8 Q459 8 373 43 Q287 78 221.5 142.5 Q156 207 117 298.5 Q78 390 78 504 Q78 614 115.5 710 Q153 806 222 877 Q291 948 387.5 989 Q484 1030 602 1030 Q676 1030 739 1014.5 Q802 999 856 973 L1087 1014 L1087 16 Q1087 -101 1048.5 -192 Q1010 -283 939.5 -345.5 Q869 -408 771 -440.5 Q673 -473 553 -473 Q457 -473 368.5 -452 Q280 -431 215 -399 L215 -123 Z M801 743 Q767 760 720 773 Q673 786 627 786 Q563 786 515 764 Q467 742 434.5 704.5 Q402 667 385.5 618.5 Q369 570 369 516 Q369 456 386.5 406 Q404 356 437 320 Q470 284 517 264 Q564 244 623 244 Q671 244 718.5 257 Q766 270 801 295 L801 743 Z M948 1487 Q946 1413 924 1352.5 Q902 1292 861 1248.5 Q820 1205 760.5 1181 Q701 1157 625 1157 Q548 1157 488.5 1181 Q429 1205 388 1248.5 Q347 1292 325 1352.5 Q303 1413 301 1487 L463 1487 Q465 1451 475 1418.5 Q485 1386 504 1361 Q523 1336 553 1321.5 Q583 1307 625 1307 Q667 1307 696.5 1321.5 Q726 1336 745 1361 Q764 1386 774 1418.5 Q784 1451 786 1487 L948 1487 Z " />
<glyph glyph-name="gdotaccent" unicode="&#x121;" horiz-adv-x="1223" d="M215 -123 Q290 -171 374 -199 Q458 -227 539 -227 Q599 -227 647 -211 Q695 -195 729.5 -164.5 Q764 -134 782.5 -88.5 Q801 -43 801 16 L801 76 L797 78 Q750 44 684.5 26 Q619 8 553 8 Q459 8 373 43 Q287 78 221.5 142.5 Q156 207 117 298.5 Q78 390 78 504 Q78 614 115.5 710 Q153 806 222 877 Q291 948 387.5 989 Q484 1030 602 1030 Q676 1030 739 1014.5 Q802 999 856 973 L1087 1014 L1087 16 Q1087 -101 1048.5 -192 Q1010 -283 939.5 -345.5 Q869 -408 771 -440.5 Q673 -473 553 -473 Q457 -473 368.5 -452 Q280 -431 215 -399 L215 -123 Z M801 743 Q767 760 720 773 Q673 786 627 786 Q563 786 515 764 Q467 742 434.5 704.5 Q402 667 385.5 618.5 Q369 570 369 516 Q369 456 386.5 406 Q404 356 437 320 Q470 284 517 264 Q564 244 623 244 Q671 244 718.5 257 Q766 270 801 295 L801 743 Z M477 1325 Q477 1356 488.5 1383 Q500 1410 520 1430.5 Q540 1451 567 1463 Q594 1475 625 1475 Q656 1475 683 1463 Q710 1451 730 1430.5 Q750 1410 762 1383 Q774 1356 774 1325 Q774 1294 762 1267.5 Q750 1241 730 1221 Q710 1201 683 1189.5 Q656 1178 625 1178 Q594 1178 567 1189.5 Q540 1201 520 1221 Q500 1241 488.5 1267.5 Q477 1294 477 1325 Z " />
<glyph glyph-name="gcommaaccent" unicode="&#x123;" horiz-adv-x="1223" d="M215 -123 Q290 -171 374 -199 Q458 -227 539 -227 Q599 -227 647 -211 Q695 -195 729.5 -164.5 Q764 -134 782.5 -88.5 Q801 -43 801 16 L801 76 L797 78 Q750 44 684.5 26 Q619 8 553 8 Q459 8 373 43 Q287 78 221.5 142.5 Q156 207 117 298.5 Q78 390 78 504 Q78 614 115.5 710 Q153 806 222 877 Q291 948 387.5 989 Q484 1030 602 1030 Q676 1030 739 1014.5 Q802 999 856 973 L1087 1014 L1087 16 Q1087 -101 1048.5 -192 Q1010 -283 939.5 -345.5 Q869 -408 771 -440.5 Q673 -473 553 -473 Q457 -473 368.5 -452 Q280 -431 215 -399 L215 -123 Z M801 743 Q767 760 720 773 Q673 786 627 786 Q563 786 515 764 Q467 742 434.5 704.5 Q402 667 385.5 618.5 Q369 570 369 516 Q369 456 386.5 406 Q404 356 437 320 Q470 284 517 264 Q564 244 623 244 Q671 244 718.5 257 Q766 270 801 295 L801 743 Z M608 1585 L803 1585 L698 1139 L446 1139 L608 1585 Z " />
<glyph glyph-name="hcircumflex" unicode="&#x125;" horiz-adv-x="1227" d="M135 1565 L422 1565 L422 909 L426 907 Q486 960 565 995 Q644 1030 741 1030 Q825 1030 893.5 1003.5 Q962 977 1010 926 Q1054 878 1075 807.5 Q1096 737 1096 627 L1096 0 L809 0 L809 580 Q809 641 799.5 675.5 Q790 710 770 733 Q748 758 717.5 769 Q687 780 653 780 Q621 780 589 772 Q557 764 527 750 Q497 736 470 718 Q443 700 422 680 L422 0 L135 0 L135 1565 Z M-87 1664 L278 2035 L282 2035 L646 1664 L419 1664 L280 1791 L140 1664 L-87 1664 Z " />
<glyph glyph-name="hbar" unicode="&#x127;" horiz-adv-x="1227" d="M135 1174 L-2 1174 L-2 1380 L135 1380 L135 1565 L422 1565 L422 1380 L717 1380 L717 1174 L422 1174 L422 909 L426 907 Q486 960 565 995 Q644 1030 741 1030 Q825 1030 893.5 1003.5 Q962 977 1010 926 Q1054 878 1075 807.5 Q1096 737 1096 627 L1096 0 L809 0 L809 580 Q809 641 799.5 675.5 Q790 710 770 733 Q748 758 717.5 769 Q687 780 653 780 Q621 780 589 772 Q557 764 527 750 Q497 736 470 718 Q443 700 422 680 L422 0 L135 0 L135 1174 Z " />
<glyph glyph-name="igrave" unicode="&#xec;" horiz-adv-x="557" d="M135 1008 L422 1008 L422 0 L135 0 L135 1008 Z M5 1489 L269 1489 L437 1153 L239 1153 L5 1489 Z " />
<glyph glyph-name="iacute" unicode="&#xed;" horiz-adv-x="557" d="M135 1008 L422 1008 L422 0 L135 0 L135 1008 Z M321 1153 L122 1153 L290 1489 L554 1489 L321 1153 Z " />
<glyph glyph-name="icircumflex" unicode="&#xee;" horiz-adv-x="557" d="M135 1008 L422 1008 L422 0 L135 0 L135 1008 Z M-87 1155 L278 1526 L282 1526 L646 1155 L419 1155 L280 1282 L140 1155 L-87 1155 Z " />
<glyph glyph-name="itilde" unicode="&#x129;" horiz-adv-x="557" d="M135 1008 L422 1008 L422 0 L135 0 L135 1008 Z M-56 1391 Q-27 1423 18.5 1445.5 Q64 1468 124 1468 Q202 1468 296 1419 Q340 1396 370 1384 Q400 1372 435 1372 Q465 1372 490 1381 Q515 1390 536.5 1404 Q558 1418 576.5 1436.5 Q595 1455 611 1475 L615 1473 L615 1255 Q586 1223 540.5 1200.5 Q495 1178 435 1178 Q358 1178 263 1227 Q219 1249 189 1261.5 Q159 1274 124 1274 Q94 1274 69 1265 Q44 1256 22.5 1242 Q1 1228 -17.5 1209 Q-36 1190 -52 1171 L-56 1174 L-56 1391 Z " />
<glyph glyph-name="idieresis" unicode="&#xef;" horiz-adv-x="557" d="M135 1008 L422 1008 L422 0 L135 0 L135 1008 Z M-93 1325 Q-93 1356 -81.5 1383 Q-70 1410 -50 1430.5 Q-30 1451 -3.5 1463 Q23 1475 54 1475 Q85 1475 112 1463 Q139 1451 159.5 1430.5 Q180 1410 192 1383 Q204 1356 204 1325 Q204 1294 192 1267.5 Q180 1241 159.5 1221 Q139 1201 112 1189.5 Q85 1178 54 1178 Q23 1178 -3.5 1189.5 Q-30 1201 -50 1221 Q-70 1241 -81.5 1267.5 Q-93 1294 -93 1325 Z M355 1325 Q355 1356 366.5 1383 Q378 1410 398 1430.5 Q418 1451 445 1463 Q472 1475 503 1475 Q534 1475 561 1463 Q588 1451 608 1430.5 Q628 1410 640 1383 Q652 1356 652 1325 Q652 1294 640 1267.5 Q628 1241 608 1221 Q588 1201 561 1189.5 Q534 1178 503 1178 Q472 1178 445 1189.5 Q418 1201 398 1221 Q378 1241 366.5 1267.5 Q355 1294 355 1325 Z " />
<glyph glyph-name="imacron" unicode="&#x12b;" horiz-adv-x="557" d="M135 1008 L422 1008 L422 0 L135 0 L135 1008 Z M-28 1417 L587 1417 L587 1225 L-28 1225 L-28 1417 Z " />
<glyph glyph-name="ibreve" unicode="&#x12d;" horiz-adv-x="557" d="M135 1008 L422 1008 L422 0 L135 0 L135 1008 Z M603 1487 Q601 1413 579 1352.5 Q557 1292 516 1248.5 Q475 1205 415.5 1181 Q356 1157 280 1157 Q203 1157 143.5 1181 Q84 1205 43 1248.5 Q2 1292 -20 1352.5 Q-42 1413 -44 1487 L118 1487 Q120 1451 130 1418.5 Q140 1386 159 1361 Q178 1336 208 1321.5 Q238 1307 280 1307 Q322 1307 351.5 1321.5 Q381 1336 400 1361 Q419 1386 429 1418.5 Q439 1451 441 1487 L603 1487 Z " />
<glyph glyph-name="iogonek" unicode="&#x12f;" horiz-adv-x="557" d="M135 1008 L422 1008 L422 0 Q381 -26 351.5 -53.5 Q322 -81 303 -109 Q284 -137 275 -163 Q266 -189 266 -211 Q266 -249 290 -273 Q314 -297 362 -297 Q399 -297 449 -285 L449 -453 Q421 -461 383.5 -467 Q346 -473 309 -473 Q246 -473 195.5 -456 Q145 -439 109 -408.5 Q73 -378 54 -335.5 Q35 -293 35 -242 Q35 -179 62.5 -116 Q90 -53 135 0 L135 1008 Z M115 1335 Q115 1369 128 1398.5 Q141 1428 163 1450.5 Q185 1473 215 1486 Q245 1499 279 1499 Q313 1499 342.5 1486 Q372 1473 394 1450.5 Q416 1428 429 1398.5 Q442 1369 442 1335 Q442 1301 429 1271.5 Q416 1242 394 1219.5 Q372 1197 342.5 1184 Q313 1171 279 1171 Q245 1171 215 1184 Q185 1197 163 1219.5 Q141 1242 128 1271.5 Q115 1301 115 1335 Z " />
<glyph glyph-name="dotlessi" unicode="&#x131;" horiz-adv-x="557" d="M135 1008 L422 1008 L422 0 L135 0 L135 1008 Z " />
<glyph glyph-name="ij" unicode="&#x133;" horiz-adv-x="1120" d="M135 1008 L422 1008 L422 0 L135 0 L135 1008 Z M115 1335 Q115 1369 128 1398.5 Q141 1428 163 1450.5 Q185 1473 215 1486 Q245 1499 279 1499 Q313 1499 342.5 1486 Q372 1473 394 1450.5 Q416 1428 429 1398.5 Q442 1369 442 1335 Q442 1301 429 1271.5 Q416 1242 394 1219.5 Q372 1197 342.5 1184 Q313 1171 279 1171 Q245 1171 215 1184 Q185 1197 163 1219.5 Q141 1242 128 1271.5 Q115 1301 115 1335 Z M698 1008 L985 1008 L985 -43 Q985 -111 979.5 -161.5 Q974 -212 963 -250.5 Q952 -289 936 -317 Q920 -345 899 -367 Q871 -396 836 -416 Q801 -436 762 -449 Q723 -462 682 -467.5 Q641 -473 602 -473 Q560 -473 525 -468 Q490 -463 465 -457 L465 -219 Q491 -224 519.5 -226.5 Q548 -229 569 -229 Q611 -229 636 -217.5 Q661 -206 675 -184.5 Q689 -163 693.5 -131.5 Q698 -100 698 -61 L698 1008 Z M678 1335 Q678 1369 691 1398.5 Q704 1428 726.5 1450.5 Q749 1473 778.5 1486 Q808 1499 842 1499 Q876 1499 905.5 1486 Q935 1473 957.5 1450.5 Q980 1428 993 1398.5 Q1006 1369 1006 1335 Q1006 1301 993 1271.5 Q980 1242 957.5 1219.5 Q935 1197 905.5 1184 Q876 1171 842 1171 Q808 1171 778.5 1184 Q749 1197 726.5 1219.5 Q704 1242 691 1271.5 Q678 1301 678 1335 Z " />
<glyph glyph-name="dotlessj" unicode="&#x237;" horiz-adv-x="563" d="M141 1008 L428 1008 L428 -43 Q428 -111 422.5 -161.5 Q417 -212 406 -250.5 Q395 -289 379 -317 Q363 -345 342 -367 Q314 -396 279 -416 Q244 -436 205 -449 Q166 -462 125 -467.5 Q84 -473 45 -473 Q3 -473 -32 -468 Q-67 -463 -92 -457 L-92 -219 Q-66 -224 -37.5 -226.5 Q-9 -229 12 -229 Q54 -229 79 -217.5 Q104 -206 118 -184.5 Q132 -163 136.5 -131.5 Q141 -100 141 -61 L141 1008 Z " />
<glyph glyph-name="jcircumflex" unicode="&#x135;" horiz-adv-x="563" d="M141 1008 L428 1008 L428 -43 Q428 -111 422.5 -161.5 Q417 -212 406 -250.5 Q395 -289 379 -317 Q363 -345 342 -367 Q314 -396 279 -416 Q244 -436 205 -449 Q166 -462 125 -467.5 Q84 -473 45 -473 Q3 -473 -32 -468 Q-67 -463 -92 -457 L-92 -219 Q-66 -224 -37.5 -226.5 Q-9 -229 12 -229 Q54 -229 79 -217.5 Q104 -206 118 -184.5 Q132 -163 136.5 -131.5 Q141 -100 141 -61 L141 1008 Z M-79 1155 L286 1526 L290 1526 L654 1155 L427 1155 L288 1282 L148 1155 L-79 1155 Z " />
<glyph glyph-name="kcommaaccent" unicode="&#x137;" horiz-adv-x="1167" d="M135 1565 L422 1565 L422 578 L426 575 L797 1008 L1128 1008 L727 557 L1161 0 L817 0 L426 520 L422 518 L422 0 L135 0 L135 1565 Z M760 -111 L598 -557 L403 -557 L508 -111 L760 -111 Z " />
<glyph glyph-name="kgreenlandic" unicode="&#x138;" horiz-adv-x="1167" d="M135 1008 L422 1008 L422 578 L426 575 L797 1008 L1128 1008 L727 557 L1161 0 L817 0 L426 520 L422 518 L422 0 L135 0 L135 1008 Z " />
<glyph glyph-name="lacute" unicode="&#x13a;" horiz-adv-x="557" d="M135 1565 L422 1565 L422 0 L135 0 L135 1565 Z M341 1662 L142 1662 L310 1998 L574 1998 L341 1662 Z " />
<glyph glyph-name="lcaron" unicode="&#x13e;" horiz-adv-x="823" d="M135 1565 L422 1565 L422 0 L135 0 L135 1565 Z M875 1564 L713 1118 L518 1118 L623 1564 L875 1564 Z " />
<glyph glyph-name="lcommaaccent" unicode="&#x13c;" horiz-adv-x="557" d="M135 1565 L422 1565 L422 0 L135 0 L135 1565 Z M456 -111 L294 -557 L99 -557 L204 -111 L456 -111 Z " />
<glyph glyph-name="lslash" unicode="&#x142;" horiz-adv-x="594" d="M154 539 L-10 428 L-10 686 L154 797 L154 1565 L440 1565 L440 987 L604 1098 L604 840 L440 729 L440 0 L154 0 L154 539 Z " />
<glyph glyph-name="ldot" unicode="&#x140;" horiz-adv-x="842" d="M135 1565 L422 1565 L422 0 L135 0 L135 1565 Z M551 662 Q551 693 562.5 720 Q574 747 594 767.5 Q614 788 641 800 Q668 812 699 812 Q730 812 757 800 Q784 788 804 767.5 Q824 747 836 720 Q848 693 848 662 Q848 631 836 604.5 Q824 578 804 558 Q784 538 757 526.5 Q730 515 699 515 Q668 515 641 526.5 Q614 538 594 558 Q574 578 562.5 604.5 Q551 631 551 662 Z " />
<glyph glyph-name="nacute" unicode="&#x144;" horiz-adv-x="1227" d="M135 1008 L418 1008 L418 909 L422 907 Q482 958 563 994 Q644 1030 741 1030 Q825 1030 893.5 1003.5 Q962 977 1010 926 Q1054 878 1075 807.5 Q1096 737 1096 627 L1096 0 L809 0 L809 580 Q809 641 799.5 675.5 Q790 710 770 733 Q748 758 717.5 769 Q687 780 653 780 Q621 780 589 772 Q557 764 527 750 Q497 736 470 718 Q443 700 422 680 L422 0 L135 0 L135 1008 Z M652 1153 L453 1153 L621 1489 L885 1489 L652 1153 Z " />
<glyph glyph-name="ncaron" unicode="&#x148;" horiz-adv-x="1227" d="M135 1008 L418 1008 L418 909 L422 907 Q482 958 563 994 Q644 1030 741 1030 Q825 1030 893.5 1003.5 Q962 977 1010 926 Q1054 878 1075 807.5 Q1096 737 1096 627 L1096 0 L809 0 L809 580 Q809 641 799.5 675.5 Q790 710 770 733 Q748 758 717.5 769 Q687 780 653 780 Q621 780 589 772 Q557 764 527 750 Q497 736 470 718 Q443 700 422 680 L422 0 L135 0 L135 1008 Z M977 1487 L613 1116 L609 1116 L244 1487 L471 1487 L611 1360 L750 1487 L977 1487 Z " />
<glyph glyph-name="ntilde" unicode="&#xf1;" horiz-adv-x="1227" d="M135 1008 L418 1008 L418 909 L422 907 Q482 958 563 994 Q644 1030 741 1030 Q825 1030 893.5 1003.5 Q962 977 1010 926 Q1054 878 1075 807.5 Q1096 737 1096 627 L1096 0 L809 0 L809 580 Q809 641 799.5 675.5 Q790 710 770 733 Q748 758 717.5 769 Q687 780 653 780 Q621 780 589 772 Q557 764 527 750 Q497 736 470 718 Q443 700 422 680 L422 0 L135 0 L135 1008 Z M275 1391 Q304 1423 349.5 1445.5 Q395 1468 455 1468 Q533 1468 627 1419 Q671 1396 701 1384 Q731 1372 766 1372 Q796 1372 821 1381 Q846 1390 867.5 1404 Q889 1418 907.5 1436.5 Q926 1455 942 1475 L946 1473 L946 1255 Q917 1223 871.5 1200.5 Q826 1178 766 1178 Q689 1178 594 1227 Q550 1249 520 1261.5 Q490 1274 455 1274 Q425 1274 400 1265 Q375 1256 353.5 1242 Q332 1228 313.5 1209 Q295 1190 279 1171 L275 1174 L275 1391 Z " />
<glyph glyph-name="ncommaaccent" unicode="&#x146;" horiz-adv-x="1227" d="M135 1008 L418 1008 L418 909 L422 907 Q482 958 563 994 Q644 1030 741 1030 Q825 1030 893.5 1003.5 Q962 977 1010 926 Q1054 878 1075 807.5 Q1096 737 1096 627 L1096 0 L809 0 L809 580 Q809 641 799.5 675.5 Q790 710 770 733 Q748 758 717.5 769 Q687 780 653 780 Q621 780 589 772 Q557 764 527 750 Q497 736 470 718 Q443 700 422 680 L422 0 L135 0 L135 1008 Z M787 -111 L625 -557 L430 -557 L535 -111 L787 -111 Z " />
<glyph glyph-name="napostrophe" unicode="&#x149;" horiz-adv-x="1227" d="M135 1008 L418 1008 L418 909 L422 907 Q482 958 563 994 Q644 1030 741 1030 Q825 1030 893.5 1003.5 Q962 977 1010 926 Q1054 878 1075 807.5 Q1096 737 1096 627 L1096 0 L809 0 L809 580 Q809 641 799.5 675.5 Q790 710 770 733 Q748 758 717.5 769 Q687 780 653 780 Q621 780 589 772 Q557 764 527 750 Q497 736 470 718 Q443 700 422 680 L422 0 L135 0 L135 1008 Z M472 1581 L310 1135 L115 1135 L220 1581 L472 1581 Z " />
<glyph glyph-name="ograve" unicode="&#xf2;" horiz-adv-x="1253" d="M72 504 Q72 615 113.5 711.5 Q155 808 229.5 878.5 Q304 949 405.5 989.5 Q507 1030 627 1030 Q746 1030 847.5 989.5 Q949 949 1023.5 878.5 Q1098 808 1140 711.5 Q1182 615 1182 504 Q1182 393 1140 296.5 Q1098 200 1023.5 129 Q949 58 847.5 17.5 Q746 -23 627 -23 Q507 -23 405.5 17.5 Q304 58 229.5 129 Q155 200 113.5 296.5 Q72 393 72 504 Z M358 504 Q358 445 378.5 394.5 Q399 344 435 306 Q471 268 520 246.5 Q569 225 627 225 Q684 225 733 246.5 Q782 268 818 306 Q854 344 874.5 394.5 Q895 445 895 504 Q895 562 874.5 613 Q854 664 818 701.5 Q782 739 733 760.5 Q684 782 627 782 Q569 782 520 760.5 Q471 739 435 701.5 Q399 664 378.5 613 Q358 562 358 504 Z M352 1489 L616 1489 L784 1153 L586 1153 L352 1489 Z " />
<glyph glyph-name="oacute" unicode="&#xf3;" horiz-adv-x="1253" d="M72 504 Q72 615 113.5 711.5 Q155 808 229.5 878.5 Q304 949 405.5 989.5 Q507 1030 627 1030 Q746 1030 847.5 989.5 Q949 949 1023.5 878.5 Q1098 808 1140 711.5 Q1182 615 1182 504 Q1182 393 1140 296.5 Q1098 200 1023.5 129 Q949 58 847.5 17.5 Q746 -23 627 -23 Q507 -23 405.5 17.5 Q304 58 229.5 129 Q155 200 113.5 296.5 Q72 393 72 504 Z M358 504 Q358 445 378.5 394.5 Q399 344 435 306 Q471 268 520 246.5 Q569 225 627 225 Q684 225 733 246.5 Q782 268 818 306 Q854 344 874.5 394.5 Q895 445 895 504 Q895 562 874.5 613 Q854 664 818 701.5 Q782 739 733 760.5 Q684 782 627 782 Q569 782 520 760.5 Q471 739 435 701.5 Q399 664 378.5 613 Q358 562 358 504 Z M668 1153 L469 1153 L637 1489 L901 1489 L668 1153 Z " />
<glyph glyph-name="ocircumflex" unicode="&#xf4;" horiz-adv-x="1253" d="M72 504 Q72 615 113.5 711.5 Q155 808 229.5 878.5 Q304 949 405.5 989.5 Q507 1030 627 1030 Q746 1030 847.5 989.5 Q949 949 1023.5 878.5 Q1098 808 1140 711.5 Q1182 615 1182 504 Q1182 393 1140 296.5 Q1098 200 1023.5 129 Q949 58 847.5 17.5 Q746 -23 627 -23 Q507 -23 405.5 17.5 Q304 58 229.5 129 Q155 200 113.5 296.5 Q72 393 72 504 Z M358 504 Q358 445 378.5 394.5 Q399 344 435 306 Q471 268 520 246.5 Q569 225 627 225 Q684 225 733 246.5 Q782 268 818 306 Q854 344 874.5 394.5 Q895 445 895 504 Q895 562 874.5 613 Q854 664 818 701.5 Q782 739 733 760.5 Q684 782 627 782 Q569 782 520 760.5 Q471 739 435 701.5 Q399 664 378.5 613 Q358 562 358 504 Z M260 1155 L625 1526 L629 1526 L993 1155 L766 1155 L627 1282 L487 1155 L260 1155 Z " />
<glyph glyph-name="otilde" unicode="&#xf5;" horiz-adv-x="1253" d="M72 504 Q72 615 113.5 711.5 Q155 808 229.5 878.5 Q304 949 405.5 989.5 Q507 1030 627 1030 Q746 1030 847.5 989.5 Q949 949 1023.5 878.5 Q1098 808 1140 711.5 Q1182 615 1182 504 Q1182 393 1140 296.5 Q1098 200 1023.5 129 Q949 58 847.5 17.5 Q746 -23 627 -23 Q507 -23 405.5 17.5 Q304 58 229.5 129 Q155 200 113.5 296.5 Q72 393 72 504 Z M358 504 Q358 445 378.5 394.5 Q399 344 435 306 Q471 268 520 246.5 Q569 225 627 225 Q684 225 733 246.5 Q782 268 818 306 Q854 344 874.5 394.5 Q895 445 895 504 Q895 562 874.5 613 Q854 664 818 701.5 Q782 739 733 760.5 Q684 782 627 782 Q569 782 520 760.5 Q471 739 435 701.5 Q399 664 378.5 613 Q358 562 358 504 Z M291 1391 Q320 1423 365.5 1445.5 Q411 1468 471 1468 Q549 1468 643 1419 Q687 1396 717 1384 Q747 1372 782 1372 Q812 1372 837 1381 Q862 1390 883.5 1404 Q905 1418 923.5 1436.5 Q942 1455 958 1475 L962 1473 L962 1255 Q933 1223 887.5 1200.5 Q842 1178 782 1178 Q705 1178 610 1227 Q566 1249 536 1261.5 Q506 1274 471 1274 Q441 1274 416 1265 Q391 1256 369.5 1242 Q348 1228 329.5 1209 Q311 1190 295 1171 L291 1174 L291 1391 Z " />
<glyph glyph-name="odieresis" unicode="&#xf6;" horiz-adv-x="1253" d="M72 504 Q72 615 113.5 711.5 Q155 808 229.5 878.5 Q304 949 405.5 989.5 Q507 1030 627 1030 Q746 1030 847.5 989.5 Q949 949 1023.5 878.5 Q1098 808 1140 711.5 Q1182 615 1182 504 Q1182 393 1140 296.5 Q1098 200 1023.5 129 Q949 58 847.5 17.5 Q746 -23 627 -23 Q507 -23 405.5 17.5 Q304 58 229.5 129 Q155 200 113.5 296.5 Q72 393 72 504 Z M358 504 Q358 445 378.5 394.5 Q399 344 435 306 Q471 268 520 246.5 Q569 225 627 225 Q684 225 733 246.5 Q782 268 818 306 Q854 344 874.5 394.5 Q895 445 895 504 Q895 562 874.5 613 Q854 664 818 701.5 Q782 739 733 760.5 Q684 782 627 782 Q569 782 520 760.5 Q471 739 435 701.5 Q399 664 378.5 613 Q358 562 358 504 Z M254 1325 Q254 1356 265.5 1383 Q277 1410 297 1430.5 Q317 1451 343.5 1463 Q370 1475 401 1475 Q432 1475 459 1463 Q486 1451 506.5 1430.5 Q527 1410 539 1383 Q551 1356 551 1325 Q551 1294 539 1267.5 Q527 1241 506.5 1221 Q486 1201 459 1189.5 Q432 1178 401 1178 Q370 1178 343.5 1189.5 Q317 1201 297 1221 Q277 1241 265.5 1267.5 Q254 1294 254 1325 Z M702 1325 Q702 1356 713.5 1383 Q725 1410 745 1430.5 Q765 1451 792 1463 Q819 1475 850 1475 Q881 1475 908 1463 Q935 1451 955 1430.5 Q975 1410 987 1383 Q999 1356 999 1325 Q999 1294 987 1267.5 Q975 1241 955 1221 Q935 1201 908 1189.5 Q881 1178 850 1178 Q819 1178 792 1189.5 Q765 1201 745 1221 Q725 1241 713.5 1267.5 Q702 1294 702 1325 Z " />
<glyph glyph-name="omacron" unicode="&#x14d;" horiz-adv-x="1253" d="M72 504 Q72 615 113.5 711.5 Q155 808 229.5 878.5 Q304 949 405.5 989.5 Q507 1030 627 1030 Q746 1030 847.5 989.5 Q949 949 1023.5 878.5 Q1098 808 1140 711.5 Q1182 615 1182 504 Q1182 393 1140 296.5 Q1098 200 1023.5 129 Q949 58 847.5 17.5 Q746 -23 627 -23 Q507 -23 405.5 17.5 Q304 58 229.5 129 Q155 200 113.5 296.5 Q72 393 72 504 Z M358 504 Q358 445 378.5 394.5 Q399 344 435 306 Q471 268 520 246.5 Q569 225 627 225 Q684 225 733 246.5 Q782 268 818 306 Q854 344 874.5 394.5 Q895 445 895 504 Q895 562 874.5 613 Q854 664 818 701.5 Q782 739 733 760.5 Q684 782 627 782 Q569 782 520 760.5 Q471 739 435 701.5 Q399 664 378.5 613 Q358 562 358 504 Z M319 1417 L934 1417 L934 1225 L319 1225 L319 1417 Z " />
<glyph glyph-name="obreve" unicode="&#x14f;" horiz-adv-x="1253" d="M72 504 Q72 615 113.5 711.5 Q155 808 229.5 878.5 Q304 949 405.5 989.5 Q507 1030 627 1030 Q746 1030 847.5 989.5 Q949 949 1023.5 878.5 Q1098 808 1140 711.5 Q1182 615 1182 504 Q1182 393 1140 296.5 Q1098 200 1023.5 129 Q949 58 847.5 17.5 Q746 -23 627 -23 Q507 -23 405.5 17.5 Q304 58 229.5 129 Q155 200 113.5 296.5 Q72 393 72 504 Z M358 504 Q358 445 378.5 394.5 Q399 344 435 306 Q471 268 520 246.5 Q569 225 627 225 Q684 225 733 246.5 Q782 268 818 306 Q854 344 874.5 394.5 Q895 445 895 504 Q895 562 874.5 613 Q854 664 818 701.5 Q782 739 733 760.5 Q684 782 627 782 Q569 782 520 760.5 Q471 739 435 701.5 Q399 664 378.5 613 Q358 562 358 504 Z M950 1487 Q948 1413 926 1352.5 Q904 1292 863 1248.5 Q822 1205 762.5 1181 Q703 1157 627 1157 Q550 1157 490.5 1181 Q431 1205 390 1248.5 Q349 1292 327 1352.5 Q305 1413 303 1487 L465 1487 Q467 1451 477 1418.5 Q487 1386 506 1361 Q525 1336 555 1321.5 Q585 1307 627 1307 Q669 1307 698.5 1321.5 Q728 1336 747 1361 Q766 1386 776 1418.5 Q786 1451 788 1487 L950 1487 Z " />
<glyph glyph-name="ohungarumlaut" unicode="&#x151;" horiz-adv-x="1253" d="M72 504 Q72 615 113.5 711.5 Q155 808 229.5 878.5 Q304 949 405.5 989.5 Q507 1030 627 1030 Q746 1030 847.5 989.5 Q949 949 1023.5 878.5 Q1098 808 1140 711.5 Q1182 615 1182 504 Q1182 393 1140 296.5 Q1098 200 1023.5 129 Q949 58 847.5 17.5 Q746 -23 627 -23 Q507 -23 405.5 17.5 Q304 58 229.5 129 Q155 200 113.5 296.5 Q72 393 72 504 Z M358 504 Q358 445 378.5 394.5 Q399 344 435 306 Q471 268 520 246.5 Q569 225 627 225 Q684 225 733 246.5 Q782 268 818 306 Q854 344 874.5 394.5 Q895 445 895 504 Q895 562 874.5 613 Q854 664 818 701.5 Q782 739 733 760.5 Q684 782 627 782 Q569 782 520 760.5 Q471 739 435 701.5 Q399 664 378.5 613 Q358 562 358 504 Z M475 1489 L688 1489 L485 1153 L319 1153 L475 1489 Z M799 1489 L1012 1489 L809 1153 L643 1153 L799 1489 Z " />
<glyph glyph-name="oslash" unicode="&#xf8;" horiz-adv-x="1253" d="M498 256 Q526 241 559 232 Q592 223 627 223 Q685 223 734.5 244.5 Q784 266 820 304 Q856 342 876.5 393.5 Q897 445 897 504 Q897 593 852 664 L498 256 Z M756 752 Q728 767 695 775.5 Q662 784 627 784 Q568 784 518.5 762.5 Q469 741 433 703.5 Q397 666 376.5 614.5 Q356 563 356 504 Q356 459 368 418.5 Q380 378 401 344 L756 752 Z M1030 870 Q1101 799 1141.5 706 Q1182 613 1182 504 Q1182 393 1140 296.5 Q1098 200 1023.5 129 Q949 58 847.5 17.5 Q746 -23 627 -23 Q542 -23 465.5 -2 Q389 19 326 57 L229 -53 L129 29 L223 137 Q151 206 111.5 300 Q72 394 72 504 Q72 615 113.5 711.5 Q155 808 229.5 878.5 Q304 949 405.5 989.5 Q507 1030 627 1030 Q712 1030 787.5 1009 Q863 988 928 950 L1024 1061 L1124 979 L1030 870 Z " />
<glyph glyph-name="oslashacute" unicode="&#x1ff;" horiz-adv-x="1253" d="M498 256 Q526 241 559 232 Q592 223 627 223 Q685 223 734.5 244.5 Q784 266 820 304 Q856 342 876.5 393.5 Q897 445 897 504 Q897 593 852 664 L498 256 Z M756 752 Q728 767 695 775.5 Q662 784 627 784 Q568 784 518.5 762.5 Q469 741 433 703.5 Q397 666 376.5 614.5 Q356 563 356 504 Q356 459 368 418.5 Q380 378 401 344 L756 752 Z M1030 870 Q1101 799 1141.5 706 Q1182 613 1182 504 Q1182 393 1140 296.5 Q1098 200 1023.5 129 Q949 58 847.5 17.5 Q746 -23 627 -23 Q542 -23 465.5 -2 Q389 19 326 57 L229 -53 L129 29 L223 137 Q151 206 111.5 300 Q72 394 72 504 Q72 615 113.5 711.5 Q155 808 229.5 878.5 Q304 949 405.5 989.5 Q507 1030 627 1030 Q712 1030 787.5 1009 Q863 988 928 950 L1024 1061 L1124 979 L1030 870 Z M666 1153 L467 1153 L635 1489 L899 1489 L666 1153 Z " />
<glyph glyph-name="oe" unicode="&#x153;" horiz-adv-x="1958" d="M1614 614 Q1606 666 1585.5 702.5 Q1565 739 1536.5 762 Q1508 785 1473.5 796 Q1439 807 1403 807 Q1319 807 1260.5 757 Q1202 707 1182 614 L1614 614 Z M623 225 Q680 225 728 246.5 Q776 268 811.5 305 Q847 342 867 392.5 Q887 443 887 502 Q887 561 866.5 612 Q846 663 810.5 701 Q775 739 726.5 760.5 Q678 782 621 782 Q564 782 516 761 Q468 740 432.5 702.5 Q397 665 377.5 614.5 Q358 564 358 506 Q358 447 377.5 395.5 Q397 344 432.5 306 Q468 268 516.5 246.5 Q565 225 623 225 Z M1028 848 Q1102 938 1203.5 984 Q1305 1030 1419 1030 Q1510 1030 1593.5 999 Q1677 968 1741 905.5 Q1805 843 1842.5 749.5 Q1880 656 1880 532 Q1880 508 1878.5 477.5 Q1877 447 1874 428 L1182 428 Q1196 363 1228 320.5 Q1260 278 1302.5 252 Q1345 226 1393.5 215.5 Q1442 205 1489 205 Q1574 205 1660 234 Q1746 263 1825 317 L1825 70 Q1789 47 1744.5 30 Q1700 13 1651.5 1 Q1603 -11 1552 -17 Q1501 -23 1452 -23 Q1318 -23 1209 23.5 Q1100 70 1028 158 L1024 158 Q952 73 848 25 Q744 -23 616 -23 Q499 -23 399.5 17.5 Q300 58 227.5 128.5 Q155 199 113.5 295.5 Q72 392 72 504 Q72 615 113.5 711.5 Q155 808 227.5 878.5 Q300 949 399.5 989.5 Q499 1030 616 1030 Q746 1030 849.5 981.5 Q953 933 1024 848 L1028 848 Z " />
<glyph glyph-name="racute" unicode="&#x155;" horiz-adv-x="813" d="M135 1008 L416 1008 L416 870 L420 868 Q472 943 547 981.5 Q622 1020 715 1020 Q730 1020 746.5 1018.5 Q763 1017 780 1012 L780 739 Q762 744 741 747 Q720 750 698 750 Q612 750 544 719 Q476 688 422 618 L422 0 L135 0 L135 1008 Z M440 1153 L241 1153 L409 1489 L673 1489 L440 1153 Z " />
<glyph glyph-name="rcaron" unicode="&#x159;" horiz-adv-x="813" d="M135 1008 L416 1008 L416 870 L420 868 Q472 943 547 981.5 Q622 1020 715 1020 Q730 1020 746.5 1018.5 Q763 1017 780 1012 L780 739 Q762 744 741 747 Q720 750 698 750 Q612 750 544 719 Q476 688 422 618 L422 0 L135 0 L135 1008 Z M765 1487 L401 1116 L397 1116 L32 1487 L259 1487 L399 1360 L538 1487 L765 1487 Z " />
<glyph glyph-name="rcommaaccent" unicode="&#x157;" horiz-adv-x="813" d="M135 1008 L416 1008 L416 870 L420 868 Q472 943 547 981.5 Q622 1020 715 1020 Q730 1020 746.5 1018.5 Q763 1017 780 1012 L780 739 Q762 744 741 747 Q720 750 698 750 Q612 750 544 719 Q476 688 422 618 L422 0 L135 0 L135 1008 Z M478 -111 L316 -557 L121 -557 L226 -111 L478 -111 Z " />
<glyph glyph-name="sacute" unicode="&#x15b;" horiz-adv-x="983" d="M102 319 Q151 289 203 267.5 Q255 246 305 231.5 Q355 217 400.5 210 Q446 203 481 203 Q549 203 588 224.5 Q627 246 627 293 Q627 324 607 341.5 Q587 359 552.5 370 Q518 381 471.5 389.5 Q425 398 373 412 Q305 429 250.5 453 Q196 477 157 511.5 Q118 546 97 592.5 Q76 639 76 702 Q76 780 108 841 Q140 902 196 944 Q252 986 328.5 1008 Q405 1030 494 1030 Q537 1030 584.5 1025 Q632 1020 679.5 1010 Q727 1000 772.5 985 Q818 970 858 950 L858 698 Q810 726 760.5 746 Q711 766 664 779 Q617 792 575 798.5 Q533 805 500 805 Q437 805 399.5 784 Q362 763 362 723 Q362 694 380.5 678 Q399 662 432 651.5 Q465 641 510.5 632.5 Q556 624 610 610 Q679 593 734.5 569.5 Q790 546 830 511.5 Q870 477 891.5 428.5 Q913 380 913 313 Q913 232 880 169 Q847 106 789.5 63.5 Q732 21 653 -1 Q574 -23 483 -23 Q436 -23 386.5 -17.5 Q337 -12 287.5 -1.5 Q238 9 191 24.5 Q144 40 102 61 L102 319 Z M534 1153 L335 1153 L503 1489 L767 1489 L534 1153 Z " />
<glyph glyph-name="scircumflex" unicode="&#x15d;" horiz-adv-x="983" d="M102 319 Q151 289 203 267.5 Q255 246 305 231.5 Q355 217 400.5 210 Q446 203 481 203 Q549 203 588 224.5 Q627 246 627 293 Q627 324 607 341.5 Q587 359 552.5 370 Q518 381 471.5 389.5 Q425 398 373 412 Q305 429 250.5 453 Q196 477 157 511.5 Q118 546 97 592.5 Q76 639 76 702 Q76 780 108 841 Q140 902 196 944 Q252 986 328.5 1008 Q405 1030 494 1030 Q537 1030 584.5 1025 Q632 1020 679.5 1010 Q727 1000 772.5 985 Q818 970 858 950 L858 698 Q810 726 760.5 746 Q711 766 664 779 Q617 792 575 798.5 Q533 805 500 805 Q437 805 399.5 784 Q362 763 362 723 Q362 694 380.5 678 Q399 662 432 651.5 Q465 641 510.5 632.5 Q556 624 610 610 Q679 593 734.5 569.5 Q790 546 830 511.5 Q870 477 891.5 428.5 Q913 380 913 313 Q913 232 880 169 Q847 106 789.5 63.5 Q732 21 653 -1 Q574 -23 483 -23 Q436 -23 386.5 -17.5 Q337 -12 287.5 -1.5 Q238 9 191 24.5 Q144 40 102 61 L102 319 Z M126 1155 L491 1526 L495 1526 L859 1155 L632 1155 L493 1282 L353 1155 L126 1155 Z " />
<glyph glyph-name="scaron" unicode="&#x161;" horiz-adv-x="983" d="M102 319 Q151 289 203 267.5 Q255 246 305 231.5 Q355 217 400.5 210 Q446 203 481 203 Q549 203 588 224.5 Q627 246 627 293 Q627 324 607 341.5 Q587 359 552.5 370 Q518 381 471.5 389.5 Q425 398 373 412 Q305 429 250.5 453 Q196 477 157 511.5 Q118 546 97 592.5 Q76 639 76 702 Q76 780 108 841 Q140 902 196 944 Q252 986 328.5 1008 Q405 1030 494 1030 Q537 1030 584.5 1025 Q632 1020 679.5 1010 Q727 1000 772.5 985 Q818 970 858 950 L858 698 Q810 726 760.5 746 Q711 766 664 779 Q617 792 575 798.5 Q533 805 500 805 Q437 805 399.5 784 Q362 763 362 723 Q362 694 380.5 678 Q399 662 432 651.5 Q465 641 510.5 632.5 Q556 624 610 610 Q679 593 734.5 569.5 Q790 546 830 511.5 Q870 477 891.5 428.5 Q913 380 913 313 Q913 232 880 169 Q847 106 789.5 63.5 Q732 21 653 -1 Q574 -23 483 -23 Q436 -23 386.5 -17.5 Q337 -12 287.5 -1.5 Q238 9 191 24.5 Q144 40 102 61 L102 319 Z M859 1487 L495 1116 L491 1116 L126 1487 L353 1487 L493 1360 L632 1487 L859 1487 Z " />
<glyph glyph-name="scedilla" unicode="&#x15f;" horiz-adv-x="983" d="M858 698 Q810 726 760.5 746 Q711 766 664 779 Q617 792 575 798.5 Q533 805 500 805 Q437 805 399.5 784 Q362 763 362 723 Q362 694 380.5 678 Q399 662 432 651.5 Q465 641 510.5 632.5 Q556 624 610 610 Q679 593 734.5 569.5 Q790 546 830 511.5 Q870 477 891.5 428.5 Q913 380 913 313 Q913 239 886 180.5 Q859 122 810 80 Q761 38 694 12.5 Q627 -13 547 -20 L528 -78 Q613 -95 661 -142.5 Q709 -190 709 -264 Q709 -306 692.5 -341 Q676 -376 646 -401 Q616 -426 574 -439.5 Q532 -453 481 -453 Q429 -453 384 -441 Q339 -429 305 -414 L346 -285 Q378 -302 413 -313 Q448 -324 479 -324 Q511 -324 537 -309.5 Q563 -295 563 -266 Q563 -240 543 -223.5 Q523 -207 494.5 -197.5 Q466 -188 434.5 -184 Q403 -180 379 -178 L428 -20 Q344 -15 259 5.5 Q174 26 102 61 L102 319 Q151 289 203 267.5 Q255 246 305 231.5 Q355 217 400.5 210 Q446 203 481 203 Q549 203 588 224.5 Q627 246 627 293 Q627 324 607 341.5 Q587 359 552.5 370 Q518 381 471.5 389.5 Q425 398 373 412 Q305 429 250.5 453 Q196 477 157 511.5 Q118 546 97 592.5 Q76 639 76 702 Q76 780 108 841 Q140 902 196 944 Q252 986 328.5 1008 Q405 1030 494 1030 Q537 1030 584.5 1025 Q632 1020 679.5 1010 Q727 1000 772.5 985 Q818 970 858 950 L858 698 Z " />
<glyph glyph-name="scommaaccent" unicode="&#x219;" horiz-adv-x="983" d="M102 319 Q151 289 203 267.5 Q255 246 305 231.5 Q355 217 400.5 210 Q446 203 481 203 Q549 203 588 224.5 Q627 246 627 293 Q627 324 607 341.5 Q587 359 552.5 370 Q518 381 471.5 389.5 Q425 398 373 412 Q305 429 250.5 453 Q196 477 157 511.5 Q118 546 97 592.5 Q76 639 76 702 Q76 780 108 841 Q140 902 196 944 Q252 986 328.5 1008 Q405 1030 494 1030 Q537 1030 584.5 1025 Q632 1020 679.5 1010 Q727 1000 772.5 985 Q818 970 858 950 L858 698 Q810 726 760.5 746 Q711 766 664 779 Q617 792 575 798.5 Q533 805 500 805 Q437 805 399.5 784 Q362 763 362 723 Q362 694 380.5 678 Q399 662 432 651.5 Q465 641 510.5 632.5 Q556 624 610 610 Q679 593 734.5 569.5 Q790 546 830 511.5 Q870 477 891.5 428.5 Q913 380 913 313 Q913 232 880 169 Q847 106 789.5 63.5 Q732 21 653 -1 Q574 -23 483 -23 Q436 -23 386.5 -17.5 Q337 -12 287.5 -1.5 Q238 9 191 24.5 Q144 40 102 61 L102 319 Z M669 -111 L507 -557 L312 -557 L417 -111 L669 -111 Z " />
<glyph glyph-name="germandbls" unicode="&#xdf;" horiz-adv-x="1313" d="M135 1147 Q135 1259 176.5 1346 Q218 1433 293 1489 Q356 1535 441 1561 Q526 1587 631 1587 Q732 1587 822.5 1561.5 Q913 1536 981 1485.5 Q1049 1435 1088.5 1360.5 Q1128 1286 1128 1188 Q1128 1086 1082.5 1006.5 Q1037 927 944 879 L944 874 Q1091 831 1170 724.5 Q1249 618 1249 465 Q1249 354 1207.5 264 Q1166 174 1094.5 110.5 Q1023 47 926.5 12 Q830 -23 719 -23 Q663 -23 615 -14 Q567 -5 526 10 L526 268 Q612 225 707 225 Q766 225 813.5 243.5 Q861 262 894 294 Q927 326 945 370.5 Q963 415 963 467 Q963 521 944 565 Q925 609 889.5 640.5 Q854 672 803.5 689.5 Q753 707 690 707 L592 707 L592 944 L649 944 Q696 944 732 959.5 Q768 975 792.5 1002.5 Q817 1030 829.5 1067 Q842 1104 842 1147 Q842 1243 784 1291 Q726 1339 629 1339 Q538 1339 483 1290 Q454 1264 438 1223 Q422 1182 422 1128 L422 0 L135 0 L135 1147 Z " />
<glyph glyph-name="tcaron" unicode="&#x165;" horiz-adv-x="858" d="M467 768 L467 418 Q467 367 474.5 332.5 Q482 298 504 272 Q546 221 631 221 Q676 221 719 233.5 Q762 246 799 264 L799 33 Q752 8 687 -7.5 Q622 -23 551 -23 Q461 -23 392.5 2 Q324 27 274 80 Q251 104 234 133.5 Q217 163 205.5 199.5 Q194 236 188 282 Q182 328 182 387 L182 768 L-25 768 L-27 772 L463 1296 L467 1294 L467 1008 L801 1008 L801 768 L467 768 Z M953 1581 L791 1135 L596 1135 L701 1581 L953 1581 Z " />
<glyph glyph-name="tcommaaccent" unicode="&#x163;" horiz-adv-x="858" d="M467 768 L467 418 Q467 367 474.5 332.5 Q482 298 504 272 Q546 221 631 221 Q676 221 719 233.5 Q762 246 799 264 L799 33 Q752 8 687 -7.5 Q622 -23 551 -23 L520 -23 L502 -78 Q587 -95 634.5 -142.5 Q682 -190 682 -264 Q682 -306 666 -341 Q650 -376 620 -401 Q590 -426 548 -439.5 Q506 -453 455 -453 Q402 -453 357.5 -441 Q313 -429 279 -414 L319 -285 Q351 -302 386.5 -313 Q422 -324 453 -324 Q485 -324 511 -309.5 Q537 -295 537 -266 Q537 -240 517 -223.5 Q497 -207 468.5 -197.5 Q440 -188 408 -184 Q376 -180 352 -178 L408 -2 Q367 10 334.5 30.5 Q302 51 274 80 Q251 104 234 133.5 Q217 163 205.5 199.5 Q194 236 188 282 Q182 328 182 387 L182 768 L-25 768 L-27 772 L463 1296 L467 1294 L467 1008 L801 1008 L801 768 L467 768 Z " />
<glyph glyph-name="uni021B" unicode="&#x21b;" horiz-adv-x="858" d="M467 768 L467 418 Q467 367 474.5 332.5 Q482 298 504 272 Q546 221 631 221 Q676 221 719 233.5 Q762 246 799 264 L799 33 Q752 8 687 -7.5 Q622 -23 551 -23 Q461 -23 392.5 2 Q324 27 274 80 Q251 104 234 133.5 Q217 163 205.5 199.5 Q194 236 188 282 Q182 328 182 387 L182 768 L-25 768 L-27 772 L463 1296 L467 1294 L467 1008 L801 1008 L801 768 L467 768 Z M620 -111 L458 -557 L263 -557 L368 -111 L620 -111 Z " />
<glyph glyph-name="tbar" unicode="&#x167;" horiz-adv-x="858" d="M467 780 L467 633 L801 633 L801 406 L467 406 Q469 359 476.5 327 Q484 295 504 272 Q527 246 558 233.5 Q589 221 633 221 Q678 221 720 233.5 Q762 246 799 264 L799 33 Q754 8 688 -7.5 Q622 -23 551 -23 Q463 -23 394.5 2 Q326 27 276 80 Q253 104 235.5 133.5 Q218 163 206 199.5 Q194 236 188 282 Q182 328 182 387 L182 406 L-25 406 L-27 410 L182 633 L182 780 L-25 780 L-27 784 L463 1296 L467 1294 L467 1008 L801 1008 L801 780 L467 780 Z " />
<glyph glyph-name="ugrave" unicode="&#xf9;" horiz-adv-x="1229" d="M807 102 Q747 49 668.5 13 Q590 -23 492 -23 Q405 -23 337.5 4.5 Q270 32 225 80 Q178 130 155.5 203.5 Q133 277 133 387 L133 1008 L420 1008 L420 432 Q420 372 430.5 334.5 Q441 297 461 274 Q484 248 516 236.5 Q548 225 582 225 Q614 225 646 233.5 Q678 242 707 256.5 Q736 271 761.5 290.5 Q787 310 807 332 L807 1008 L1094 1008 L1094 0 L811 0 L811 100 L807 102 Z M340 1489 L604 1489 L772 1153 L574 1153 L340 1489 Z " />
<glyph glyph-name="uacute" unicode="&#xfa;" horiz-adv-x="1229" d="M807 102 Q747 49 668.5 13 Q590 -23 492 -23 Q405 -23 337.5 4.5 Q270 32 225 80 Q178 130 155.5 203.5 Q133 277 133 387 L133 1008 L420 1008 L420 432 Q420 372 430.5 334.5 Q441 297 461 274 Q484 248 516 236.5 Q548 225 582 225 Q614 225 646 233.5 Q678 242 707 256.5 Q736 271 761.5 290.5 Q787 310 807 332 L807 1008 L1094 1008 L1094 0 L811 0 L811 100 L807 102 Z M656 1153 L457 1153 L625 1489 L889 1489 L656 1153 Z " />
<glyph glyph-name="ucircumflex" unicode="&#xfb;" horiz-adv-x="1229" d="M807 102 Q747 49 668.5 13 Q590 -23 492 -23 Q405 -23 337.5 4.5 Q270 32 225 80 Q178 130 155.5 203.5 Q133 277 133 387 L133 1008 L420 1008 L420 432 Q420 372 430.5 334.5 Q441 297 461 274 Q484 248 516 236.5 Q548 225 582 225 Q614 225 646 233.5 Q678 242 707 256.5 Q736 271 761.5 290.5 Q787 310 807 332 L807 1008 L1094 1008 L1094 0 L811 0 L811 100 L807 102 Z M248 1155 L613 1526 L617 1526 L981 1155 L754 1155 L615 1282 L475 1155 L248 1155 Z " />
<glyph glyph-name="utilde" unicode="&#x169;" horiz-adv-x="1229" d="M807 102 Q747 49 668.5 13 Q590 -23 492 -23 Q405 -23 337.5 4.5 Q270 32 225 80 Q178 130 155.5 203.5 Q133 277 133 387 L133 1008 L420 1008 L420 432 Q420 372 430.5 334.5 Q441 297 461 274 Q484 248 516 236.5 Q548 225 582 225 Q614 225 646 233.5 Q678 242 707 256.5 Q736 271 761.5 290.5 Q787 310 807 332 L807 1008 L1094 1008 L1094 0 L811 0 L811 100 L807 102 Z M279 1391 Q308 1423 353.5 1445.5 Q399 1468 459 1468 Q537 1468 631 1419 Q675 1396 705 1384 Q735 1372 770 1372 Q800 1372 825 1381 Q850 1390 871.5 1404 Q893 1418 911.5 1436.5 Q930 1455 946 1475 L950 1473 L950 1255 Q921 1223 875.5 1200.5 Q830 1178 770 1178 Q693 1178 598 1227 Q554 1249 524 1261.5 Q494 1274 459 1274 Q429 1274 404 1265 Q379 1256 357.5 1242 Q336 1228 317.5 1209 Q299 1190 283 1171 L279 1174 L279 1391 Z " />
<glyph glyph-name="udieresis" unicode="&#xfc;" horiz-adv-x="1229" d="M807 102 Q747 49 668.5 13 Q590 -23 492 -23 Q405 -23 337.5 4.5 Q270 32 225 80 Q178 130 155.5 203.5 Q133 277 133 387 L133 1008 L420 1008 L420 432 Q420 372 430.5 334.5 Q441 297 461 274 Q484 248 516 236.5 Q548 225 582 225 Q614 225 646 233.5 Q678 242 707 256.5 Q736 271 761.5 290.5 Q787 310 807 332 L807 1008 L1094 1008 L1094 0 L811 0 L811 100 L807 102 Z M242 1325 Q242 1356 253.5 1383 Q265 1410 285 1430.5 Q305 1451 331.5 1463 Q358 1475 389 1475 Q420 1475 447 1463 Q474 1451 494.5 1430.5 Q515 1410 527 1383 Q539 1356 539 1325 Q539 1294 527 1267.5 Q515 1241 494.5 1221 Q474 1201 447 1189.5 Q420 1178 389 1178 Q358 1178 331.5 1189.5 Q305 1201 285 1221 Q265 1241 253.5 1267.5 Q242 1294 242 1325 Z M690 1325 Q690 1356 701.5 1383 Q713 1410 733 1430.5 Q753 1451 780 1463 Q807 1475 838 1475 Q869 1475 896 1463 Q923 1451 943 1430.5 Q963 1410 975 1383 Q987 1356 987 1325 Q987 1294 975 1267.5 Q963 1241 943 1221 Q923 1201 896 1189.5 Q869 1178 838 1178 Q807 1178 780 1189.5 Q753 1201 733 1221 Q713 1241 701.5 1267.5 Q690 1294 690 1325 Z " />
<glyph glyph-name="umacron" unicode="&#x16b;" horiz-adv-x="1229" d="M807 102 Q747 49 668.5 13 Q590 -23 492 -23 Q405 -23 337.5 4.5 Q270 32 225 80 Q178 130 155.5 203.5 Q133 277 133 387 L133 1008 L420 1008 L420 432 Q420 372 430.5 334.5 Q441 297 461 274 Q484 248 516 236.5 Q548 225 582 225 Q614 225 646 233.5 Q678 242 707 256.5 Q736 271 761.5 290.5 Q787 310 807 332 L807 1008 L1094 1008 L1094 0 L811 0 L811 100 L807 102 Z M307 1417 L922 1417 L922 1225 L307 1225 L307 1417 Z " />
<glyph glyph-name="ubreve" unicode="&#x16d;" horiz-adv-x="1229" d="M807 102 Q747 49 668.5 13 Q590 -23 492 -23 Q405 -23 337.5 4.5 Q270 32 225 80 Q178 130 155.5 203.5 Q133 277 133 387 L133 1008 L420 1008 L420 432 Q420 372 430.5 334.5 Q441 297 461 274 Q484 248 516 236.5 Q548 225 582 225 Q614 225 646 233.5 Q678 242 707 256.5 Q736 271 761.5 290.5 Q787 310 807 332 L807 1008 L1094 1008 L1094 0 L811 0 L811 100 L807 102 Z M938 1487 Q936 1413 914 1352.5 Q892 1292 851 1248.5 Q810 1205 750.5 1181 Q691 1157 615 1157 Q538 1157 478.5 1181 Q419 1205 378 1248.5 Q337 1292 315 1352.5 Q293 1413 291 1487 L453 1487 Q455 1451 465 1418.5 Q475 1386 494 1361 Q513 1336 543 1321.5 Q573 1307 615 1307 Q657 1307 686.5 1321.5 Q716 1336 735 1361 Q754 1386 764 1418.5 Q774 1451 776 1487 L938 1487 Z " />
<glyph glyph-name="uring" unicode="&#x16f;" horiz-adv-x="1229" d="M807 102 Q747 49 668.5 13 Q590 -23 492 -23 Q405 -23 337.5 4.5 Q270 32 225 80 Q178 130 155.5 203.5 Q133 277 133 387 L133 1008 L420 1008 L420 432 Q420 372 430.5 334.5 Q441 297 461 274 Q484 248 516 236.5 Q548 225 582 225 Q614 225 646 233.5 Q678 242 707 256.5 Q736 271 761.5 290.5 Q787 310 807 332 L807 1008 L1094 1008 L1094 0 L811 0 L811 100 L807 102 Z M615 1112 Q559 1112 511 1131 Q463 1150 428.5 1184 Q394 1218 374.5 1263.5 Q355 1309 355 1362 Q355 1415 374.5 1460.5 Q394 1506 428.5 1540 Q463 1574 511 1593 Q559 1612 615 1612 Q671 1612 718.5 1593 Q766 1574 801 1540 Q836 1506 855.5 1460.5 Q875 1415 875 1362 Q875 1309 855.5 1263.5 Q836 1218 801 1184 Q766 1150 718.5 1131 Q671 1112 615 1112 Z M615 1237 Q643 1237 665.5 1247 Q688 1257 703.5 1274 Q719 1291 727 1313.5 Q735 1336 735 1362 Q735 1387 727 1410 Q719 1433 703.5 1450 Q688 1467 665.5 1477 Q643 1487 615 1487 Q586 1487 564 1477 Q542 1467 526 1450 Q510 1433 502 1410 Q494 1387 494 1362 Q494 1336 502 1313.5 Q510 1291 526 1274 Q542 1257 564 1247 Q586 1237 615 1237 Z " />
<glyph glyph-name="uhungarumlaut" unicode="&#x171;" horiz-adv-x="1229" d="M807 102 Q747 49 668.5 13 Q590 -23 492 -23 Q405 -23 337.5 4.5 Q270 32 225 80 Q178 130 155.5 203.5 Q133 277 133 387 L133 1008 L420 1008 L420 432 Q420 372 430.5 334.5 Q441 297 461 274 Q484 248 516 236.5 Q548 225 582 225 Q614 225 646 233.5 Q678 242 707 256.5 Q736 271 761.5 290.5 Q787 310 807 332 L807 1008 L1094 1008 L1094 0 L811 0 L811 100 L807 102 Z M463 1489 L676 1489 L473 1153 L307 1153 L463 1489 Z M787 1489 L1000 1489 L797 1153 L631 1153 L787 1489 Z " />
<glyph glyph-name="uogonek" unicode="&#x173;" horiz-adv-x="1229" d="M1094 -451 Q1065 -460 1025 -466.5 Q985 -473 942 -473 Q880 -473 829.5 -457 Q779 -441 743.5 -412.5 Q708 -384 689 -344 Q670 -304 670 -256 Q670 -194 703 -127 Q736 -60 811 0 L811 100 L807 102 Q747 49 668.5 13 Q590 -23 492 -23 Q405 -23 337.5 4.5 Q270 32 225 80 Q178 130 155.5 203.5 Q133 277 133 387 L133 1008 L420 1008 L420 432 Q420 372 430.5 334.5 Q441 297 461 274 Q484 248 516 236.5 Q548 225 582 225 Q614 225 646 233.5 Q678 242 707 256.5 Q736 271 761.5 290.5 Q787 310 807 332 L807 1008 L1094 1008 L1094 0 Q992 -51 946.5 -108 Q901 -165 901 -211 Q901 -249 925 -273 Q949 -297 997 -297 Q1017 -297 1042.5 -293 Q1068 -289 1094 -283 L1094 -451 Z " />
<glyph glyph-name="wgrave" unicode="&#x1e81;" horiz-adv-x="1669" d="M440 727 Q453 698 467.5 667 Q482 636 496 604.5 Q510 573 523.5 543 Q537 513 549 487 L553 487 Q605 595 670 721 L840 1053 L844 1053 L1016 719 Q1048 656 1078 597 Q1108 538 1133 487 L1137 487 Q1160 540 1188 601 Q1216 662 1245 725 L1376 1008 L1669 1008 L1143 -45 L1139 -45 L926 369 Q900 420 879 460.5 Q858 501 838 543 L834 543 Q815 505 793 462 Q771 419 743 367 L528 -45 L524 -45 L0 1008 L311 1008 L440 727 Z M569 1489 L833 1489 L1001 1153 L803 1153 L569 1489 Z " />
<glyph glyph-name="wacute" unicode="&#x1e83;" horiz-adv-x="1669" d="M440 727 Q453 698 467.5 667 Q482 636 496 604.5 Q510 573 523.5 543 Q537 513 549 487 L553 487 Q605 595 670 721 L840 1053 L844 1053 L1016 719 Q1048 656 1078 597 Q1108 538 1133 487 L1137 487 Q1160 540 1188 601 Q1216 662 1245 725 L1376 1008 L1669 1008 L1143 -45 L1139 -45 L926 369 Q900 420 879 460.5 Q858 501 838 543 L834 543 Q815 505 793 462 Q771 419 743 367 L528 -45 L524 -45 L0 1008 L311 1008 L440 727 Z M885 1153 L686 1153 L854 1489 L1118 1489 L885 1153 Z " />
<glyph glyph-name="wcircumflex" unicode="&#x175;" horiz-adv-x="1669" d="M440 727 Q453 698 467.5 667 Q482 636 496 604.5 Q510 573 523.5 543 Q537 513 549 487 L553 487 Q605 595 670 721 L840 1053 L844 1053 L1016 719 Q1048 656 1078 597 Q1108 538 1133 487 L1137 487 Q1160 540 1188 601 Q1216 662 1245 725 L1376 1008 L1669 1008 L1143 -45 L1139 -45 L926 369 Q900 420 879 460.5 Q858 501 838 543 L834 543 Q815 505 793 462 Q771 419 743 367 L528 -45 L524 -45 L0 1008 L311 1008 L440 727 Z M477 1155 L842 1526 L846 1526 L1210 1155 L983 1155 L844 1282 L704 1155 L477 1155 Z " />
<glyph glyph-name="wdieresis" unicode="&#x1e85;" horiz-adv-x="1669" d="M440 727 Q453 698 467.5 667 Q482 636 496 604.5 Q510 573 523.5 543 Q537 513 549 487 L553 487 Q605 595 670 721 L840 1053 L844 1053 L1016 719 Q1048 656 1078 597 Q1108 538 1133 487 L1137 487 Q1160 540 1188 601 Q1216 662 1245 725 L1376 1008 L1669 1008 L1143 -45 L1139 -45 L926 369 Q900 420 879 460.5 Q858 501 838 543 L834 543 Q815 505 793 462 Q771 419 743 367 L528 -45 L524 -45 L0 1008 L311 1008 L440 727 Z M471 1325 Q471 1356 482.5 1383 Q494 1410 514 1430.5 Q534 1451 560.5 1463 Q587 1475 618 1475 Q649 1475 676 1463 Q703 1451 723.5 1430.5 Q744 1410 756 1383 Q768 1356 768 1325 Q768 1294 756 1267.5 Q744 1241 723.5 1221 Q703 1201 676 1189.5 Q649 1178 618 1178 Q587 1178 560.5 1189.5 Q534 1201 514 1221 Q494 1241 482.5 1267.5 Q471 1294 471 1325 Z M919 1325 Q919 1356 930.5 1383 Q942 1410 962 1430.5 Q982 1451 1009 1463 Q1036 1475 1067 1475 Q1098 1475 1125 1463 Q1152 1451 1172 1430.5 Q1192 1410 1204 1383 Q1216 1356 1216 1325 Q1216 1294 1204 1267.5 Q1192 1241 1172 1221 Q1152 1201 1125 1189.5 Q1098 1178 1067 1178 Q1036 1178 1009 1189.5 Q982 1201 962 1221 Q942 1241 930.5 1267.5 Q919 1294 919 1325 Z " />
<glyph glyph-name="ygrave" unicode="&#x1ef3;" horiz-adv-x="1135" d="M162 -451 L428 111 L16 1008 L319 1008 L438 729 Q472 651 504 574 Q536 497 567 422 L571 422 Q603 496 638.5 575 Q674 654 711 737 L831 1008 L1118 1008 L457 -451 L162 -451 Z M301 1489 L565 1489 L733 1153 L535 1153 L301 1489 Z " />
<glyph glyph-name="yacute" unicode="&#xfd;" horiz-adv-x="1135" d="M162 -451 L428 111 L16 1008 L319 1008 L438 729 Q472 651 504 574 Q536 497 567 422 L571 422 Q603 496 638.5 575 Q674 654 711 737 L831 1008 L1118 1008 L457 -451 L162 -451 Z M617 1153 L418 1153 L586 1489 L850 1489 L617 1153 Z " />
<glyph glyph-name="ycircumflex" unicode="&#x177;" horiz-adv-x="1135" d="M162 -451 L428 111 L16 1008 L319 1008 L438 729 Q472 651 504 574 Q536 497 567 422 L571 422 Q603 496 638.5 575 Q674 654 711 737 L831 1008 L1118 1008 L457 -451 L162 -451 Z M209 1155 L574 1526 L578 1526 L942 1155 L715 1155 L576 1282 L436 1155 L209 1155 Z " />
<glyph glyph-name="ydieresis" unicode="&#xff;" horiz-adv-x="1135" d="M162 -451 L428 111 L16 1008 L319 1008 L438 729 Q472 651 504 574 Q536 497 567 422 L571 422 Q603 496 638.5 575 Q674 654 711 737 L831 1008 L1118 1008 L457 -451 L162 -451 Z M203 1325 Q203 1356 214.5 1383 Q226 1410 246 1430.5 Q266 1451 292.5 1463 Q319 1475 350 1475 Q381 1475 408 1463 Q435 1451 455.5 1430.5 Q476 1410 488 1383 Q500 1356 500 1325 Q500 1294 488 1267.5 Q476 1241 455.5 1221 Q435 1201 408 1189.5 Q381 1178 350 1178 Q319 1178 292.5 1189.5 Q266 1201 246 1221 Q226 1241 214.5 1267.5 Q203 1294 203 1325 Z M651 1325 Q651 1356 662.5 1383 Q674 1410 694 1430.5 Q714 1451 741 1463 Q768 1475 799 1475 Q830 1475 857 1463 Q884 1451 904 1430.5 Q924 1410 936 1383 Q948 1356 948 1325 Q948 1294 936 1267.5 Q924 1241 904 1221 Q884 1201 857 1189.5 Q830 1178 799 1178 Q768 1178 741 1189.5 Q714 1201 694 1221 Q674 1241 662.5 1267.5 Q651 1294 651 1325 Z " />
<glyph glyph-name="zacute" unicode="&#x17a;" horiz-adv-x="1004" d="M33 0 L31 4 L504 764 L502 768 L76 768 L76 1008 L956 1008 L958 1004 L485 244 L487 240 L946 240 L946 0 L33 0 Z M546 1153 L347 1153 L515 1489 L779 1489 L546 1153 Z " />
<glyph glyph-name="zcaron" unicode="&#x17e;" horiz-adv-x="1004" d="M33 0 L31 4 L504 764 L502 768 L76 768 L76 1008 L956 1008 L958 1004 L485 244 L487 240 L946 240 L946 0 L33 0 Z M871 1487 L507 1116 L503 1116 L138 1487 L365 1487 L505 1360 L644 1487 L871 1487 Z " />
<glyph glyph-name="zdotaccent" unicode="&#x17c;" horiz-adv-x="1004" d="M33 0 L31 4 L504 764 L502 768 L76 768 L76 1008 L956 1008 L958 1004 L485 244 L487 240 L946 240 L946 0 L33 0 Z M357 1325 Q357 1356 368.5 1383 Q380 1410 400 1430.5 Q420 1451 447 1463 Q474 1475 505 1475 Q536 1475 563 1463 Q590 1451 610 1430.5 Q630 1410 642 1383 Q654 1356 654 1325 Q654 1294 642 1267.5 Q630 1241 610 1221 Q590 1201 563 1189.5 Q536 1178 505 1178 Q474 1178 447 1189.5 Q420 1201 400 1221 Q380 1241 368.5 1267.5 Q357 1294 357 1325 Z " />
<glyph glyph-name="eng" unicode="&#x14b;" horiz-adv-x="1227" d="M809 580 Q809 641 799.5 675.5 Q790 710 770 733 Q748 758 717.5 769 Q687 780 653 780 Q621 780 589 772 Q557 764 527 750 Q497 736 470 718 Q443 700 422 680 L422 0 L135 0 L135 1008 L418 1008 L418 909 L422 907 Q482 958 563 994 Q644 1030 741 1030 Q825 1030 893.5 1003.5 Q962 977 1010 926 Q1054 878 1075 807.5 Q1096 737 1096 627 L1096 -43 Q1096 -111 1090.5 -161.5 Q1085 -212 1074 -250.5 Q1063 -289 1047 -317 Q1031 -345 1010 -367 Q982 -396 947 -416 Q912 -436 873 -449 Q834 -462 793 -467.5 Q752 -473 713 -473 Q671 -473 635.5 -468 Q600 -463 575 -457 L575 -219 Q601 -224 629.5 -226.5 Q658 -229 680 -229 Q722 -229 747 -217.5 Q772 -206 786 -184.5 Q800 -163 804.5 -131.5 Q809 -100 809 -61 L809 580 Z " />
<glyph glyph-name="eth" unicode="&#xf0;" horiz-adv-x="1192" d="M217 1190 L414 1262 Q372 1288 329 1312.5 Q286 1337 240 1360 L414 1534 Q489 1496 555 1452 Q621 1408 680 1362 L922 1452 L958 1276 L825 1227 Q978 1063 1053 881 Q1128 699 1128 522 Q1128 391 1087.5 290 Q1047 189 975.5 119 Q904 49 806 13 Q708 -23 592 -23 Q471 -23 372.5 15 Q274 53 204.5 120 Q135 187 97 279.5 Q59 372 59 481 Q59 586 94.5 677.5 Q130 769 194 836.5 Q258 904 347 942.5 Q436 981 543 981 Q598 981 647 967 Q696 953 731 928 L735 932 Q709 983 669 1034 Q629 1085 578 1135 L254 1014 L217 1190 Z M346 489 Q346 433 363.5 384.5 Q381 336 413 300 Q445 264 491 243.5 Q537 223 594 223 Q652 223 698.5 244 Q745 265 776.5 301.5 Q808 338 825 387 Q842 436 842 492 Q842 552 823 601 Q804 650 770.5 684.5 Q737 719 691.5 737.5 Q646 756 592 756 Q536 756 490.5 736 Q445 716 413 680.5 Q381 645 363.5 596 Q346 547 346 489 Z " />
<glyph glyph-name="thorn" unicode="&#xfe;" horiz-adv-x="1235" d="M135 1565 L422 1565 L422 958 L426 956 Q472 988 537.5 1009 Q603 1030 678 1030 Q775 1030 862 993.5 Q949 957 1014.5 889.5 Q1080 822 1118.5 727.5 Q1157 633 1157 516 Q1157 396 1116 296.5 Q1075 197 1003 126 Q931 55 834 16 Q737 -23 625 -23 Q563 -23 514.5 -12 Q466 -1 426 14 L422 12 L422 -451 L135 -451 L135 1565 Z M422 254 Q456 237 503.5 224 Q551 211 600 211 Q665 211 715.5 234 Q766 257 800.5 296.5 Q835 336 852.5 389 Q870 442 870 502 Q870 563 852 615.5 Q834 668 801 706.5 Q768 745 720 766.5 Q672 788 612 788 Q555 788 507 771 Q459 754 422 731 L422 254 Z " />
<glyph glyph-name="longs" unicode="&#x17f;" horiz-adv-x="672" d="M803 1323 Q785 1327 764.5 1330 Q744 1333 723 1335.5 Q702 1338 682 1339.5 Q662 1341 647 1341 Q604 1341 577 1329.5 Q550 1318 534.5 1297.5 Q519 1277 513.5 1248.5 Q508 1220 508 1186 L508 0 L223 0 L223 768 L-20 768 L-23 772 L223 1034 L223 1165 Q223 1278 248 1359.5 Q273 1441 332 1495 Q360 1521 394 1539 Q428 1557 464 1567.5 Q500 1578 538 1582.5 Q576 1587 614 1587 Q667 1587 714 1578.5 Q761 1570 803 1556 L803 1323 Z " />
<glyph glyph-name="ampersand" unicode="&#x26;" horiz-adv-x="1579" d="M1532 860 L1364 860 Q1366 829 1366 797.5 Q1366 766 1366 735 Q1366 654 1360 578.5 Q1354 503 1338 434.5 Q1322 366 1295 305.5 Q1268 245 1225 193 Q1138 87 1000.5 32 Q863 -23 692 -23 Q552 -23 439.5 14.5 Q327 52 248 119 Q169 186 126.5 277 Q84 368 84 475 Q84 550 105.5 618 Q127 686 169 744 Q211 802 273 846.5 Q335 891 416 918 L121 1479 L123 1483 L901 1483 L901 1233 L539 1233 L537 1229 L770 766 L768 762 Q692 760 620.5 745.5 Q549 731 494 699.5 Q439 668 406 618.5 Q373 569 373 498 Q373 439 397 391 Q421 343 465 309 Q509 275 570.5 256.5 Q632 238 707 238 Q812 238 889.5 274.5 Q967 311 1014 373 Q1058 433 1072.5 517 Q1087 601 1087 715 Q1087 743 1086 781.5 Q1085 820 1083 860 L909 860 L909 1102 L1532 1102 L1532 860 Z " />
<glyph glyph-name="grave" unicode="&#x60;" horiz-adv-x="1077" d="M264 1489 L528 1489 L696 1153 L498 1153 L264 1489 Z " />
<glyph glyph-name="acute" unicode="&#xb4;" horiz-adv-x="1077" d="M580 1153 L381 1153 L549 1489 L813 1489 L580 1153 Z " />
<glyph glyph-name="circumflex" unicode="&#x2c6;" horiz-adv-x="1077" d="M172 1155 L537 1526 L541 1526 L905 1155 L678 1155 L539 1282 L399 1155 L172 1155 Z " />
<glyph glyph-name="caron" unicode="&#x2c7;" horiz-adv-x="1077" d="M905 1487 L541 1116 L537 1116 L172 1487 L399 1487 L539 1360 L678 1487 L905 1487 Z " />
<glyph glyph-name="commaaccent" unicode="&#xf6c3;" horiz-adv-x="1077" d="M715 -111 L553 -557 L358 -557 L463 -111 L715 -111 Z " />
<glyph glyph-name="tilde" unicode="&#x2dc;" horiz-adv-x="1077" d="M203 1391 Q232 1423 277.5 1445.5 Q323 1468 383 1468 Q461 1468 555 1419 Q599 1396 629 1384 Q659 1372 694 1372 Q724 1372 749 1381 Q774 1390 795.5 1404 Q817 1418 835.5 1436.5 Q854 1455 870 1475 L874 1473 L874 1255 Q845 1223 799.5 1200.5 Q754 1178 694 1178 Q617 1178 522 1227 Q478 1249 448 1261.5 Q418 1274 383 1274 Q353 1274 328 1265 Q303 1256 281.5 1242 Q260 1228 241.5 1209 Q223 1190 207 1171 L203 1174 L203 1391 Z " />
<glyph glyph-name="dieresis" unicode="&#xa8;" horiz-adv-x="1077" d="M166 1325 Q166 1356 177.5 1383 Q189 1410 209 1430.5 Q229 1451 255.5 1463 Q282 1475 313 1475 Q344 1475 371 1463 Q398 1451 418.5 1430.5 Q439 1410 451 1383 Q463 1356 463 1325 Q463 1294 451 1267.5 Q439 1241 418.5 1221 Q398 1201 371 1189.5 Q344 1178 313 1178 Q282 1178 255.5 1189.5 Q229 1201 209 1221 Q189 1241 177.5 1267.5 Q166 1294 166 1325 Z M614 1325 Q614 1356 625.5 1383 Q637 1410 657 1430.5 Q677 1451 704 1463 Q731 1475 762 1475 Q793 1475 820 1463 Q847 1451 867 1430.5 Q887 1410 899 1383 Q911 1356 911 1325 Q911 1294 899 1267.5 Q887 1241 867 1221 Q847 1201 820 1189.5 Q793 1178 762 1178 Q731 1178 704 1189.5 Q677 1201 657 1221 Q637 1241 625.5 1267.5 Q614 1294 614 1325 Z " />
<glyph glyph-name="macron" unicode="&#xaf;" horiz-adv-x="1077" d="M231 1417 L846 1417 L846 1225 L231 1225 L231 1417 Z " />
<glyph glyph-name="breve" unicode="&#x2d8;" horiz-adv-x="1077" d="M862 1487 Q860 1413 838 1352.5 Q816 1292 775 1248.5 Q734 1205 674.5 1181 Q615 1157 539 1157 Q462 1157 402.5 1181 Q343 1205 302 1248.5 Q261 1292 239 1352.5 Q217 1413 215 1487 L377 1487 Q379 1451 389 1418.5 Q399 1386 418 1361 Q437 1336 467 1321.5 Q497 1307 539 1307 Q581 1307 610.5 1321.5 Q640 1336 659 1361 Q678 1386 688 1418.5 Q698 1451 700 1487 L862 1487 Z " />
<glyph glyph-name="ring" unicode="&#x2da;" horiz-adv-x="1077" d="M539 1112 Q483 1112 435 1131 Q387 1150 352.5 1184 Q318 1218 298.5 1263.5 Q279 1309 279 1362 Q279 1415 298.5 1460.5 Q318 1506 352.5 1540 Q387 1574 435 1593 Q483 1612 539 1612 Q595 1612 642.5 1593 Q690 1574 725 1540 Q760 1506 779.5 1460.5 Q799 1415 799 1362 Q799 1309 779.5 1263.5 Q760 1218 725 1184 Q690 1150 642.5 1131 Q595 1112 539 1112 Z M539 1237 Q567 1237 589.5 1247 Q612 1257 627.5 1274 Q643 1291 651 1313.5 Q659 1336 659 1362 Q659 1387 651 1410 Q643 1433 627.5 1450 Q612 1467 589.5 1477 Q567 1487 539 1487 Q510 1487 488 1477 Q466 1467 450 1450 Q434 1433 426 1410 Q418 1387 418 1362 Q418 1336 426 1313.5 Q434 1291 450 1274 Q466 1257 488 1247 Q510 1237 539 1237 Z " />
<glyph glyph-name="hungarumlaut" unicode="&#x2dd;" horiz-adv-x="1077" d="M387 1489 L600 1489 L397 1153 L231 1153 L387 1489 Z M711 1489 L924 1489 L721 1153 L555 1153 L711 1489 Z " />
<glyph glyph-name="dotaccent" unicode="&#x2d9;" horiz-adv-x="1077" d="M391 1325 Q391 1356 402.5 1383 Q414 1410 434 1430.5 Q454 1451 481 1463 Q508 1475 539 1475 Q570 1475 597 1463 Q624 1451 644 1430.5 Q664 1410 676 1383 Q688 1356 688 1325 Q688 1294 676 1267.5 Q664 1241 644 1221 Q624 1201 597 1189.5 Q570 1178 539 1178 Q508 1178 481 1189.5 Q454 1201 434 1221 Q414 1241 402.5 1267.5 Q391 1294 391 1325 Z " />
<glyph glyph-name="cedilla" unicode="&#xb8;" horiz-adv-x="1077" d="M516 80 L627 55 L584 -78 Q669 -95 716.5 -142.5 Q764 -190 764 -264 Q764 -306 748 -341 Q732 -376 702 -401 Q672 -426 630 -439.5 Q588 -453 537 -453 Q484 -453 439.5 -441 Q395 -429 360 -414 L401 -285 Q433 -302 468.5 -313 Q504 -324 535 -324 Q567 -324 592.5 -309.5 Q618 -295 618 -266 Q618 -240 598 -223.5 Q578 -207 549.5 -197.5 Q521 -188 489.5 -184 Q458 -180 434 -178 L516 80 Z " />
<glyph glyph-name="ogonek" unicode="&#x2db;" horiz-adv-x="1077" d="M760 -451 Q731 -459 690.5 -466 Q650 -473 606 -473 Q544 -473 494 -457 Q444 -441 409 -412.5 Q374 -384 355 -344.5 Q336 -305 336 -258 Q336 -222 347.5 -182 Q359 -142 384.5 -102 Q410 -62 450 -23 Q490 16 547 51 L760 16 Q707 -15 670 -45 Q633 -75 610 -104.5 Q587 -134 577 -161 Q567 -188 567 -213 Q567 -250 591 -273.5 Q615 -297 662 -297 Q680 -297 707 -293 Q734 -289 760 -281 L760 -451 Z " />
<glyph glyph-name="comma" unicode="&#x2c;" horiz-adv-x="623" d="M207 307 L471 307 L291 -301 L92 -301 L207 307 Z " />
<glyph glyph-name="semicolon" unicode="&#x3b;" horiz-adv-x="623" d="M207 307 L471 307 L291 -301 L92 -301 L207 307 Z M145 864 Q145 898 158 928.5 Q171 959 193.5 981.5 Q216 1004 246 1017 Q276 1030 311 1030 Q345 1030 375.5 1017 Q406 1004 428.5 981.5 Q451 959 464 928.5 Q477 898 477 864 Q477 829 464 799 Q451 769 428.5 746.5 Q406 724 375.5 711 Q345 698 311 698 Q276 698 246 711 Q216 724 193.5 746.5 Q171 769 158 799 Q145 829 145 864 Z " />
<glyph glyph-name="colon" unicode="&#x3a;" horiz-adv-x="623" d="M145 864 Q145 898 158 928.5 Q171 959 193.5 981.5 Q216 1004 246 1017 Q276 1030 311 1030 Q345 1030 375.5 1017 Q406 1004 428.5 981.5 Q451 959 464 928.5 Q477 898 477 864 Q477 829 464 799 Q451 769 428.5 746.5 Q406 724 375.5 711 Q345 698 311 698 Q276 698 246 711 Q216 724 193.5 746.5 Q171 769 158 799 Q145 829 145 864 Z M145 143 Q145 178 158 208 Q171 238 193.5 260.5 Q216 283 246 296 Q276 309 311 309 Q345 309 375.5 296 Q406 283 428.5 260.5 Q451 238 464 208 Q477 178 477 143 Q477 108 464 78 Q451 48 428.5 25.5 Q406 3 375.5 -10 Q345 -23 311 -23 Q276 -23 246 -10 Q216 3 193.5 25.5 Q171 48 158 78 Q145 108 145 143 Z " />
<glyph glyph-name="period" unicode="&#x2e;" horiz-adv-x="623" d="M139 150 Q139 185 152.5 216.5 Q166 248 189.5 271.5 Q213 295 244.5 308.5 Q276 322 311 322 Q347 322 378 308.5 Q409 295 432.5 271.5 Q456 248 469.5 216.5 Q483 185 483 150 Q483 114 469.5 82.5 Q456 51 432.5 27.5 Q409 4 378 -9.5 Q347 -23 311 -23 Q276 -23 244.5 -9.5 Q213 4 189.5 27.5 Q166 51 152.5 82.5 Q139 114 139 150 Z " />
<glyph glyph-name="ellipsis" unicode="&#x2026;" horiz-adv-x="1749" d="M139 150 Q139 185 152.5 216.5 Q166 248 189.5 271.5 Q213 295 244.5 308.5 Q276 322 311 322 Q347 322 378 308.5 Q409 295 432.5 271.5 Q456 248 469.5 216.5 Q483 185 483 150 Q483 114 469.5 82.5 Q456 51 432.5 27.5 Q409 4 378 -9.5 Q347 -23 311 -23 Q276 -23 244.5 -9.5 Q213 4 189.5 27.5 Q166 51 152.5 82.5 Q139 114 139 150 Z M702 150 Q702 185 715.5 216.5 Q729 248 752.5 271.5 Q776 295 807.5 308.5 Q839 322 874 322 Q910 322 941 308.5 Q972 295 995.5 271.5 Q1019 248 1032.5 216.5 Q1046 185 1046 150 Q1046 114 1032.5 82.5 Q1019 51 995.5 27.5 Q972 4 941 -9.5 Q910 -23 874 -23 Q839 -23 807.5 -9.5 Q776 4 752.5 27.5 Q729 51 715.5 82.5 Q702 114 702 150 Z M1265 150 Q1265 185 1278.5 216.5 Q1292 248 1315.5 271.5 Q1339 295 1370.5 308.5 Q1402 322 1437 322 Q1473 322 1504 308.5 Q1535 295 1558.5 271.5 Q1582 248 1595.5 216.5 Q1609 185 1609 150 Q1609 114 1595.5 82.5 Q1582 51 1558.5 27.5 Q1535 4 1504 -9.5 Q1473 -23 1437 -23 Q1402 -23 1370.5 -9.5 Q1339 4 1315.5 27.5 Q1292 51 1278.5 82.5 Q1265 114 1265 150 Z " />
<glyph glyph-name="hyphen" unicode="&#x2d;" horiz-adv-x="700" d="M98 686 L600 686 L600 449 L98 449 L98 686 Z " />
<glyph glyph-name="exclam" unicode="&#x21;" horiz-adv-x="602" d="M133 145 Q133 180 146.5 210.5 Q160 241 182.5 264 Q205 287 235.5 300 Q266 313 301 313 Q335 313 366 300 Q397 287 419.5 264 Q442 241 455.5 210.5 Q469 180 469 145 Q469 110 455.5 79.5 Q442 49 419.5 26.5 Q397 4 366 -9.5 Q335 -23 301 -23 Q266 -23 235.5 -9.5 Q205 4 182.5 26.5 Q160 49 146.5 79.5 Q133 110 133 145 Z M156 1483 L446 1483 L424 485 L178 485 L156 1483 Z " />
<glyph glyph-name="exclamdown" unicode="&#xa1;" horiz-adv-x="602" d="M469 862 Q469 827 455.5 796.5 Q442 766 419.5 743.5 Q397 721 366 707.5 Q335 694 301 694 Q266 694 235.5 707.5 Q205 721 182.5 743.5 Q160 766 146.5 796.5 Q133 827 133 862 Q133 896 146.5 927 Q160 958 182.5 980.5 Q205 1003 235.5 1016.5 Q266 1030 301 1030 Q335 1030 366 1016.5 Q397 1003 419.5 980.5 Q442 958 455.5 927 Q469 896 469 862 Z M446 -475 L156 -475 L178 522 L424 522 L446 -475 Z " />
<glyph glyph-name="question" unicode="&#x3f;" horiz-adv-x="969" d="M197 821 Q217 819 238 819 Q259 819 281 819 Q356 819 417.5 832 Q479 845 522.5 871.5 Q566 898 590 937.5 Q614 977 614 1030 Q614 1075 597 1112 Q580 1149 548.5 1176 Q517 1203 471.5 1218 Q426 1233 369 1233 Q299 1233 237 1213.5 Q175 1194 121 1163 L121 1436 Q178 1468 250 1486.5 Q322 1505 406 1505 Q512 1505 605 1472 Q698 1439 767.5 1379.5 Q837 1320 877.5 1237.5 Q918 1155 918 1055 Q918 963 885 887 Q852 811 792.5 754 Q733 697 652 660 Q571 623 475 610 L467 444 L203 444 L197 821 Z M168 145 Q168 180 181.5 210.5 Q195 241 217.5 264 Q240 287 270.5 300 Q301 313 336 313 Q370 313 401 300 Q432 287 454.5 264 Q477 241 490.5 210.5 Q504 180 504 145 Q504 110 490.5 79.5 Q477 49 454.5 26.5 Q432 4 401 -9.5 Q370 -23 336 -23 Q301 -23 270.5 -9.5 Q240 4 217.5 26.5 Q195 49 181.5 79.5 Q168 110 168 145 Z " />
<glyph glyph-name="questiondown" unicode="&#xbf;" horiz-adv-x="969" d="M772 186 Q752 188 731 188 Q710 188 688 188 Q613 188 551 175 Q489 162 445.5 135.5 Q402 109 378 69.5 Q354 30 354 -23 Q354 -67 371 -104 Q388 -141 419.5 -168 Q451 -195 496.5 -210 Q542 -225 600 -225 Q669 -225 731.5 -206 Q794 -187 848 -156 L848 -428 Q791 -460 719 -479 Q647 -498 563 -498 Q457 -498 364 -465 Q271 -432 201.5 -372.5 Q132 -313 91.5 -230 Q51 -147 51 -47 Q51 44 84 120 Q117 196 176.5 253 Q236 310 317 347 Q398 384 494 397 L502 563 L766 563 L772 186 Z M801 862 Q801 827 787.5 796.5 Q774 766 751.5 743.5 Q729 721 698 707.5 Q667 694 633 694 Q598 694 567.5 707.5 Q537 721 514.5 743.5 Q492 766 478.5 796.5 Q465 827 465 862 Q465 896 478.5 927 Q492 958 514.5 980.5 Q537 1003 567.5 1016.5 Q598 1030 633 1030 Q667 1030 698 1016.5 Q729 1003 751.5 980.5 Q774 958 787.5 927 Q801 896 801 862 Z " />
<glyph glyph-name="quoteleft" unicode="&#x2018;" horiz-adv-x="545" d="M266 1520 L449 1520 L330 948 L82 948 L266 1520 Z " />
<glyph glyph-name="quoteright" unicode="&#x2019;" horiz-adv-x="545" d="M279 948 L96 948 L215 1520 L463 1520 L279 948 Z " />
<glyph glyph-name="quotedblleft" unicode="&#x201c;" horiz-adv-x="918" d="M639 1520 L822 1520 L703 948 L455 948 L639 1520 Z M266 1520 L449 1520 L330 948 L82 948 L266 1520 Z " />
<glyph glyph-name="quotedblright" unicode="&#x201d;" horiz-adv-x="918" d="M652 948 L469 948 L588 1520 L836 1520 L652 948 Z M279 948 L96 948 L215 1520 L463 1520 L279 948 Z " />
<glyph glyph-name="quotesinglbase" unicode="&#x201a;" horiz-adv-x="545" d="M281 -235 L98 -235 L217 337 L465 337 L281 -235 Z " />
<glyph glyph-name="quotedblbase" unicode="&#x201e;" horiz-adv-x="918" d="M654 -235 L471 -235 L590 337 L838 337 L654 -235 Z M281 -235 L98 -235 L217 337 L465 337 L281 -235 Z " />
<glyph glyph-name="guilsinglleft" unicode="&#x2039;" horiz-adv-x="713" d="M303 504 L637 55 L373 55 L39 504 L373 952 L637 952 L303 504 Z " />
<glyph glyph-name="guilsinglright" unicode="&#x203a;" horiz-adv-x="713" d="M410 504 L76 952 L340 952 L674 504 L340 55 L76 55 L410 504 Z " />
<glyph glyph-name="guillemotleft" unicode="&#xab;" horiz-adv-x="1192" d="M782 504 L1116 55 L852 55 L518 504 L852 952 L1116 952 L782 504 Z M303 504 L637 55 L373 55 L39 504 L373 952 L637 952 L303 504 Z " />
<glyph glyph-name="guillemotright" unicode="&#xbb;" horiz-adv-x="1192" d="M889 504 L555 952 L819 952 L1153 504 L819 55 L555 55 L889 504 Z M410 504 L76 952 L340 952 L674 504 L340 55 L76 55 L410 504 Z " />
<glyph glyph-name="slash" unicode="&#x2f;" horiz-adv-x="946" d="M709 1561 L930 1561 L238 -78 L16 -78 L709 1561 Z " />
<glyph glyph-name="bar" unicode="&#x7c;" horiz-adv-x="657" d="M217 1638 L440 1638 L440 -451 L217 -451 L217 1638 Z " />
<glyph glyph-name="underscore" unicode="&#x5f;" horiz-adv-x="1020" d="M1020 -172 L1020 -303 L0 -303 L0 -172 L1020 -172 Z " />
<glyph glyph-name="endash" unicode="&#x2013;" horiz-adv-x="1004" d="M98 674 L905 674 L905 463 L98 463 L98 674 Z " />
<glyph glyph-name="emdash" unicode="&#x2014;" horiz-adv-x="1604" d="M68 657 L1536 657 L1536 479 L68 479 L68 657 Z " />
<glyph glyph-name="bullet" unicode="&#x2022;" horiz-adv-x="774" d="M133 608 Q133 661 153 707.5 Q173 754 207.5 788.5 Q242 823 288 842.5 Q334 862 387 862 Q440 862 486 842.5 Q532 823 566.5 788.5 Q601 754 621 707.5 Q641 661 641 608 Q641 555 621 509 Q601 463 566.5 428.5 Q532 394 486 374 Q440 354 387 354 Q334 354 288 374 Q242 394 207.5 428.5 Q173 463 153 509 Q133 555 133 608 Z " />
<glyph glyph-name="periodcentered" unicode="&#xb7;" horiz-adv-x="623" d="M139 617 Q139 652 152.5 683.5 Q166 715 189.5 738.5 Q213 762 244.5 775.5 Q276 789 311 789 Q347 789 378 775.5 Q409 762 432.5 738.5 Q456 715 469.5 683.5 Q483 652 483 617 Q483 581 469.5 549.5 Q456 518 432.5 494.5 Q409 471 378 457.5 Q347 444 311 444 Q276 444 244.5 457.5 Q213 471 189.5 494.5 Q166 518 152.5 549.5 Q139 581 139 617 Z " />
<glyph glyph-name="parenleft" unicode="&#x28;" horiz-adv-x="754" d="M440 -436 Q378 -357 323.5 -256 Q269 -155 228.5 -32 Q188 91 164.5 234.5 Q141 378 141 543 Q141 707 164.5 851 Q188 995 228.5 1117.5 Q269 1240 323.5 1341.5 Q378 1443 440 1522 L709 1522 Q644 1438 587.5 1332.5 Q531 1227 489 1103.5 Q447 980 423 839 Q399 698 399 543 Q399 388 423 247 Q447 106 489 -18 Q531 -142 587.5 -247 Q644 -352 709 -436 L440 -436 Z " />
<glyph glyph-name="parenright" unicode="&#x29;" horiz-adv-x="754" d="M45 -436 Q109 -352 165.5 -247 Q222 -142 264 -18 Q306 106 330 247 Q354 388 354 543 Q354 698 330 839 Q306 980 264 1103.5 Q222 1227 165.5 1332.5 Q109 1438 45 1522 L313 1522 Q375 1443 429.5 1341.5 Q484 1240 524.5 1117.5 Q565 995 588.5 851 Q612 707 612 543 Q612 378 588.5 234.5 Q565 91 524.5 -32 Q484 -155 429.5 -256 Q375 -357 313 -436 L45 -436 Z " />
<glyph glyph-name="bracketleft" unicode="&#x5b;" horiz-adv-x="741" d="M653 -227 L653 -436 L164 -436 L164 1522 L653 1522 L653 1313 L426 1313 L426 -227 L653 -227 Z " />
<glyph glyph-name="bracketright" unicode="&#x5d;" horiz-adv-x="741" d="M315 -227 L315 1313 L88 1313 L88 1522 L578 1522 L578 -436 L88 -436 L88 -227 L315 -227 Z " />
<glyph glyph-name="braceleft" unicode="&#x7b;" horiz-adv-x="770" d="M244 287 Q244 327 238 356 Q232 385 216 403 Q200 421 172.5 429.5 Q145 438 102 438 L45 438 L45 647 L102 647 Q145 647 172.5 655.5 Q200 664 216 682 Q232 700 238 729 Q244 758 244 799 L244 1212 Q244 1287 264 1348 Q284 1409 326 1452.5 Q368 1496 432.5 1520 Q497 1544 586 1544 Q624 1544 662 1540.5 Q700 1537 723 1532 L723 1327 Q704 1332 681 1333.5 Q658 1335 641 1335 Q569 1335 537.5 1300 Q506 1265 506 1180 L506 811 Q506 755 499 711.5 Q492 668 476.5 635.5 Q461 603 434.5 580.5 Q408 558 369 545 L369 541 Q447 515 476.5 450.5 Q506 386 506 274 L506 -94 Q506 -180 537.5 -215 Q569 -250 641 -250 Q658 -250 681 -248.5 Q704 -247 723 -242 L723 -446 Q700 -451 662 -455 Q624 -459 586 -459 Q497 -459 432.5 -435 Q368 -411 326 -367.5 Q284 -324 264 -263 Q244 -202 244 -127 L244 287 Z " />
<glyph glyph-name="braceright" unicode="&#x7d;" horiz-adv-x="770" d="M526 -127 Q526 -202 505.5 -263 Q485 -324 443 -367.5 Q401 -411 336.5 -435 Q272 -459 184 -459 Q146 -459 108 -455 Q70 -451 47 -446 L47 -242 Q66 -247 89 -248.5 Q112 -250 129 -250 Q201 -250 232.5 -215 Q264 -180 264 -94 L264 274 Q264 386 293.5 450.5 Q323 515 401 541 L401 545 Q362 558 335.5 580.5 Q309 603 293.5 635.5 Q278 668 271 711.5 Q264 755 264 811 L264 1180 Q264 1265 232.5 1300 Q201 1335 129 1335 Q112 1335 89 1333.5 Q66 1332 47 1327 L47 1532 Q70 1537 108 1540.5 Q146 1544 184 1544 Q272 1544 336.5 1520 Q401 1496 443 1452.5 Q485 1409 505.5 1348 Q526 1287 526 1212 L526 799 Q526 758 532 729 Q538 700 554 682 Q570 664 597.5 655.5 Q625 647 668 647 L725 647 L725 438 L668 438 Q625 438 597.5 429.5 Q570 421 554 403 Q538 385 532 356 Q526 327 526 287 L526 -127 Z " />
<glyph glyph-name="asterisk" unicode="&#x2a;" horiz-adv-x="924" d="M379 942 L160 801 L63 967 L295 1085 L63 1206 L160 1370 L379 1231 L365 1491 L559 1491 L545 1231 L764 1370 L860 1206 L629 1085 L860 967 L764 801 L545 942 L559 682 L365 682 L379 942 Z " />
<glyph glyph-name="dagger" unicode="&#x2020;" horiz-adv-x="1247" d="M492 788 L121 788 L121 1028 L492 1028 L492 1483 L756 1483 L756 1028 L1126 1028 L1126 788 L756 788 L756 -451 L492 -451 L492 788 Z " />
<glyph glyph-name="daggerdbl" unicode="&#x2021;" horiz-adv-x="1247" d="M121 244 L492 244 L492 788 L121 788 L121 1028 L492 1028 L492 1483 L756 1483 L756 1028 L1126 1028 L1126 788 L756 788 L756 244 L1126 244 L1126 4 L756 4 L756 -451 L492 -451 L492 4 L121 4 L121 244 Z " />
<glyph glyph-name="section" unicode="&#xa7;" horiz-adv-x="1186" d="M236 8 Q268 -10 306 -26.5 Q344 -43 384 -55.5 Q424 -68 464.5 -76 Q505 -84 543 -84 Q580 -84 611 -75.5 Q642 -67 664.5 -51.5 Q687 -36 700 -12.5 Q713 11 713 41 Q713 83 689.5 112 Q666 141 626 164.5 Q586 188 531.5 210 Q477 232 416 260 Q356 287 299.5 319 Q243 351 199.5 393 Q156 435 130 489.5 Q104 544 104 616 Q104 721 157.5 793 Q211 865 299 903 L299 907 Q256 948 228.5 1005 Q201 1062 201 1137 Q201 1221 235 1288.5 Q269 1356 328 1403.5 Q387 1451 466.5 1476 Q546 1501 637 1501 Q722 1501 800 1481 Q878 1461 932 1432 L932 1184 Q900 1202 865.5 1217 Q831 1232 795.5 1243 Q760 1254 724.5 1260 Q689 1266 657 1266 Q621 1266 590 1257.5 Q559 1249 536 1233.5 Q513 1218 500 1195 Q487 1172 487 1143 Q487 1102 510 1073.5 Q533 1045 572 1022 Q611 999 662.5 978.5 Q714 958 772 934 Q836 906 894.5 874 Q953 842 998 799 Q1043 756 1069.5 699.5 Q1096 643 1096 567 Q1096 514 1081.5 469.5 Q1067 425 1041.5 388.5 Q1016 352 980.5 324.5 Q945 297 903 279 L903 274 Q948 231 973.5 175 Q999 119 999 47 Q999 -38 964 -105.5 Q929 -173 868 -220 Q807 -267 724 -292 Q641 -317 545 -317 Q448 -317 371 -295.5 Q294 -274 236 -246 L236 8 Z M606 733 Q586 741 565 750 Q544 759 524 768 Q458 749 420.5 716.5 Q383 684 383 633 Q383 598 398 573 Q413 548 439.5 527.5 Q466 507 502 490.5 Q538 474 580 457 Q609 444 633.5 433.5 Q658 423 680 414 Q742 431 779.5 465 Q817 499 817 553 Q817 587 801.5 613 Q786 639 758 659.5 Q730 680 691 697.5 Q652 715 606 733 Z " />
<glyph glyph-name="paragraph" unicode="&#xb6;" horiz-adv-x="1231" d="M467 741 Q389 741 321 770 Q253 799 202 849.5 Q151 900 121.5 967.5 Q92 1035 92 1112 Q92 1189 121.5 1256.5 Q151 1324 202 1374.5 Q253 1425 321 1454 Q389 1483 467 1483 L1061 1483 L1061 -451 L842 -451 L842 1290 L686 1290 L686 -451 L467 -451 L467 741 Z " />
<glyph glyph-name="asciicircum" unicode="&#x5e;" horiz-adv-x="1151" d="M573 1505 L578 1505 L1038 741 L813 741 L578 1151 L573 1151 L338 741 L113 741 L573 1505 Z " />
<glyph glyph-name="asciitilde" unicode="&#x7e;" horiz-adv-x="1139" d="M983 641 Q948 606 897.5 584.5 Q847 563 784 563 Q721 563 665 582.5 Q609 602 547 633 Q494 659 448.5 677.5 Q403 696 352 696 Q317 696 288.5 686 Q260 676 236 658.5 Q212 641 193.5 619 Q175 597 160 573 L156 575 L156 842 Q191 877 241 898.5 Q291 920 354 920 Q417 920 473.5 900.5 Q530 881 592 850 Q645 824 690 805 Q735 786 786 786 Q821 786 850 796.5 Q879 807 903 824 Q927 841 945.5 863 Q964 885 979 909 L983 907 L983 641 Z " />
<glyph glyph-name="brokenbar" unicode="&#xa6;" horiz-adv-x="657" d="M217 1638 L440 1638 L440 836 L217 836 L217 1638 Z M440 352 L440 -451 L217 -451 L217 352 L440 352 Z " />
<glyph glyph-name="backslash" unicode="&#x5c;" horiz-adv-x="946" d="M16 1561 L238 1561 L930 -78 L709 -78 L16 1561 Z " />
<glyph glyph-name="quotesingle" unicode="&#x27;" horiz-adv-x="385" d="M70 1520 L315 1520 L274 948 L111 948 L70 1520 Z " />
<glyph glyph-name="quotedbl" unicode="&#x22;" horiz-adv-x="758" d="M443 1520 L688 1520 L647 948 L484 948 L443 1520 Z M70 1520 L315 1520 L274 948 L111 948 L70 1520 Z " />
<glyph glyph-name="at" unicode="&#x40;" horiz-adv-x="1671" d="M969 688 Q944 699 914 706 Q884 713 852 713 Q802 713 768.5 697 Q735 681 711 655 Q680 623 661.5 577.5 Q643 532 643 481 Q643 440 655 404.5 Q667 369 689 343.5 Q711 318 742 303.5 Q773 289 811 289 Q848 289 885 302.5 Q922 316 954 342 Q948 369 948 403 Q948 413 949 431 Q950 449 952 469 L969 688 Z M1180 479 Q1178 459 1178 443.5 Q1178 428 1178 420 Q1178 355 1208.5 314.5 Q1239 274 1294 274 Q1325 274 1352 288 Q1379 302 1399.5 331 Q1420 360 1432 405 Q1444 450 1444 512 Q1444 588 1426 661.5 Q1408 735 1372.5 801 Q1337 867 1285.5 923 Q1234 979 1167 1019.5 Q1100 1060 1018 1083 Q936 1106 840 1106 Q696 1106 582.5 1056.5 Q469 1007 390.5 923.5 Q312 840 270.5 730 Q229 620 229 500 Q229 383 269 275 Q309 167 387 84 Q465 1 580 -48.5 Q695 -98 846 -98 Q921 -98 987 -86 Q1053 -74 1109 -53.5 Q1165 -33 1211.5 -7.5 Q1258 18 1296 45 L1296 -135 Q1252 -162 1199 -185 Q1146 -208 1087 -224.5 Q1028 -241 963.5 -250.5 Q899 -260 831 -260 Q664 -260 521.5 -202 Q379 -144 275 -42 Q171 60 112 200 Q53 340 53 504 Q53 613 79.5 712 Q106 811 155.5 896 Q205 981 275 1049.5 Q345 1118 432 1166.5 Q519 1215 620.5 1241.5 Q722 1268 834 1268 Q947 1268 1049.5 1241 Q1152 1214 1239 1165.5 Q1326 1117 1396 1048.5 Q1466 980 1515.5 897 Q1565 814 1591.5 718.5 Q1618 623 1618 520 Q1618 418 1592 341 Q1566 264 1518.5 212.5 Q1471 161 1404.5 135 Q1338 109 1257 109 Q1179 109 1116.5 135.5 Q1054 162 1012 213 Q959 168 895.5 138.5 Q832 109 752 109 Q680 109 619 134.5 Q558 160 513.5 206.5 Q469 253 443.5 318 Q418 383 418 463 Q418 560 456.5 645.5 Q495 731 563 793 Q619 844 692.5 871.5 Q766 899 854 899 Q910 899 961 888.5 Q1012 878 1065 858 L1210 883 L1180 479 Z " />
<glyph glyph-name="copyright" unicode="&#xa9;" horiz-adv-x="1667" d="M55 741 Q55 849 81.5 948 Q108 1047 157.5 1131.5 Q207 1216 277 1285 Q347 1354 433.5 1403 Q520 1452 621 1478.5 Q722 1505 834 1505 Q945 1505 1046 1478.5 Q1147 1452 1233.5 1403.5 Q1320 1355 1390 1286 Q1460 1217 1509.5 1132.5 Q1559 1048 1585.5 949 Q1612 850 1612 741 Q1612 633 1585.5 534.5 Q1559 436 1509.5 351 Q1460 266 1390 197 Q1320 128 1233.5 79 Q1147 30 1046 3.5 Q945 -23 834 -23 Q722 -23 621 3.5 Q520 30 433.5 78.5 Q347 127 277 196 Q207 265 157.5 350 Q108 435 81.5 534 Q55 633 55 741 Z M229 741 Q229 656 248.5 578.5 Q268 501 305.5 434 Q343 367 396 312.5 Q449 258 516.5 219.5 Q584 181 664 160 Q744 139 834 139 Q970 139 1081 185 Q1192 231 1271.5 312 Q1351 393 1394.5 503 Q1438 613 1438 741 Q1438 868 1394 978 Q1350 1088 1270.5 1169 Q1191 1250 1080 1296.5 Q969 1343 834 1343 Q698 1343 586.5 1297 Q475 1251 395.5 1170 Q316 1089 272.5 979 Q229 869 229 741 Z M1126 391 Q1074 360 1008.5 347 Q943 334 881 334 Q781 334 698 366 Q615 398 555.5 453.5 Q496 509 463 585 Q430 661 430 750 Q430 841 464.5 918 Q499 995 560 1050.5 Q621 1106 704 1137.5 Q787 1169 885 1169 Q947 1169 1006.5 1155.5 Q1066 1142 1114 1116 L1114 903 Q1066 934 1010 953.5 Q954 973 895 973 Q842 973 798.5 956.5 Q755 940 724 910.5 Q693 881 676 840.5 Q659 800 659 752 Q659 705 676 665 Q693 625 724.5 595.5 Q756 566 800.5 549 Q845 532 899 532 Q959 532 1018.5 551.5 Q1078 571 1126 606 L1126 391 Z " />
<glyph glyph-name="registered" unicode="&#xae;" horiz-adv-x="905" d="M455 743 Q372 743 301.5 772 Q231 801 179.5 852 Q128 903 99 973 Q70 1043 70 1124 Q70 1205 99 1275 Q128 1345 179.5 1396 Q231 1447 301.5 1476 Q372 1505 455 1505 Q538 1505 608 1476 Q678 1447 729 1396 Q780 1345 809 1275 Q838 1205 838 1124 Q838 1043 809 973 Q780 903 729 852 Q678 801 608 772 Q538 743 455 743 Z M455 815 Q524 815 581 838.5 Q638 862 678.5 903.5 Q719 945 741.5 1001.5 Q764 1058 764 1124 Q764 1190 741.5 1246.5 Q719 1303 678.5 1345 Q638 1387 581 1410.5 Q524 1434 455 1434 Q385 1434 327.5 1410.5 Q270 1387 229 1345 Q188 1303 165.5 1246.5 Q143 1190 143 1124 Q143 1058 165.5 1001.5 Q188 945 229 903.5 Q270 862 327.5 838.5 Q385 815 455 815 Z M449 1063 L401 1063 L401 918 L305 918 L305 1331 L463 1331 Q495 1331 524 1322.5 Q553 1314 575 1296.5 Q597 1279 610 1254 Q623 1229 623 1196 Q623 1153 599.5 1124 Q576 1095 541 1079 L639 918 L528 918 L449 1063 Z M455 1135 Q487 1135 505.5 1149 Q524 1163 524 1192 Q524 1220 505.5 1232.5 Q487 1245 455 1245 L401 1245 L401 1135 L455 1135 Z " />
<glyph glyph-name="trademark" unicode="&#x2122;" horiz-adv-x="1440" d="M231 1327 L45 1327 L45 1483 L594 1483 L594 1327 L408 1327 L408 889 L231 889 L231 1327 Z M672 889 L672 1501 L676 1503 L1014 1186 L1343 1503 L1348 1501 L1348 889 L1178 889 L1178 1028 Q1178 1048 1178 1078.5 Q1178 1109 1180 1137 L1176 1139 Q1156 1117 1136 1097 Q1116 1077 1092 1053 L1012 975 L928 1055 Q902 1079 882 1099 Q862 1119 844 1139 L840 1137 Q842 1109 842 1080.5 Q842 1052 842 1030 L842 889 L672 889 Z " />
<glyph glyph-name="numbersign" unicode="&#x23;" horiz-adv-x="1292" d="M246 428 L20 428 L72 606 L297 606 L375 877 L150 877 L201 1055 L426 1055 L549 1483 L739 1483 L616 1055 L856 1055 L979 1483 L1169 1483 L1047 1055 L1272 1055 L1221 877 L995 877 L918 606 L1143 606 L1092 428 L866 428 L743 0 L553 0 L676 428 L436 428 L313 0 L123 0 L246 428 Z M727 606 L805 877 L565 877 L487 606 L727 606 Z " />
<glyph glyph-name="zero" unicode="0" horiz-adv-x="1282" d="M406 735 Q406 658 408.5 596.5 Q411 535 418 486.5 Q425 438 436 401.5 Q447 365 465 338 Q494 293 538.5 268.5 Q583 244 643 244 Q700 244 744.5 267.5 Q789 291 817 338 Q834 366 845.5 402 Q857 438 864 486.5 Q871 535 874 598 Q877 661 877 745 Q877 823 874 884.5 Q871 946 864.5 994.5 Q858 1043 846.5 1079.5 Q835 1116 817 1143 Q788 1188 743.5 1212.5 Q699 1237 639 1237 Q582 1237 537.5 1213 Q493 1189 465 1143 Q448 1115 436.5 1079.5 Q425 1044 418.5 995 Q412 946 409 882.5 Q406 819 406 735 Z M106 741 Q106 848 113 933 Q120 1018 134.5 1086 Q149 1154 171 1207 Q193 1260 223 1303 Q292 1403 402 1454 Q512 1505 641 1505 Q777 1505 886.5 1452 Q996 1399 1061 1305 Q1089 1263 1111 1210.5 Q1133 1158 1147 1090 Q1161 1022 1168.5 935.5 Q1176 849 1176 739 Q1176 632 1169 547.5 Q1162 463 1147.5 395 Q1133 327 1111 274 Q1089 221 1059 178 Q990 78 880 26.5 Q770 -25 641 -25 Q573 -25 511.5 -11 Q450 3 396 29.5 Q342 56 297.5 93.5 Q253 131 221 178 Q192 220 170.5 272 Q149 324 135 391.5 Q121 459 113.5 545 Q106 631 106 741 Z " />
<glyph glyph-name="one" unicode="1" horiz-adv-x="1055" d="M739 1530 L745 1528 L745 0 L446 0 L446 1063 L137 885 L137 1180 L739 1530 Z " />
<glyph glyph-name="two" unicode="2" horiz-adv-x="1184" d="M498 600 Q554 673 596.5 732 Q639 791 667.5 841.5 Q696 892 710.5 937.5 Q725 983 725 1028 Q725 1077 708 1116 Q691 1155 661 1182 Q631 1209 589 1223 Q547 1237 496 1237 Q449 1237 402.5 1224 Q356 1211 311 1188.5 Q266 1166 224 1134 Q182 1102 145 1065 L145 1362 Q176 1390 216 1415.5 Q256 1441 304 1461 Q352 1481 408 1493 Q464 1505 526 1505 Q630 1505 721 1473 Q812 1441 880 1382.5 Q948 1324 987 1240 Q1026 1156 1026 1053 Q1026 988 1009.5 924 Q993 860 961.5 795 Q930 730 885 661.5 Q840 593 782 518 L588 266 L590 262 L1079 262 L1079 0 L39 0 L37 4 L498 600 Z " />
<glyph glyph-name="three" unicode="3" horiz-adv-x="1161" d="M141 1483 L1069 1483 L1071 1479 L674 924 Q774 902 847.5 859 Q921 816 970 757 Q1019 698 1043 624.5 Q1067 551 1067 469 Q1067 359 1025 268.5 Q983 178 909 113 Q835 48 735 12.5 Q635 -23 518 -23 Q461 -23 404.5 -15 Q348 -7 295.5 8 Q243 23 196 44 Q149 65 111 90 L111 391 Q203 322 305.5 283 Q408 244 502 244 Q563 244 612.5 260.5 Q662 277 696.5 307 Q731 337 749.5 379.5 Q768 422 768 475 Q768 596 670 659.5 Q572 723 373 723 Q355 723 335 722.5 Q315 722 295 721.5 Q275 721 257 720.5 Q239 720 225 719 L223 723 L575 1217 L573 1221 L141 1221 L141 1483 Z " />
<glyph glyph-name="four" unicode="4" horiz-adv-x="1337" d="M737 315 L16 315 L14 319 L1028 1534 L1032 1532 L1032 547 L1266 547 L1266 315 L1032 315 L1032 0 L737 0 L737 315 Z M485 551 L487 547 L737 547 L737 649 Q737 705 737 756.5 Q737 808 739 860 L735 862 Q703 820 673.5 783.5 Q644 747 610 705 L485 551 Z " />
<glyph glyph-name="five" unicode="5" horiz-adv-x="1151" d="M469 954 Q610 949 720.5 913 Q831 877 906.5 815 Q982 753 1021.5 666.5 Q1061 580 1061 473 Q1061 360 1018.5 268.5 Q976 177 901 112 Q826 47 723 12 Q620 -23 500 -23 Q444 -23 387.5 -15.5 Q331 -8 278.5 6 Q226 20 179.5 38.5 Q133 57 96 80 L119 360 Q207 305 303 274.5 Q399 244 487 244 Q549 244 600 259.5 Q651 275 687 304.5 Q723 334 742.5 375.5 Q762 417 762 469 Q762 535 729.5 582.5 Q697 630 640 661 Q583 692 504.5 706.5 Q426 721 334 721 Q294 721 245 718.5 Q196 716 154 711 L215 1483 L1012 1483 L991 1221 L489 1221 L469 954 Z " />
<glyph glyph-name="six" unicode="6" horiz-adv-x="1272" d="M637 229 Q686 229 730 246 Q774 263 807 293.5 Q840 324 859.5 367 Q879 410 879 461 Q879 509 861.5 551.5 Q844 594 812 625 Q780 656 736 674 Q692 692 639 692 Q590 692 545.5 675.5 Q501 659 467.5 629.5 Q434 600 414.5 558.5 Q395 517 395 467 Q395 421 412.5 378 Q430 335 461.5 302 Q493 269 538 249 Q583 229 637 229 Z M530 877 Q566 898 613 911 Q660 924 723 924 Q815 924 897 890.5 Q979 857 1040.5 796 Q1102 735 1138 651 Q1174 567 1174 467 Q1174 361 1133 271 Q1092 181 1019.5 116 Q947 51 847.5 14 Q748 -23 631 -23 Q517 -23 418.5 12 Q320 47 247 113 Q174 179 132 274 Q90 369 90 489 Q90 549 100.5 605.5 Q111 662 133 721 Q155 780 189.5 844 Q224 908 272 983 L596 1483 L928 1483 L526 879 L530 877 Z " />
<glyph glyph-name="seven" unicode="7" horiz-adv-x="1159" d="M700 1221 L86 1221 L86 1483 L1116 1483 L1118 1479 L514 0 L201 0 L700 1221 Z " />
<glyph glyph-name="eight" unicode="8" horiz-adv-x="1303" d="M946 784 Q1006 761 1052 724.5 Q1098 688 1129.5 641.5 Q1161 595 1177.5 540 Q1194 485 1194 424 Q1194 325 1153.5 243 Q1113 161 1041 101.5 Q969 42 869 9.5 Q769 -23 651 -23 Q533 -23 433.5 9.5 Q334 42 262 101.5 Q190 161 149.5 243 Q109 325 109 424 Q109 485 125 540 Q141 595 172.5 641.5 Q204 688 250 724.5 Q296 761 356 784 L356 788 Q256 827 203 907.5 Q150 988 150 1094 Q150 1182 188 1257.5 Q226 1333 293 1388 Q360 1443 452 1474 Q544 1505 651 1505 Q759 1505 850.5 1474 Q942 1443 1009.5 1388 Q1077 1333 1115 1257.5 Q1153 1182 1153 1094 Q1153 988 1099.5 907.5 Q1046 827 946 788 L946 784 Z M651 879 Q695 879 733.5 893 Q772 907 800.5 932.5 Q829 958 845.5 992.5 Q862 1027 862 1069 Q862 1110 846 1144.5 Q830 1179 801.5 1204 Q773 1229 734.5 1243 Q696 1257 651 1257 Q606 1257 567.5 1243 Q529 1229 500.5 1204 Q472 1179 456 1144.5 Q440 1110 440 1069 Q440 1027 456.5 992.5 Q473 958 502 932.5 Q531 907 569 893 Q607 879 651 879 Z M408 442 Q408 395 426.5 355.5 Q445 316 477.5 287.5 Q510 259 554.5 243 Q599 227 651 227 Q703 227 748 243 Q793 259 825.5 287.5 Q858 316 876.5 355.5 Q895 395 895 442 Q895 490 876 530.5 Q857 571 824 600.5 Q791 630 746.5 647 Q702 664 651 664 Q600 664 556 647 Q512 630 479 600.5 Q446 571 427 530.5 Q408 490 408 442 Z " />
<glyph glyph-name="nine" unicode="9" horiz-adv-x="1245" d="M612 797 Q666 797 710.5 814.5 Q755 832 787 862.5 Q819 893 836.5 933.5 Q854 974 854 1020 Q854 1065 836.5 1107.5 Q819 1150 787.5 1182 Q756 1214 711.5 1233.5 Q667 1253 614 1253 Q565 1253 521 1236.5 Q477 1220 443.5 1190 Q410 1160 390.5 1117.5 Q371 1075 371 1024 Q371 977 388.5 935.5 Q406 894 438 863.5 Q470 833 514 815 Q558 797 612 797 Z M692 594 Q663 578 623 568.5 Q583 559 530 559 Q444 559 362.5 591 Q281 623 218 682 Q155 741 116.5 825 Q78 909 78 1014 Q78 1120 119 1210.5 Q160 1301 233 1366 Q306 1431 405.5 1468 Q505 1505 621 1505 Q733 1505 831 1471 Q929 1437 1002 1372.5 Q1075 1308 1117 1216 Q1159 1124 1159 1008 Q1159 943 1146 882 Q1133 821 1109 760.5 Q1085 700 1052.5 639.5 Q1020 579 981 516 L662 0 L330 0 L696 590 L692 594 Z " />
<glyph glyph-name="currency" unicode="&#xa4;" horiz-adv-x="1229" d="M391 717 Q391 668 407 625 Q423 582 452.5 550.5 Q482 519 523 501 Q564 483 614 483 Q664 483 705.5 501 Q747 519 776.5 550.5 Q806 582 822 625 Q838 668 838 717 Q838 766 822 808.5 Q806 851 776.5 882.5 Q747 914 705.5 932 Q664 950 614 950 Q564 950 523 932 Q482 914 452.5 882.5 Q423 851 407 808.5 Q391 766 391 717 Z M225 506 Q202 552 189 605 Q176 658 176 717 Q176 776 189 828.5 Q202 881 225 928 L68 1087 L240 1262 L399 1102 Q446 1127 500 1140 Q554 1153 614 1153 Q674 1153 728.5 1140 Q783 1127 829 1102 L989 1262 L1161 1087 L1004 928 Q1027 881 1040 828.5 Q1053 776 1053 717 Q1053 658 1040 605 Q1027 552 1004 506 L1161 346 L989 172 L829 332 Q783 307 728.5 294 Q674 281 614 281 Q554 281 500 294 Q446 307 399 332 L240 172 L68 346 L225 506 Z " />
<glyph glyph-name="Euro" unicode="&#x20ac;" horiz-adv-x="1247" d="M31 674 L168 674 Q166 691 165 707.5 Q164 724 164 741 Q164 760 165 779 Q166 798 168 815 L31 815 L31 1012 L203 1012 Q237 1124 300.5 1215 Q364 1306 453 1370.5 Q542 1435 655.5 1470 Q769 1505 903 1505 Q981 1505 1041 1494 Q1101 1483 1155 1464 L1155 1186 Q1096 1207 1036.5 1220 Q977 1233 911 1233 Q774 1233 677 1175 Q580 1117 526 1012 L868 1012 L868 815 L471 815 Q468 793 467.5 777.5 Q467 762 467 743 Q467 725 467 708 Q467 691 469 674 L868 674 L868 477 L524 477 Q577 371 676.5 310.5 Q776 250 922 250 Q988 250 1052 263 Q1116 276 1178 301 L1178 27 Q1119 1 1045 -11 Q971 -23 897 -23 Q761 -23 648 13.5 Q535 50 447 116 Q359 182 297 274 Q235 366 201 477 L31 477 L31 674 Z " />
<glyph glyph-name="dollar" unicode="&#x24;" horiz-adv-x="1212" d="M498 102 Q414 112 329.5 133.5 Q245 155 176 193 L176 473 Q230 438 288.5 413 Q347 388 404.5 372 Q462 356 514.5 348 Q567 340 608 340 Q650 340 685.5 347.5 Q721 355 746 371 Q771 387 785 411.5 Q799 436 799 471 Q799 516 776.5 541 Q754 566 714 581.5 Q674 597 617.5 609.5 Q561 622 494 641 Q420 662 355.5 690 Q291 718 243.5 760 Q196 802 168.5 861 Q141 920 141 1001 Q141 1077 166.5 1140 Q192 1203 239 1251 Q286 1299 351.5 1331 Q417 1363 498 1376 L498 1638 L719 1638 L719 1380 Q799 1372 880.5 1349 Q962 1326 1028 1292 L1028 1016 Q975 1049 919 1073 Q863 1097 809 1112.5 Q755 1128 705.5 1135.5 Q656 1143 616 1143 Q576 1143 543 1135.5 Q510 1128 486 1113 Q462 1098 449 1075.5 Q436 1053 436 1022 Q436 980 458 956 Q480 932 519.5 916.5 Q559 901 613 889.5 Q667 878 731 860 Q809 839 875 810.5 Q941 782 990 739 Q1039 696 1066.5 636 Q1094 576 1094 492 Q1094 410 1066.5 344 Q1039 278 989.5 229 Q940 180 871 148.5 Q802 117 719 104 L719 -156 L498 -156 L498 102 Z " />
<glyph glyph-name="cent" unicode="&#xa2;" horiz-adv-x="1057" d="M465 231 Q374 254 300.5 301 Q227 348 175 414 Q123 480 94.5 561.5 Q66 643 66 735 Q66 831 96 914 Q126 997 179.5 1062.5 Q233 1128 306 1174 Q379 1220 465 1243 L465 1520 L686 1520 L686 1264 Q757 1259 820.5 1242.5 Q884 1226 934 1198 L934 930 Q869 972 796.5 997 Q724 1022 651 1022 Q583 1022 528 1000.5 Q473 979 434 941 Q395 903 373.5 851.5 Q352 800 352 739 Q352 677 374 625.5 Q396 574 436 537 Q476 500 531.5 479.5 Q587 459 655 459 Q731 459 809.5 485 Q888 511 950 559 L950 291 Q895 257 825 239.5 Q755 222 686 217 L686 -37 L465 -37 L465 231 Z " />
<glyph glyph-name="sterling" unicode="&#xa3;" horiz-adv-x="1202" d="M1092 262 L1092 0 L113 0 L111 4 L184 131 Q212 179 234.5 222.5 Q257 266 273 307.5 Q289 349 297 391.5 Q305 434 305 481 Q305 513 301 545.5 Q297 578 289 610 L121 610 L121 831 L215 831 Q198 887 185 944 Q172 1001 172 1063 Q172 1165 211 1247 Q250 1329 319 1386 Q388 1443 482.5 1474 Q577 1505 688 1505 Q745 1505 798 1497.5 Q851 1490 897.5 1477.5 Q944 1465 983.5 1448 Q1023 1431 1053 1413 L1053 1120 Q974 1176 884 1205.5 Q794 1235 711 1235 Q656 1235 612 1222 Q568 1209 536.5 1183.5 Q505 1158 488 1120 Q471 1082 471 1032 Q471 986 483 935.5 Q495 885 514 831 L860 831 L860 610 L575 610 Q586 555 586 502 Q586 434 567.5 374.5 Q549 315 520 262 L1092 262 Z " />
<glyph glyph-name="florin" unicode="&#x192;" horiz-adv-x="1083" d="M279 1008 L444 1008 L479 1200 Q498 1305 541.5 1376 Q585 1447 645 1490 Q705 1533 777.5 1551 Q850 1569 926 1569 Q964 1569 1001.5 1564.5 Q1039 1560 1065 1552 L1065 1309 Q1031 1317 995.5 1321 Q960 1325 932 1325 Q899 1325 870.5 1318 Q842 1311 819.5 1294 Q797 1277 781 1249 Q765 1221 758 1178 L727 1008 L967 1008 L926 768 L684 768 L532 -111 Q513 -222 470.5 -292 Q428 -362 371 -402.5 Q314 -443 246.5 -458 Q179 -473 111 -473 Q66 -473 31 -468.5 Q-4 -464 -29 -459 L-29 -211 Q-3 -217 33 -222 Q69 -227 100 -227 Q166 -227 204 -194 Q242 -161 254 -86 L403 768 L238 768 L279 1008 Z " />
<glyph glyph-name="yen" unicode="&#xa5;" horiz-adv-x="1411" d="M190 1001 L371 1001 L31 1483 L377 1483 L528 1262 Q572 1199 619 1129 Q666 1059 711 991 L715 991 Q760 1060 803.5 1126 Q847 1192 895 1264 L1042 1483 L1378 1483 L1040 1001 L1223 1001 L1223 805 L903 805 L856 739 L856 625 L1223 625 L1223 428 L856 428 L856 0 L557 0 L557 428 L190 428 L190 625 L557 625 L557 737 L510 805 L190 805 L190 1001 Z " />
<glyph glyph-name="percent" unicode="&#x25;" horiz-adv-x="1946" d="M1341 1483 L1585 1483 L604 0 L360 0 L1341 1483 Z M317 1122 Q317 1084 326.5 1051 Q336 1018 355 993.5 Q374 969 401.5 954.5 Q429 940 465 940 Q501 940 528.5 954.5 Q556 969 574.5 993.5 Q593 1018 602.5 1051 Q612 1084 612 1122 Q612 1160 602.5 1193.5 Q593 1227 574.5 1251.5 Q556 1276 528.5 1290.5 Q501 1305 465 1305 Q429 1305 401.5 1290.5 Q374 1276 355 1251.5 Q336 1227 326.5 1193.5 Q317 1160 317 1122 Z M92 1122 Q92 1205 119 1275 Q146 1345 195.5 1396 Q245 1447 313.5 1476 Q382 1505 465 1505 Q548 1505 616.5 1476 Q685 1447 734.5 1396 Q784 1345 811 1275 Q838 1205 838 1122 Q838 1039 811 969 Q784 899 734.5 848 Q685 797 616.5 768 Q548 739 465 739 Q382 739 313.5 768 Q245 797 195.5 848 Q146 899 119 969 Q92 1039 92 1122 Z M1628 360 Q1628 398 1618.5 431.5 Q1609 465 1590.5 489.5 Q1572 514 1544.5 528.5 Q1517 543 1481 543 Q1445 543 1417 528.5 Q1389 514 1370.5 489.5 Q1352 465 1342.5 431.5 Q1333 398 1333 360 Q1333 322 1342.5 289 Q1352 256 1370.5 231.5 Q1389 207 1417 192.5 Q1445 178 1481 178 Q1517 178 1544.5 192.5 Q1572 207 1590.5 231.5 Q1609 256 1618.5 289 Q1628 322 1628 360 Z M1853 360 Q1853 277 1826 207 Q1799 137 1750 86 Q1701 35 1632.5 6 Q1564 -23 1481 -23 Q1398 -23 1329.5 6 Q1261 35 1211.5 86 Q1162 137 1135 207 Q1108 277 1108 360 Q1108 443 1135 513.5 Q1162 584 1211.5 635 Q1261 686 1329.5 714.5 Q1398 743 1481 743 Q1564 743 1632.5 714.5 Q1701 686 1750 635 Q1799 584 1826 513.5 Q1853 443 1853 360 Z " />
</font>
</svg>
